<?xml version="1.0" encoding="UTF-8" standalone="no"?>
<svg
   xmlns:dc="http://purl.org/dc/elements/1.1/"
   xmlns:cc="http://creativecommons.org/ns#"
   xmlns:rdf="http://www.w3.org/1999/02/22-rdf-syntax-ns#"
   xmlns:svg="http://www.w3.org/2000/svg"
   xmlns="http://www.w3.org/2000/svg"
   xmlns:sodipodi="http://sodipodi.sourceforge.net/DTD/sodipodi-0.dtd"
   xmlns:inkscape="http://www.inkscape.org/namespaces/inkscape"
   width="84.320114mm"
   height="91.113525mm"
   viewBox="0 0 84.320115 91.113525"
   version="1.1"
   id="svg2734"
   inkscape:version="1.0.1 (3bc2e81, 2020-09-07)"
   sodipodi:docname="B225LOGO.svg">
  <defs
     id="defs2728">
    <filter
       inkscape:collect="always"
       style="color-interpolation-filters:sRGB"
       id="filter923"
       x="-0.0020314653"
       width="1.0040629"
       y="-0.0018546364"
       height="1.0037093">
      <feGaussianBlur
         inkscape:collect="always"
         stdDeviation="0.12741605"
         id="feGaussianBlur925" />
    </filter>
  </defs>
  <sodipodi:namedview
     id="base"
     pagecolor="#ffffff"
     bordercolor="#666666"
     borderopacity="1.0"
     inkscape:pageopacity="0.0"
     inkscape:pageshadow="2"
     inkscape:zoom="0.35"
     inkscape:cx="-359.55406"
     inkscape:cy="332.18304"
     inkscape:document-units="mm"
     inkscape:current-layer="layer1"
     inkscape:document-rotation="0"
     showgrid="false"
     inkscape:window-width="1366"
     inkscape:window-height="720"
     inkscape:window-x="0"
     inkscape:window-y="24"
     inkscape:window-maximized="0" />
  <metadata
     id="metadata2731">
    <rdf:RDF>
      <cc:Work
         rdf:about="">
        <dc:format>image/svg+xml</dc:format>
        <dc:type
           rdf:resource="http://purl.org/dc/dcmitype/StillImage" />
        <dc:title></dc:title>
      </cc:Work>
    </rdf:RDF>
  </metadata>
  <g
     inkscape:label="Layer 1"
     inkscape:groupmode="layer"
     id="layer1"
     transform="translate(-200.96535,-60.276571)">
    <path
       style="opacity:1;fill:#02a0c5;fill-opacity:1;stroke:none;stroke-width:2.1097;filter:url(#filter923)"
       d="m 2043.3477,792.78516 c -11.4427,-6.59626 -23.1869,-13.37586 -35.5567,-20.51758 -326.9554,-188.76784 -326.9555,-185.02906 0,-373.79688 11.3391,-6.54664 22.1913,-12.81332 32.75,-18.90234 -291.0067,-167.75472 -288.164,-155.8367 -288.164,207.41602 0,364.44294 -2.9258,375.28521 290.9707,205.80078 z"
       transform="matrix(0.14530001,0,0,0.14530001,-53.569001,20.664468)"
       id="path2697" />
    <path
       style="opacity:1;fill:#ff0101;fill-opacity:1;stroke:none;stroke-width:2.1097;filter:url(#filter923)"
       d="m 2267.7695,273.78125 c -41.9901,0.37465 -111.7244,39.17811 -227.2285,105.78711 11.4423,6.59605 23.1853,13.3761 35.5547,20.51758 326.9554,188.76786 326.9555,185.02905 0,373.79687 -11.3386,6.54635 -22.1897,12.81358 -32.748,18.90235 291.0054,167.754 288.162,155.83618 288.1621,-207.41602 0,-221.2123 1.1116,-312.16652 -63.7403,-311.58789 z"
       transform="matrix(0.14530001,0,0,0.14530001,-53.569001,20.664468)"
       id="path2699" />
    <path
       id="path2701"
       style="opacity:1;fill:#600004;fill-opacity:1;stroke:none;stroke-width:2.1097;filter:url(#filter923)"
       inkscape:transform-center-x="-9.799195"
       inkscape:transform-center-y="-1.2455719e-05"
       d="m 2696.6113,-222.16992 c -10.5587,6.08903 -21.4108,12.35568 -32.75,18.90234 -326.9554,188.767814 -326.9554,185.029038 0,373.79688 12.3694,7.14148 24.1124,13.92152 35.5547,20.51758 10.5588,-6.08906 21.4108,-12.35567 32.75,-18.90235 326.9555,-188.767808 326.9555,-185.029043 0,-373.79687 -12.3693,-7.14145 -24.1125,-13.92156 -35.5547,-20.51758 z"
       transform="matrix(0.14530001,0,0,0.14530001,-148.8957,108.09704)" />
  </g>
</svg>
