<?xml version="1.0" encoding="UTF-8" standalone="no"?>
<svg
   xmlns:dc="http://purl.org/dc/elements/1.1/"
   xmlns:cc="http://creativecommons.org/ns#"
   xmlns:rdf="http://www.w3.org/1999/02/22-rdf-syntax-ns#"
   xmlns:svg="http://www.w3.org/2000/svg"
   xmlns="http://www.w3.org/2000/svg"
   xmlns:sodipodi="http://sodipodi.sourceforge.net/DTD/sodipodi-0.dtd"
   xmlns:inkscape="http://www.inkscape.org/namespaces/inkscape"
   version="1.1"
   id="Layer_1"
   x="0px"
   y="0px"
   viewBox="0 0 1400 1000"
   style="enable-background:new 0 0 1400 1000;"
   xml:space="preserve"
   sodipodi:docname="Cloud Engineering Vector.svg"
   inkscape:version="1.0.1 (3bc2e81, 2020-09-07)"><metadata
   id="metadata630"><rdf:RDF><cc:Work
       rdf:about=""><dc:format>image/svg+xml</dc:format><dc:type
         rdf:resource="http://purl.org/dc/dcmitype/StillImage" /><dc:title></dc:title></cc:Work></rdf:RDF></metadata><defs
   id="defs628" /><sodipodi:namedview
   pagecolor="#ffffff"
   bordercolor="#666666"
   borderopacity="1"
   objecttolerance="10"
   gridtolerance="10"
   guidetolerance="10"
   inkscape:pageopacity="0"
   inkscape:pageshadow="2"
   inkscape:window-width="1366"
   inkscape:window-height="720"
   id="namedview626"
   showgrid="false"
   inkscape:zoom="0.37052395"
   inkscape:cx="806.59578"
   inkscape:cy="512.60685"
   inkscape:window-x="0"
   inkscape:window-y="24"
   inkscape:window-maximized="1"
   inkscape:current-layer="Layer_1" />
<style
   type="text/css"
   id="style339">
	.st0{fill:#282626;}
	.st1{opacity:0.13;fill:#30CFEF;}
	.st2{opacity:0.13;}
	.st3{fill:#30CFEF;}
	.st4{fill:#069BE2;}
	.st5{fill:#C2F0F5;}
</style>
<g
   id="g623">
	<rect
   class="st0"
   width="1400"
   height="1000"
   id="rect341" />
	<path
   class="st1"
   d="M1053,701.4v-27.5l-44.1-9.1c-1.6-10.5-4.4-20.7-8.1-30.3l33.6-30l-13.8-23.8l-42.8,14.1   c-6.6-8.2-14-15.6-22.2-22.2l14.1-42.8L946,516l-30,33.6c-9.7-3.7-19.8-6.5-30.3-8.1l-9.1-44.1H849l-9.1,44.1   c-10.5,1.6-20.7,4.4-30.3,8.1l-30-33.6l-23.8,13.8l14.1,42.8c-8.2,6.6-15.6,14-22.2,22.2l-42.8-14.1l-13.8,23.8l33.6,30   c-3.7,9.7-6.5,19.8-8.1,30.3l-44.1,9.1v27.5l44.1,9.1c1.6,10.5,4.4,20.7,8.1,30.3l-33.6,30l13.8,23.8l42.8-14.1   c6.6,8.2,14,15.6,22.2,22.2l-14.1,42.8l23.8,13.8l30-33.6c9.7,3.7,19.8,6.5,30.3,8.1l9.1,44.1h27.5l9.1-44.1   c10.5-1.6,20.7-4.4,30.3-8.1l30,33.6l23.8-13.8l-14.1-42.8c8.2-6.6,15.6-14,22.2-22.2l42.8,14.1l13.8-23.8l-33.6-30   c3.7-9.7,6.5-19.8,8.1-30.3L1053,701.4z M959.4,687.6c0,53.3-43.2,96.6-96.6,96.6s-96.6-43.2-96.6-96.6c0-53.3,43.2-96.6,96.6-96.6   S959.4,634.2,959.4,687.6z"
   id="path343" />
	<path
   class="st1"
   d="M584.4,245.9v-14.7l-23.5-4.9c-0.9-5.6-2.4-11-4.3-16.2l17.9-16l-7.4-12.7l-22.8,7.5   c-3.5-4.4-7.5-8.3-11.8-11.8l7.5-22.8l-12.7-7.4l-16,17.9c-5.2-2-10.6-3.5-16.2-4.3l-4.9-23.5h-14.7l-4.9,23.5   c-5.6,0.9-11,2.4-16.2,4.3l-16-17.9l-12.7,7.4l7.5,22.8c-4.4,3.5-8.3,7.5-11.8,11.8l-22.8-7.5l-7.4,12.7l17.9,16   c-2,5.2-3.5,10.6-4.3,16.2l-23.5,4.9v14.7l23.5,4.9c0.9,5.6,2.4,11,4.3,16.2l-17.9,16l7.4,12.7l22.8-7.5c3.5,4.4,7.5,8.3,11.8,11.8   l-7.5,22.8l12.7,7.4l16-17.9c5.2,2,10.6,3.5,16.2,4.3l4.9,23.5h14.7l4.9-23.5c5.6-0.9,11-2.4,16.2-4.3l16,17.9l12.7-7.4l-7.5-22.8   c4.4-3.5,8.3-7.5,11.8-11.8l22.8,7.5l7.4-12.7l-17.9-16c2-5.2,3.5-10.6,4.3-16.2L584.4,245.9z M534.3,238.6   c0,28.5-23.1,51.6-51.6,51.6c-28.5,0-51.6-23.1-51.6-51.6c0-28.5,23.1-51.6,51.6-51.6C511.3,187,534.3,210.1,534.3,238.6z"
   id="path345" />
	<path
   class="st1"
   d="M614.4,801.2V785l-26-5.4c-1-6.2-2.6-12.2-4.8-17.9l19.8-17.7l-8.1-14l-25.2,8.3c-3.9-4.8-8.3-9.2-13.1-13.1   l8.3-25.2l-14-8.1l-17.7,19.8c-5.7-2.2-11.7-3.8-17.9-4.8l-5.4-26h-16.2l-5.4,26c-6.2,1-12.2,2.6-17.9,4.8L453.2,692l-14,8.1   l8.3,25.2c-4.8,3.9-9.2,8.3-13.1,13.1l-25.2-8.3l-8.1,14l19.8,17.7c-2.2,5.7-3.8,11.7-4.8,17.9l-26,5.4v16.2l26,5.4   c1,6.2,2.6,12.2,4.8,17.9l-19.8,17.7l8.1,14l25.2-8.3c3.9,4.8,8.3,9.2,13.1,13.1l-8.3,25.2l14,8.1l17.7-19.8   c5.7,2.2,11.7,3.8,17.9,4.8l5.4,26h16.2l5.4-26c6.2-1,12.2-2.6,17.9-4.8l17.7,19.8l14-8.1l-8.3-25.2c4.8-3.9,9.2-8.3,13.1-13.1   l25.2,8.3l8.1-14l-19.8-17.7c2.2-5.7,3.8-11.7,4.8-17.9L614.4,801.2z M559.2,793.1c0,31.4-25.5,56.9-56.9,56.9   s-56.9-25.5-56.9-56.9c0-31.4,25.5-56.9,56.9-56.9S559.2,761.7,559.2,793.1z"
   id="path347" />
	<path
   class="st1"
   d="M330,665.8v-19.4l-31-6.4c-1.1-7.4-3.1-14.5-5.7-21.3l23.6-21.1l-9.7-16.8l-30.1,9.9   c-4.6-5.7-9.9-11-15.6-15.6l9.9-30.1l-16.8-9.7l-21.1,23.6c-6.8-2.6-13.9-4.6-21.3-5.7l-6.4-31h-19.4l-6.4,31   c-7.4,1.1-14.5,3.1-21.3,5.7l-21.1-23.6l-16.8,9.7l9.9,30.1c-5.7,4.6-11,9.9-15.6,15.6l-30.1-9.9l-9.7,16.8l23.6,21.1   c-2.6,6.8-4.6,13.9-5.7,21.3l-31,6.4v19.4l31,6.4c1.1,7.4,3.1,14.5,5.7,21.3l-23.6,21.1l9.7,16.8l30.1-9.9   c4.6,5.7,9.9,11,15.6,15.6l-9.9,30.1l16.8,9.7l21.1-23.6c6.8,2.6,13.9,4.6,21.3,5.7l6.4,31h19.4l6.4-31c7.4-1.1,14.5-3.1,21.3-5.7   l21.1,23.6l16.8-9.7l-9.9-30.1c5.7-4.6,11-9.9,15.6-15.6l30.1,9.9l9.7-16.8l-23.6-21.1c2.6-6.8,4.6-13.9,5.7-21.3L330,665.8z    M264.2,656.1c0,37.5-30.4,67.9-67.9,67.9s-67.9-30.4-67.9-67.9c0-37.5,30.4-67.9,67.9-67.9S264.2,618.6,264.2,656.1z"
   id="path349" />
	<g
   class="st2"
   id="g355">
		<path
   class="st3"
   d="M657.4,475.3v-39.1l-46.4-7.3c-3.9-21.6-12.4-41.6-24.4-59l27.7-38l-27.7-27.7l-38,27.7    c-17.4-12-37.4-20.6-59-24.4l-7.3-46.4h-39.1l-7.3,46.4c-21.6,3.9-41.6,12.4-59,24.4l-38-27.7l-27.7,27.7l27.7,38    c-12,17.4-20.6,37.4-24.4,59l-46.4,7.3v39.1l46.4,7.3c3.9,21.6,12.4,41.6,24.4,59l-27.7,38l27.7,27.7l38-27.7    c17.4,12,37.4,20.6,59,24.4l7.3,46.4h39.1l7.3-46.4c21.6-3.9,41.6-12.4,59-24.4l38,27.7l27.7-27.7l-27.7-38    c12-17.4,20.6-37.4,24.4-59L657.4,475.3z M462.7,546.5c-50.2,0-90.9-40.7-90.9-90.9s40.7-90.9,90.9-90.9s90.9,40.7,90.9,90.9    S512.9,546.5,462.7,546.5z"
   id="path351" />
		<circle
   class="st3"
   cx="462.7"
   cy="455.7"
   r="40.4"
   id="circle353" />
	</g>
	<g
   class="st2"
   id="g361">
		<path
   class="st3"
   d="M1038.4,248.3v-39.1l-46.4-7.3c-3.9-21.6-12.4-41.6-24.4-59l27.7-38l-27.7-27.7l-38,27.7    c-17.4-12-37.4-20.6-59-24.4L863.3,34h-39.1l-7.3,46.4c-21.6,3.9-41.6,12.4-59,24.4l-38-27.7l-27.7,27.7l27.7,38    c-12,17.4-20.6,37.4-24.4,59l-46.4,7.3v39.1l46.4,7.3c3.9,21.6,12.4,41.6,24.4,59l-27.7,38l27.7,27.7l38-27.7    c17.4,12,37.4,20.6,59,24.4l7.3,46.4h39.1l7.3-46.4c21.6-3.9,41.6-12.4,59-24.4l38,27.7l27.7-27.7l-27.7-38    c12-17.4,20.6-37.4,24.4-59L1038.4,248.3z M843.7,319.5c-50.2,0-90.9-40.7-90.9-90.9s40.7-90.9,90.9-90.9    c50.2,0,90.9,40.7,90.9,90.9S893.9,319.5,843.7,319.5z"
   id="path357" />
		<circle
   class="st3"
   cx="843.7"
   cy="228.7"
   r="40.4"
   id="circle359" />
	</g>
	<g
   class="st2"
   id="g367">
		<path
   class="st3"
   d="M346.4,312.2v-25.1l-29.7-4.7c-2.5-13.8-7.9-26.6-15.7-37.8l17.7-24.3L301,202.7l-24.3,17.7    c-11.1-7.7-23.9-13.2-37.8-15.7l-4.7-29.7h-25.1l-4.7,29.7c-13.8,2.5-26.6,7.9-37.8,15.7l-24.3-17.7l-17.7,17.7l17.7,24.3    c-7.7,11.1-13.2,23.9-15.7,37.8L97,287.2v25.1l29.7,4.7c2.5,13.8,7.9,26.6,15.7,37.8L124.7,379l17.7,17.7l24.3-17.7    c11.1,7.7,23.9,13.2,37.8,15.7l4.7,29.7h25.1l4.7-29.7c13.8-2.5,26.6-7.9,37.8-15.7l24.3,17.7l17.7-17.7L301,354.7    c7.7-11.1,13.2-23.9,15.7-37.8L346.4,312.2z M221.7,357.9c-32.1,0-58.2-26.1-58.2-58.2s26.1-58.2,58.2-58.2s58.2,26.1,58.2,58.2    S253.9,357.9,221.7,357.9z"
   id="path363" />
		<circle
   class="st3"
   cx="221.7"
   cy="299.7"
   r="25.9"
   id="circle365" />
	</g>
	<path
   class="st4"
   d="M1201.3,930h-170.1c-19.9,0-36.1-16.1-36.3-35.9l0-0.4c0-32.3,26.8-58.6,59.4-57.5   c5.4-22.4,25.8-38.8,49.3-38.8c17.4,0,33.4,8.9,42.7,23.4c3.5-1,7-1.5,10.7-1.5c15.1,0,29,8.8,35.6,22.3   c25.3,1.9,45.4,23.1,45.4,48.9c0,4.5-0.6,8.9-1.8,13.2C1231.9,919.2,1217.5,930,1201.3,930z M1052.5,846.2   c-26.2,0-47.5,21.3-47.5,47.5l0,0.3c0.1,14.3,11.9,26,26.3,26h170.1c11.7,0,22.1-7.8,25.2-19c1-3.4,1.4-6.9,1.4-10.5   c0-21.4-17.4-38.8-38.7-39l-3.4,0l-1.2-3.2c-4.3-11.3-15.4-19-27.6-19c-3.8,0-7.5,0.7-11,2.1l-4.2,1.7l-2.1-4   c-7.1-13.4-20.9-21.8-36-21.8c-20.1,0-37.4,15-40.3,34.8l-0.7,4.8l-4.8-0.5C1056.1,846.3,1054.3,846.2,1052.5,846.2z"
   id="path369" />
	<path
   class="st3"
   d="M1137,177h-98.7c-19.9,0-36.1-16.1-36.3-35.9l0-0.4c0-32.3,26.8-58.6,59.4-57.5c5.4-22.4,25.8-38.8,49.3-38.8   c17.4,0,33.4,8.9,42.7,23.4c3.5-1,7-1.5,10.7-1.5c15.1,0,29,8.8,35.6,22.3c25.3,1.9,45.4,23.1,45.4,48.9h-10   c0-21.4-17.4-38.8-38.7-39l-3.4,0l-1.2-3.2c-4.3-11.3-15.4-19-27.6-19c-3.8,0-7.5,0.7-11,2.1l-4.2,1.7l-2.1-4   c-7.1-13.4-20.9-21.8-36-21.8c-20.1,0-37.4,15-40.3,34.8l-0.7,4.8l-4.8-0.5c-1.8-0.2-3.6-0.3-5.4-0.3c-26.2,0-47.5,21.3-47.5,47.5   l0,0.3c0.1,14.3,11.9,26,26.3,26h98.7V177z"
   id="path371" />
	<path
   class="st3"
   d="M1137,172"
   id="path373" />
	<path
   class="st4"
   d="M984,248c-0.6-3.4-1.4-6.8-2.4-10c-8.9-27.8-34.3-48.4-64.6-50c-9.2-20.3-29.8-33.8-52.3-33.8   c-5.9,0-11.7,0.9-17.3,2.7c-13.4-22.3-37.4-35.9-63.7-35.9c-18,0-35.3,6.5-48.8,18.3c-12.2,10.6-20.6,24.9-23.9,40.6   c-1.7-0.1-3.3-0.1-4.9-0.1c-37.5,0-69.3,24.4-80.4,58.2c-1.1,3.2-2,6.6-2.6,10c-1.1,5.3-1.6,10.8-1.6,16.5v0.6   c0.2,28.6,23.7,51.9,52.4,51.9h258c23.4,0,44.1-15.6,50.4-38c1.8-6.3,2.6-12.8,2.6-19.3C985,255.7,984.7,251.8,984,248z    M972.7,276.3c-5,18.1-21.8,30.7-40.8,30.7h-258c-23.2,0-42.3-18.8-42.4-42v-0.5c0-5.7,0.6-11.2,1.8-16.5c0.8-3.4,1.8-6.8,3-10   c10.7-28.2,38-48.2,69.8-48.2c2.8,0,5.6,0.2,8.5,0.5l4.8,0.5l0.7-4.8c4.5-31.4,31.9-55,63.7-55c24,0,45.8,13.2,57,34.4l2.1,4   l4.2-1.7c5.6-2.3,11.6-3.4,17.7-3.4c19.5,0,37.3,12.2,44.2,30.4l1.2,3.2l3.4,0c26.2,0.2,48.6,16.8,57.4,40.1   c1.2,3.2,2.2,6.6,2.8,10c0.7,3.8,1.1,7.7,1.1,11.7C975,265.3,974.2,270.9,972.7,276.3z"
   id="path375" />
	<path
   class="st3"
   d="M729,536.6v-13.9l-22.3-4.6c-0.8-5.3-2.2-10.4-4.1-15.3l17-15.2l-7-12.1l-21.6,7.1c-3.3-4.1-7.1-7.9-11.2-11.2   l7.1-21.6l-12.1-7l-15.2,17c-4.9-1.9-10-3.3-15.3-4.1l-4.6-22.3h-13.9l-4.6,22.3c-5.3,0.8-10.4,2.2-15.3,4.1l-15.2-17l-12.1,7   l7.1,21.6c-4.1,3.3-7.9,7.1-11.2,11.2l-21.6-7.1l-7,12.1l17,15.2c-1.9,4.9-3.3,10-4.1,15.3l-22.3,4.6v13.9l22.3,4.6   c0.8,5.3,2.2,10.4,4.1,15.3l-17,15.2l7,12.1l21.6-7.1c3.3,4.1,7.1,7.9,11.2,11.2l-7.1,21.6l12.1,7l15.2-17c4.9,1.9,10,3.3,15.3,4.1   l4.6,22.3h13.9l4.6-22.3c5.3-0.8,10.4-2.2,15.3-4.1l15.2,17l12.1-7l-7.1-21.6c4.1-3.3,7.9-7.1,11.2-11.2l21.6,7.1l7-12.1l-17-15.2   c1.9-4.9,3.3-10,4.1-15.3L729,536.6z M681.6,529.6c0,27-21.9,48.9-48.9,48.9s-48.9-21.9-48.9-48.9c0-27,21.9-48.9,48.9-48.9   S681.6,502.6,681.6,529.6z"
   id="path377" />
	<path
   class="st5"
   d="M603.8,374.1v-18l-29.8-2.8c-1.1-8.4-3.2-16.4-6.4-23.9l24.4-17.3l-9-15.6l-27.2,12.5   c-5-6.6-10.9-12.5-17.5-17.5l12.5-27.2l-15.6-9l-17.3,24.4c-7.5-3.1-15.6-5.3-23.9-6.4l-2.8-29.8h-18l-2.8,29.8   c-8.4,1.1-16.4,3.2-23.9,6.4L428.8,255l-15.6,9l12.5,27.2c-6.6,5-12.5,10.9-17.5,17.5l-27.2-12.5l-9,15.6l24.4,17.3   c-3.1,7.5-5.3,15.6-6.4,23.9l-29.8,2.8v18l29.8,2.8c1.1,8.4,3.2,16.4,6.4,23.9l-24.4,17.3l9,15.6l27.2-12.5   c5,6.6,10.9,12.5,17.5,17.5L413.2,466l15.6,9l17.3-24.4c7.5,3.1,15.6,5.3,23.9,6.4l2.8,29.8h18l2.8-29.8c8.4-1.1,16.4-3.2,23.9-6.4   l17.3,24.4l15.6-9l-12.5-27.2c6.6-5,12.5-10.9,17.5-17.5l27.2,12.5l9-15.6l-24.4-17.3c3.1-7.5,5.3-15.6,6.4-23.9L603.8,374.1z    M502.1,360.7c-0.8-4.4-3-8.3-6.2-11.2l27.2-47.2c19.3,12.7,32.3,34,33.7,58.4H502.1z M496,364.5c0,1.7-0.3,3.4-0.9,4.9   c-0.6,1.8-1.6,3.3-2.9,4.7c-2,2.1-4.6,3.6-7.6,4.2c-0.9,0.2-1.7,0.2-2.6,0.2s-1.8-0.1-2.6-0.2c-3-0.6-5.6-2.1-7.6-4.2   c-1.3-1.3-2.3-2.9-2.9-4.7c-0.6-1.5-0.9-3.2-0.9-4.9c0-1.3,0.2-2.6,0.5-3.8c0.6-2,1.6-3.8,2.9-5.4c1.9-2.2,4.5-3.8,7.4-4.5   c1-0.2,2.1-0.4,3.2-0.4s2.2,0.1,3.2,0.4c2.9,0.7,5.5,2.3,7.4,4.5c1.3,1.5,2.3,3.4,2.9,5.4C495.8,361.9,496,363.2,496,364.5z    M488.5,345c-2.1-0.7-4.3-1.1-6.6-1.1s-4.5,0.4-6.6,1.1l-27.2-47.1c10.1-5.1,21.6-8,33.7-8c12.1,0,23.6,2.9,33.7,8L488.5,345z    M467.9,349.4c-3.1,2.9-5.4,6.9-6.2,11.2h-54.8c1.4-24.4,14.5-45.7,33.7-58.4L467.9,349.4z M462,369.4c1,4.1,3.3,7.8,6.4,10.5   l-27.7,47.9c-19.3-12.7-32.3-34-33.7-58.4H462z M475.9,384.1c1.9,0.6,3.9,0.9,6,0.9c2.1,0,4.1-0.3,6-0.9l27.7,48   c-10.1,5.1-21.6,8-33.7,8s-23.6-2.9-33.7-8L475.9,384.1z M495.5,379.9c3.1-2.7,5.4-6.4,6.4-10.5h55c-1.4,24.4-14.5,45.7-33.7,58.4   L495.5,379.9z"
   id="path379" />
	<g
   id="g385">
		<path
   class="st4"
   d="M556.4,652.6v-23.9l-28.3-4.4c-2.4-13.2-7.6-25.4-14.9-35.9l16.9-23.2l-16.9-16.9l-23.2,16.9    c-10.6-7.3-22.8-12.5-35.9-14.9l-4.4-28.3h-23.9l-4.4,28.3c-13.2,2.4-25.4,7.6-35.9,14.9l-23.2-16.9l-16.9,16.9l16.9,23.2    c-7.3,10.6-12.5,22.8-14.9,35.9l-28.3,4.4v23.9l28.3,4.4c2.4,13.2,7.6,25.4,14.9,35.9l-16.9,23.2l16.9,16.9l23.2-16.9    c10.6,7.3,22.8,12.5,35.9,14.9l4.4,28.3h23.9l4.4-28.3c13.2-2.4,25.4-7.6,35.9-14.9l23.2,16.9l16.9-16.9L513.2,693    c7.3-10.6,12.5-22.8,14.9-35.9L556.4,652.6z M437.7,696.1c-30.6,0-55.4-24.8-55.4-55.4s24.8-55.4,55.4-55.4s55.4,24.8,55.4,55.4    S468.3,696.1,437.7,696.1z"
   id="path381" />
		<circle
   class="st4"
   cx="437.7"
   cy="640.7"
   r="24.6"
   id="circle383" />
	</g>
	<path
   class="st5"
   d="M1400,702.7c-32.7,15.6-69.3,24.3-108,24.3c-139.2,0-252-112.8-252-252s112.8-252,252-252   c38.7,0,75.3,8.7,108,24.3v-54.4c-33.5-12.8-69.9-19.9-108-19.9c-166.8,0-302,135.2-302,302s135.2,302,302,302   c38.1,0,74.5-7.1,108-19.9V702.7z"
   id="path387" />
	<path
   class="st3"
   d="M1400,672.8c-29.3,14.4-62.2,22.5-97,22.5c-121.3,0-219.7-98.3-219.7-219.7c0-121.3,98.3-219.7,219.7-219.7   c34.8,0,67.7,8.1,97,22.5v-9.3c-29.4-13.9-62.3-21.6-97-21.6c-125.9,0-228,102.1-228,228s102.1,228,228,228   c34.7,0,67.6-7.8,97-21.6V672.8z"
   id="path389" />
	<path
   class="st4"
   d="M1400,799.7c-30.7,9.2-63.3,14.1-97,14.1c-186.8,0-338.2-151.4-338.2-338.2s151.4-338.2,338.2-338.2   c33.7,0,66.3,5,97,14.1v-13.4c-30.8-8.8-63.4-13.6-97-13.6c-193.9,0-351,157.1-351,351s157.1,351,351,351c33.6,0,66.2-4.7,97-13.6   V799.7z"
   id="path391" />
	<path
   class="st5"
   d="M1400,581.7c-25.6,23.4-59.6,37.7-97,37.7c-79.4,0-143.7-64.4-143.7-143.7s64.4-143.7,143.7-143.7   c37.4,0,71.4,14.3,97,37.7v-18.2c-26.7-20.9-60.4-33.4-97-33.4c-87.1,0-157.6,70.6-157.6,157.6s70.6,157.6,157.6,157.6   c36.6,0,70.3-12.5,97-33.4V581.7z"
   id="path393" />
	<g
   id="g421">
		<path
   class="st3"
   d="M277.7,248.8c-36.7,0-66.5,29.8-66.5,66.5c0,36.7,29.8,66.5,66.5,66.5s66.5-29.8,66.5-66.5    C344.2,278.6,314.4,248.8,277.7,248.8z M277.7,352.1c-20.3,0-36.8-16.5-36.8-36.8c0-20.3,16.5-36.8,36.8-36.8s36.8,16.5,36.8,36.8    C314.5,335.6,298,352.1,277.7,352.1z"
   id="path395" />
		<g
   id="g401">
			<polygon
   class="st3"
   points="286.6,231 268.8,231 263.6,262.5 291.8,262.5    "
   id="polygon397" />
			<polygon
   class="st3"
   points="268.8,399.6 286.6,399.6 291.8,368.1 263.6,368.1    "
   id="polygon399" />
		</g>
		<g
   id="g407">
			<polygon
   class="st3"
   points="224.4,249.4 211.7,262 230.4,287.9 250.3,268    "
   id="polygon403" />
			<polygon
   class="st3"
   points="331,381.2 343.6,368.6 325,342.6 305,362.6    "
   id="polygon405" />
		</g>
		<g
   id="g413">
			<polygon
   class="st3"
   points="193.4,306.4 193.4,324.2 224.9,329.4 224.9,301.2    "
   id="polygon409" />
			<polygon
   class="st3"
   points="362,324.2 362,306.4 330.5,301.2 330.5,329.4    "
   id="polygon411" />
		</g>
		<g
   id="g419">
			<polygon
   class="st3"
   points="211.7,368.6 224.4,381.2 250.3,362.6 230.4,342.6    "
   id="polygon415" />
			<polygon
   class="st3"
   points="343.6,262 331,249.4 305,268 325,287.9    "
   id="polygon417" />
		</g>
	</g>
	<path
   class="st3"
   d="M714,378.7v-10.8l-11.5-1.9c-1-5.7-3.3-11-6.5-15.7l6.8-9.5l-7.7-7.7l-9.5,6.8c-4.6-3.2-9.9-5.4-15.7-6.5   l-1.9-11.5h-10.8l-1.9,11.5c-5.7,1-11,3.3-15.7,6.5l-9.5-6.8l-7.7,7.7l6.8,9.5c-3.2,4.6-5.4,9.9-6.5,15.7l-11.5,1.9v10.8l11.5,1.9   c1,5.7,3.3,11,6.5,15.7l-6.8,9.5l7.7,7.7l9.5-6.8c4.6,3.2,9.9,5.4,15.7,6.5l1.9,11.5h10.8L670,413c5.7-1,11-3.3,15.7-6.5l9.5,6.8   l7.7-7.7l-6.8-9.5c3.2-4.6,5.4-9.9,6.5-15.7L714,378.7z M662.7,395.7c-12.4,0-22.4-10-22.4-22.4c0-12.4,10-22.4,22.4-22.4   s22.4,10,22.4,22.4C685.1,385.6,675.1,395.7,662.7,395.7z"
   id="path423" />
	<path
   class="st4"
   d="M96,677.6v-12.7l-13.5-2.2c-1.2-6.7-3.9-13-7.6-18.4l8-11.1l-9-9l-11.1,8c-5.4-3.7-11.6-6.4-18.4-7.6L42.1,611   H29.3l-2.2,13.5c-6.7,1.2-13,3.9-18.4,7.6L0,625.9v90.8l8.7-6.3c5.4,3.7,11.7,6.4,18.4,7.6l2.2,13.5h12.7l2.2-13.5   c6.7-1.2,13-3.9,18.4-7.6l11.1,8l9-9l-8-11.1c3.7-5.4,6.4-11.7,7.6-18.4L96,677.6z M35.7,697.6c-14.5,0-26.3-11.8-26.3-26.3   c0-14.5,11.8-26.3,26.3-26.3c14.5,0,26.3,11.8,26.3,26.3C62,685.8,50.2,697.6,35.7,697.6z"
   id="path425" />
	<path
   class="st3"
   d="M69,491.3v-16.1l-17.1-2.8c-1.6-8.5-4.9-16.4-9.6-23.3L52.3,435l-11.4-11.4l-14.1,10.1   c-6.9-4.7-14.8-8.1-23.3-9.6L0.8,407H0v43.8c14.9,3.3,26,16.6,26,32.5s-11.1,29.2-26,32.5v43.8h0.8l2.8-17.1   c8.5-1.5,16.4-4.9,23.3-9.6l14.1,10.1l11.4-11.4l-10.1-14.1c4.7-6.9,8.1-14.8,9.6-23.3L69,491.3z"
   id="path427" />
	<g
   id="g437">
		<path
   class="st3"
   d="M353,547.5v-20.6l-33.1-6.9c-1.2-7.9-3.3-15.5-6.1-22.7l25.2-22.5l-10.3-17.9l-32.1,10.6    c-4.9-6.1-10.5-11.7-16.6-16.6l10.6-32.1l-17.9-10.3l-22.5,25.2c-7.2-2.8-14.8-4.9-22.7-6.1l-6.9-33.1H200l-6.9,33.1    c-7.9,1.2-15.5,3.3-22.7,6.1L148,408.4l-17.9,10.3l10.6,32.1c-6.1,4.9-11.7,10.5-16.6,16.6L92,456.9l-10.3,17.9l25.2,22.5    c-2.8,7.2-4.9,14.8-6.1,22.7l-33.1,6.9v20.6l33.1,6.9c1.2,7.9,3.3,15.5,6.1,22.7l-25.2,22.5L92,617.4l32.1-10.6    c4.9,6.1,10.5,11.7,16.6,16.6l-10.6,32.1l17.9,10.3l22.5-25.2c7.2,2.8,14.8,4.9,22.7,6.1l6.9,33.1h20.6l6.9-33.1    c7.9-1.2,15.5-3.3,22.7-6.1l22.5,25.2l17.9-10.3L280,623.4c6.1-4.9,11.7-10.5,16.6-16.6l32.1,10.6l10.3-17.9L313.8,577    c2.8-7.2,4.9-14.8,6.1-22.7L353,547.5z M296.6,537.1c0,47.6-38.6,86.3-86.3,86.3s-86.3-38.6-86.3-86.3c0-47.6,38.6-86.3,86.3-86.3    S296.6,489.5,296.6,537.1z"
   id="path429" />
		<path
   class="st3"
   d="M210.4,460.6c-42.3,0-76.5,34.3-76.5,76.5c0,42.3,34.3,76.5,76.5,76.5s76.5-34.3,76.5-76.5    C286.9,494.9,252.6,460.6,210.4,460.6z M210.4,602.9c-36.3,0-65.8-29.5-65.8-65.8s29.5-65.8,65.8-65.8s65.8,29.5,65.8,65.8    S246.7,602.9,210.4,602.9z"
   id="path431" />
		<path
   class="st3"
   d="M210.4,479.2c-32,0-57.9,25.9-57.9,57.9s25.9,57.9,57.9,57.9s57.9-25.9,57.9-57.9S242.3,479.2,210.4,479.2z     M210.4,591.7c-30.2,0-54.6-24.5-54.6-54.6c0-30.2,24.5-54.6,54.6-54.6S265,507,265,537.1C265,567.3,240.5,591.7,210.4,591.7z"
   id="path433" />
		<circle
   class="st3"
   cx="210.4"
   cy="537.1"
   r="32.4"
   id="circle435" />
	</g>
	<g
   id="g479">
		<path
   class="st5"
   d="M617,646.6c-25.1,0-45.4,20.3-45.4,45.4s20.3,45.4,45.4,45.4s45.4-20.3,45.4-45.4S642.1,646.6,617,646.6z     M617,723.8c-17.5,0-31.8-14.2-31.8-31.8s14.2-31.8,31.8-31.8s31.8,14.2,31.8,31.8S634.5,723.8,617,723.8z"
   id="path439" />
		<path
   class="st5"
   d="M617,668.1c-13.2,0-23.9,10.7-23.9,23.9s10.7,23.9,23.9,23.9s23.9-10.7,23.9-23.9S630.2,668.1,617,668.1z     M617,708.7c-9.2,0-16.7-7.5-16.7-16.7c0-9.2,7.5-16.7,16.7-16.7s16.7,7.5,16.7,16.7C633.7,701.2,626.2,708.7,617,708.7z"
   id="path441" />
		<g
   id="g447">
			<polygon
   class="st5"
   points="622.9,633 611.1,633 608.4,652.1 625.6,652.1    "
   id="polygon443" />
			<polygon
   class="st5"
   points="611.1,751 622.9,751 625.6,731.9 608.4,731.9    "
   id="polygon445" />
		</g>
		<g
   id="g453">
			<polygon
   class="st5"
   points="592.6,637.9 582.4,643.9 589.6,661.8 604.5,653.2    "
   id="polygon449" />
			<polygon
   class="st5"
   points="641.4,746.1 651.6,740.1 644.4,722.2 629.5,730.8    "
   id="polygon451" />
		</g>
		<g
   id="g459">
			<polygon
   class="st5"
   points="568.9,657.4 562.9,667.6 578.2,679.5 586.8,664.6    "
   id="polygon455" />
			<polygon
   class="st5"
   points="665.1,726.6 671.1,716.4 655.8,704.5 647.2,719.4    "
   id="polygon457" />
		</g>
		<g
   id="g465">
			<polygon
   class="st5"
   points="558,686.1 558,697.9 577.1,700.6 577.1,683.4    "
   id="polygon461" />
			<polygon
   class="st5"
   points="676,697.9 676,686.1 656.9,683.4 656.9,700.6    "
   id="polygon463" />
		</g>
		<g
   id="g471">
			<polygon
   class="st5"
   points="562.9,716.4 568.9,726.6 586.8,719.4 578.2,704.5    "
   id="polygon467" />
			<polygon
   class="st5"
   points="671.1,667.6 665.1,657.4 647.2,664.6 655.8,679.5    "
   id="polygon469" />
		</g>
		<g
   id="g477">
			<polygon
   class="st5"
   points="582.4,740.1 592.6,746.1 604.5,730.8 589.6,722.2    "
   id="polygon473" />
			<polygon
   class="st5"
   points="651.6,643.9 641.4,637.9 629.5,653.2 644.4,661.8    "
   id="polygon475" />
		</g>
	</g>
	<g
   id="g519">
		<path
   class="st5"
   d="M100,286.5c-30.6,0-55.5,24.8-55.5,55.5s24.8,55.5,55.5,55.5s55.5-24.8,55.5-55.5S130.6,286.5,100,286.5z     M100,373.3c-17.3,0-31.3-14-31.3-31.3c0-17.3,14-31.3,31.3-31.3s31.3,14,31.3,31.3C131.3,359.3,117.3,373.3,100,373.3z"
   id="path481" />
		<g
   id="g487">
			<polygon
   class="st5"
   points="107.2,270 92.8,270 89.5,293.3 110.5,293.3    "
   id="polygon483" />
			<polygon
   class="st5"
   points="92.8,414 107.2,414 110.5,390.7 89.5,390.7    "
   id="polygon485" />
		</g>
		<g
   id="g493">
			<polygon
   class="st5"
   points="70.3,276 57.7,283.3 66.6,305.1 84.7,294.6    "
   id="polygon489" />
			<polygon
   class="st5"
   points="129.7,408 142.3,400.7 133.4,378.9 115.3,389.4    "
   id="polygon491" />
		</g>
		<g
   id="g499">
			<polygon
   class="st5"
   points="41.3,299.7 34,312.3 52.6,326.7 63.1,308.6    "
   id="polygon495" />
			<polygon
   class="st5"
   points="158.7,384.3 166,371.7 147.4,357.3 136.9,375.4    "
   id="polygon497" />
		</g>
		<g
   id="g505">
			<polygon
   class="st5"
   points="28,334.8 28,349.2 51.3,352.5 51.3,331.5    "
   id="polygon501" />
			<polygon
   class="st5"
   points="172,349.2 172,334.8 148.7,331.5 148.7,352.5    "
   id="polygon503" />
		</g>
		<g
   id="g511">
			<polygon
   class="st5"
   points="34,371.7 41.3,384.3 63.1,375.4 52.6,357.3    "
   id="polygon507" />
			<polygon
   class="st5"
   points="166,312.3 158.7,299.7 136.9,308.6 147.4,326.7    "
   id="polygon509" />
		</g>
		<g
   id="g517">
			<polygon
   class="st5"
   points="57.7,400.7 70.3,408 84.7,389.4 66.6,378.9    "
   id="polygon513" />
			<polygon
   class="st5"
   points="142.3,283.3 129.7,276 115.3,294.6 133.4,305.1    "
   id="polygon515" />
		</g>
	</g>
	<path
   class="st3"
   d="M0,172h540.5l56,76h36.9c0.8-3.4,1.8-6.8,3-10h-34.8l-56-76H0V172z"
   id="path521" />
	<path
   class="st3"
   d="M1047,238v10h-73.1c-0.7-3.4-1.6-6.8-2.8-10H1047z"
   id="path523" />
	<circle
   class="st4"
   cx="151"
   cy="169"
   r="26"
   id="circle525" />
	<circle
   class="st3"
   cx="274"
   cy="169"
   r="18"
   id="circle527" />
	<circle
   class="st3"
   cx="759"
   cy="244"
   r="18"
   id="circle529" />
	<circle
   class="st3"
   cx="770"
   cy="375"
   r="17"
   id="circle531" />
	<rect
   x="949"
   y="197.1"
   class="st3"
   width="141"
   height="10"
   id="rect533" />
	<rect
   x="994.3"
   y="741"
   class="st4"
   width="93.7"
   height="10"
   id="rect535" />
	<polygon
   class="st3"
   points="608.1,803 -1,803 -1,793 603.9,793 632.9,764 701,764 701,774 637.1,774  "
   id="polygon537" />
	<path
   class="st3"
   d="M822.5,378H691v-10h128.1l33.2-25.4l1.7,0c51.2,0.1,128.9,0.3,132.7,0l0.8,10c-4,0.4-106.9,0.1-131.9,0   L822.5,378z"
   id="path539" />
	<polygon
   class="st3"
   points="617.7,843 648.4,812.7 648.4,792.4 597,843 648.4,893.6 648.4,873.3  "
   id="polygon541" />
	<polygon
   class="st4"
   points="362.1,165 404.1,123.8 404.1,96 333.9,165 404.1,234 404.1,206.2  "
   id="polygon543" />
	<polygon
   class="st4"
   points="414,165 438,141.4 438,125.5 397.8,165 438,204.5 438,188.6  "
   id="polygon545" />
	<polygon
   class="st3"
   points="732,439 756,415.4 756,399.5 715.8,439 756,478.5 756,462.6  "
   id="polygon547" />
	<polygon
   class="st3"
   points="608,151 632,127.4 632,111.5 591.8,151 632,190.5 632,174.6  "
   id="polygon549" />
	<polygon
   class="st3"
   points="729,886 753,862.4 753,846.5 712.8,886 753,925.5 753,909.6  "
   id="polygon551" />
	<polygon
   class="st3"
   points="36,160 60,136.4 60,120.5 19.8,160 60,199.5 60,183.6  "
   id="polygon553" />
	<polygon
   class="st3"
   points="652.2,845.5 675,823 675,807.9 636.8,845.5 675,883.1 675,867.9  "
   id="polygon555" />
	<circle
   class="st3"
   cx="906"
   cy="126"
   r="7"
   id="circle557" />
	<circle
   class="st5"
   cx="955"
   cy="117"
   r="10"
   id="circle559" />
	<circle
   class="st4"
   cx="945.5"
   cy="166.5"
   r="7.5"
   id="circle561" />
	<circle
   class="st3"
   cx="1013"
   cy="185"
   r="5"
   id="circle563" />
	<circle
   class="st3"
   cx="878.5"
   cy="411.5"
   r="9.5"
   id="circle565" />
	<circle
   class="st3"
   cx="908.5"
   cy="879.5"
   r="5.5"
   id="circle567" />
	<circle
   class="st3"
   cx="843.5"
   cy="874.5"
   r="4.5"
   id="circle569" />
	<circle
   class="st3"
   cx="765"
   cy="890"
   r="7"
   id="circle571" />
	<circle
   class="st3"
   cx="1042.5"
   cy="791.5"
   r="7.5"
   id="circle573" />
	<circle
   class="st3"
   cx="975"
   cy="681"
   r="9"
   id="circle575" />
	<circle
   class="st3"
   cx="741"
   cy="667"
   r="6"
   id="circle577" />
	<circle
   class="st4"
   cx="734.5"
   cy="599.5"
   r="8.5"
   id="circle579" />
	<circle
   class="st3"
   cx="199.5"
   cy="224.5"
   r="8.5"
   id="circle581" />
	<circle
   class="st3"
   cx="62.5"
   cy="227.5"
   r="13.5"
   id="circle583" />
	<circle
   class="st4"
   cx="684.5"
   cy="137.5"
   r="10.5"
   id="circle585" />
	<circle
   class="st3"
   cx="801"
   cy="342"
   r="6"
   id="circle587" />
	<circle
   class="st3"
   cx="560.5"
   cy="249.5"
   r="8.5"
   id="circle589" />
	<circle
   class="st3"
   cx="514.5"
   cy="210.5"
   r="5.5"
   id="circle591" />
	<circle
   class="st3"
   cx="280.5"
   cy="738.5"
   r="5.5"
   id="circle593" />
	<circle
   class="st3"
   cx="172.5"
   cy="718.5"
   r="14.5"
   id="circle595" />
	<circle
   class="st3"
   cx="764"
   cy="642"
   r="6"
   id="circle597" />
	<circle
   class="st4"
   cx="1289"
   cy="881"
   r="11"
   id="circle599" />
	<circle
   class="st5"
   cx="1252"
   cy="853"
   r="7"
   id="circle601" />
	<circle
   class="st4"
   cx="955.5"
   cy="864.5"
   r="11.5"
   id="circle603" />
	<circle
   class="st3"
   cx="833.5"
   cy="84.5"
   r="9.5"
   id="circle605" />
	<circle
   class="st5"
   cx="1307.5"
   cy="103.5"
   r="9.5"
   id="circle607" />
	<path
   class="st3"
   d="M1263.9,637.2c34.4,0,64.8-22.7,74-55.8c2.6-9.3,4-19.1,4-29.2c0-59.6-48.2-108-107.7-108.4   c-12.2-32-43.2-54.7-79.4-54.7c-11.3,0-22,2.2-31.8,6.2c-18.9-35.8-56.4-60.2-99.7-60.2c-56.7,0-103.6,41.9-111.5,96.4   c-4.8-0.5-9.7-0.8-14.7-0.8c-71.5,0-129.5,58-129.5,129.5c0,0.3,0,0.6,0,0.9c0.3,42.3,34.8,76.3,77,76.3H1263.9z"
   id="path609" />
	<circle
   class="st5"
   cx="474"
   cy="796"
   r="26"
   id="circle611" />
	<circle
   class="st5"
   cx="148"
   cy="796"
   r="23"
   id="circle613" />
	<circle
   class="st5"
   cx="392.5"
   cy="510.5"
   r="14.5"
   id="circle615" />
	<circle
   class="st3"
   cx="303"
   cy="799"
   r="17"
   id="circle617" />
	<path
   class="st3"
   d="M962.2,830H737.3c-25.4,0-46.1-20.6-46.3-45.9l0-0.5c0-41,33.4-74.4,74.4-74.4c1.2,0,2.5,0,3.8,0.1   c6.5-29.6,33.2-51.3,63.9-51.3c22.9,0,43.9,11.8,55.8,31.2c4.8-1.5,9.7-2.2,14.8-2.2c19.7,0,37.8,11.7,46,29.4   c33,2,59.4,29.6,59.4,63c0,5.8-0.8,11.5-2.3,17C1001.2,816.2,982.8,830,962.2,830z M765.4,719.2c-35.5,0-64.4,28.9-64.4,64.4l0,0.4   c0.1,19.8,16.4,36,36.3,36h224.8c16.2,0,30.6-10.8,34.9-26.2c1.3-4.6,2-9.5,2-14.3c0-29.1-23.7-53-52.8-53.1l-3.4,0l-1.2-3.2   c-6-15.6-21.2-26.1-37.9-26.1c-5.3,0-10.4,1-15.2,2.9l-4.2,1.7l-2.1-4c-9.6-18.3-28.4-29.6-49.1-29.6c-27.3,0-50.9,20.4-54.8,47.4   l-0.7,4.8l-4.8-0.5C770.3,719.3,767.8,719.2,765.4,719.2z"
   id="path619" />
	<path
   class="st3"
   d="M636.4,238c-1.2,3.2-2.2,6.6-3,10h-36.9l-56-76H0v-10h545.5l56,76H636.4z"
   id="path621" />
</g>
</svg>
