<?xml version="1.0" encoding="UTF-8" standalone="no"?>
<svg
   xmlns:dc="http://purl.org/dc/elements/1.1/"
   xmlns:cc="http://creativecommons.org/ns#"
   xmlns:rdf="http://www.w3.org/1999/02/22-rdf-syntax-ns#"
   xmlns:svg="http://www.w3.org/2000/svg"
   xmlns="http://www.w3.org/2000/svg"
   xmlns:xlink="http://www.w3.org/1999/xlink"
   xmlns:sodipodi="http://sodipodi.sourceforge.net/DTD/sodipodi-0.dtd"
   xmlns:inkscape="http://www.inkscape.org/namespaces/inkscape"
   version="1.1"
   id="Layer_1"
   x="0px"
   y="0px"
   width="335.986px"
   height="235.19px"
   viewBox="0 0 335.986 235.19"
   enable-background="new 0 0 335.986 235.19"
   xml:space="preserve"
   sodipodi:docname="m_30.svg"
   inkscape:version="1.0.1 (3bc2e81, 2020-09-07)"><metadata
   id="metadata2526"><rdf:RDF><cc:Work
       rdf:about=""><dc:format>image/svg+xml</dc:format><dc:type
         rdf:resource="http://purl.org/dc/dcmitype/StillImage" /><dc:title></dc:title></cc:Work></rdf:RDF></metadata><defs
   id="defs2524" /><sodipodi:namedview
   pagecolor="#ffffff"
   bordercolor="#666666"
   borderopacity="1"
   objecttolerance="10"
   gridtolerance="10"
   guidetolerance="10"
   inkscape:pageopacity="0"
   inkscape:pageshadow="2"
   inkscape:window-width="1366"
   inkscape:window-height="720"
   id="namedview2522"
   showgrid="false"
   inkscape:zoom="2.2279859"
   inkscape:cx="167.993"
   inkscape:cy="117.595"
   inkscape:window-x="0"
   inkscape:window-y="24"
   inkscape:window-maximized="1"
   inkscape:current-layer="Layer_1" />
<g
   id="g1617">
	<g
   id="g1615">
		<g
   id="g1613">
			<rect
   fill="#98C3CC"
   width="335.986"
   height="235.19"
   id="rect1611" />
		</g>
	</g>
</g>
<g
   opacity="0.5"
   id="g1643">
	<g
   id="g1621">
		<polygon
   fill="#C4DCE0"
   points="-0.03,235.191 93.148,0 73.764,0 -0.03,186.264   "
   id="polygon1619" />
	</g>
	<g
   id="g1625">
		<polygon
   fill="#C4DCE0"
   points="191.789,235.363 285.035,0 265.652,0 172.406,235.363   "
   id="polygon1623" />
	</g>
	<g
   id="g1629">
		<polygon
   fill="#C4DCE0"
   points="-0.03,141.951 56.208,0 44.822,0 -0.03,113.21   "
   id="polygon1627" />
	</g>
	<g
   id="g1633">
		<polygon
   fill="#C4DCE0"
   points="75.697,235.363 168.943,0 157.557,0 64.31,235.363   "
   id="polygon1631" />
	</g>
	<g
   id="g1637">
		<polygon
   fill="#C4DCE0"
   points="295.492,235.363 335.303,134.874 335.303,106.131 284.104,235.363   "
   id="polygon1635" />
	</g>
	<g
   id="g1641">
		<polygon
   fill="#C4DCE0"
   points="217.52,235.363 310.766,0 299.377,0 206.131,235.363   "
   id="polygon1639" />
	</g>
</g>



<g
   id="g2163">
	<path
   fill="#132D44"
   d="M242.674,171.469c0,3.388-2.77,6.158-6.158,6.158H97.562c-3.387,0-6.158-2.771-6.158-6.158V68.043   c0-3.387,2.771-6.158,6.158-6.158h138.954c3.389,0,6.158,2.771,6.158,6.158V171.469z"
   id="path2161" />
</g>
<g
   id="g2167">
	<rect
   x="96.293"
   y="70.976"
   fill="#FFFFFF"
   width="141.492"
   height="96.585"
   id="rect2165" />
</g>
<g
   id="g2171">
	<circle
   fill="#FFFFFF"
   cx="167.039"
   cy="66.982"
   r="1.436"
   id="circle2169" />
</g>
<g
   id="g2175">
	<path
   fill="#FFFFFF"
   d="M170.182,172.396c0,1.732-1.406,3.142-3.143,3.142c-1.734,0-3.145-1.409-3.145-3.142   c0-1.738,1.41-3.148,3.145-3.148C168.775,169.247,170.182,170.657,170.182,172.396z"
   id="path2173" />
</g>
<g
   opacity="0.2"
   id="g2181">
	<g
   id="g2179">
		<path
   fill="#FFFFFF"
   d="M97.562,61.885c-3.387,0-6.158,2.771-6.158,6.158v103.426c0,3.388,2.771,6.158,6.158,6.158h49.675    l50.97-115.742H97.562z"
   id="path2177" />
	</g>
</g>
<g
   id="g2191">
	<g
   id="g2185">
		<rect
   x="71.974"
   y="215.893"
   fill="#0E4F79"
   width="11.303"
   height="19.107"
   id="rect2183" />
	</g>
	<g
   id="g2189">
		<rect
   x="83.277"
   y="215.893"
   fill="#132D44"
   width="25.908"
   height="19.107"
   id="rect2187" />
	</g>
</g>
<g
   id="g2195">
	<path
   fill="#FAFAFA"
   d="M19.972,38.116v40.947c0,1.501,1.228,2.728,2.73,2.728h54.055c1.505,0,2.73-1.227,2.73-2.728V38.116H19.972   z"
   id="path2193" />
</g>
<g
   id="g2199">
	<path
   fill="#263238"
   d="M76.757,27.193H22.703c-1.503,0-2.73,1.23-2.73,2.732v8.19h59.516v-8.19   C79.488,28.424,78.262,27.193,76.757,27.193"
   id="path2197" />
</g>
<g
   id="g2203">
	<path
   fill="#F44336"
   d="M60.378,32.656c0,1.505-1.222,2.729-2.727,2.729c-1.509,0-2.73-1.225-2.73-2.729   c0-1.511,1.222-2.73,2.73-2.73C59.157,29.926,60.378,31.146,60.378,32.656"
   id="path2201" />
</g>
<g
   id="g2207">
	<path
   fill="#FFEB3B"
   d="M68.57,32.656c0,1.505-1.222,2.729-2.73,2.729c-1.506,0-2.73-1.225-2.73-2.729   c0-1.511,1.225-2.73,2.73-2.73C67.348,29.926,68.57,31.146,68.57,32.656"
   id="path2205" />
</g>
<g
   id="g2211">
	<path
   fill="#4CAF50"
   d="M76.757,32.656c0,1.505-1.222,2.729-2.729,2.729c-1.506,0-2.728-1.225-2.728-2.729   c0-1.511,1.222-2.73,2.728-2.73C75.536,29.926,76.757,31.146,76.757,32.656"
   id="path2209" />
</g>
<g
   id="g2215">
	<path
   fill="#FAFAFA"
   d="M256.744,158.371v36.947c0,1.501,1.227,2.728,2.73,2.728h54.055c1.504,0,2.73-1.227,2.73-2.728v-36.947   H256.744z"
   id="path2213" />
</g>
<g
   id="g2219">
	<path
   fill="#263238"
   d="M313.529,147.448h-54.055c-1.504,0-2.73,1.23-2.73,2.732v8.19h59.516v-8.19   C316.26,148.679,315.033,147.448,313.529,147.448"
   id="path2217" />
</g>
<g
   id="g2223">
	<path
   fill="#F44336"
   d="M297.15,152.911c0,1.505-1.223,2.729-2.727,2.729c-1.51,0-2.73-1.225-2.73-2.729   c0-1.511,1.221-2.73,2.73-2.73C295.928,150.181,297.15,151.4,297.15,152.911"
   id="path2221" />
</g>
<g
   id="g2227">
	<path
   fill="#FFEB3B"
   d="M305.342,152.911c0,1.505-1.223,2.729-2.73,2.729c-1.506,0-2.73-1.225-2.73-2.729   c0-1.511,1.225-2.73,2.73-2.73C304.119,150.181,305.342,151.4,305.342,152.911"
   id="path2225" />
</g>
<g
   id="g2231">
	<path
   fill="#4CAF50"
   d="M313.529,152.911c0,1.505-1.223,2.729-2.73,2.729c-1.506,0-2.727-1.225-2.727-2.729   c0-1.511,1.221-2.73,2.727-2.73C312.307,150.181,313.529,151.4,313.529,152.911"
   id="path2229" />
</g>
<g
   id="g2235">
	<path
   fill="#FAFAFA"
   d="M19.972,108.209v87.514c0,1.501,1.228,2.728,2.73,2.728h54.055c1.505,0,2.73-1.227,2.73-2.728v-87.514   H19.972z"
   id="path2233" />
</g>
<g
   id="g2239">
	<path
   fill="#263238"
   d="M76.757,97.286H22.703c-1.503,0-2.73,1.23-2.73,2.732v8.19h59.516v-8.19   C79.488,98.517,78.262,97.286,76.757,97.286"
   id="path2237" />
</g>
<g
   id="g2243">
	<path
   fill="#F44336"
   d="M60.378,102.749c0,1.505-1.222,2.729-2.727,2.729c-1.509,0-2.73-1.225-2.73-2.729   c0-1.511,1.222-2.73,2.73-2.73C59.157,100.019,60.378,101.238,60.378,102.749"
   id="path2241" />
</g>
<g
   id="g2247">
	<path
   fill="#FFEB3B"
   d="M68.57,102.749c0,1.505-1.222,2.729-2.73,2.729c-1.506,0-2.73-1.225-2.73-2.729   c0-1.511,1.225-2.73,2.73-2.73C67.348,100.019,68.57,101.238,68.57,102.749"
   id="path2245" />
</g>
<g
   id="g2251">
	<path
   fill="#4CAF50"
   d="M76.757,102.749c0,1.505-1.222,2.729-2.729,2.729c-1.506,0-2.728-1.225-2.728-2.729   c0-1.511,1.222-2.73,2.728-2.73C75.536,100.019,76.757,101.238,76.757,102.749"
   id="path2249" />
</g>
<g
   id="g2261">
	<g
   id="g2255">
		<rect
   x="250.777"
   y="215.893"
   fill="#0E4F79"
   width="11.303"
   height="19.107"
   id="rect2253" />
	</g>
	<g
   id="g2259">
		<rect
   x="224.869"
   y="215.893"
   fill="#132D44"
   width="25.908"
   height="19.107"
   id="rect2257" />
	</g>
</g>
<g
   id="g2267">
	<g
   id="g2265">
		<path
   fill="#F3CAA1"
   d="M220.061,175.289c0.098,2.338,0.684,13.656,0.684,15.803c0,2.145,0.975,8.779,8.191,16.68v4.193    l29.133-0.031v-46.519c0,0,0.156-2.833-1.779-4.125v-3.754c0,0-0.527-2.632-2.674-3.804v-3.998c0,0,0.605-3.611-10.965-8.292    v30.026c0,0,0.129,5.572-6.158,6.158h-4.043v-19.115c0,0,1.553-11.262-6.197-11.262S220.061,158,220.061,158V175.289z"
   id="path2263" />
	</g>
</g>
<g
   id="g2271">
	<rect
   x="227.002"
   y="209.875"
   fill="#FFFFFF"
   width="33"
   height="6.018"
   id="rect2269" />
</g>
<g
   opacity="0.7"
   id="g2275">
	<path
   fill="#FFFFFF"
   d="M226.246,156.251h-4.66c0,0-0.074-7.334,4.66-7.334s4.924,7.334,4.924,7.334H226.246z"
   id="path2273" />
</g>
<g
   id="g2285">
	<g
   id="g2279">
		<path
   fill="#E44C41"
   d="M146.821,107.822c0,5.848-4.743,10.588-10.589,10.588c-5.851,0-10.588-4.74-10.588-10.588    c0-5.85,4.737-10.589,10.588-10.589C142.078,97.233,146.821,101.973,146.821,107.822z"
   id="path2277" />
	</g>
	<g
   id="g2283">
		<path
   fill="#043B51"
   d="M163.367,111.978v-7.579h-6.508c-0.5-3.026-1.63-5.842-3.282-8.287l4.459-4.456l-5.36-5.358l-4.42,4.42    c-2.456-1.732-5.291-2.942-8.363-3.486v-6.18h-7.579v6.217c-3.047,0.58-5.856,1.828-8.283,3.577l-4.46-4.462l-5.359,5.358    l4.558,4.559c-1.611,2.436-2.709,5.229-3.186,8.226h-6.613v7.579h6.769c0.604,2.88,1.809,5.531,3.46,7.845l-4.899,4.9l5.36,5.357    l4.974-4.971c2.318,1.549,4.965,2.637,7.808,3.157v7.057h7.579v-7.057c2.855-0.526,5.516-1.618,7.842-3.177l4.901,4.902    l5.359-5.362l-4.835-4.839c1.661-2.338,2.871-5.027,3.46-7.94H163.367z M122.196,107.822c0-7.739,6.296-14.037,14.036-14.037    c7.741,0,14.039,6.298,14.039,14.037c0,7.74-6.298,14.037-14.039,14.037C128.492,121.859,122.196,115.562,122.196,107.822z"
   id="path2281" />
	</g>
</g>
<g
   id="g2289">
	<polygon
   fill="#FFB117"
   points="118.802,147.476 118.802,157.69 215.135,157.69 215.135,147.476 210.18,138.833 203.748,149.343    201.803,143.155 198.545,149.343 196.303,145.021 193.969,149.343 189.635,139.814 186.303,143.448 182.303,145.021    179.803,149.343 176.803,144.137 173.121,149.343 171.303,146.789 166.969,149.343 163.367,145.904 159.303,141.779    155.969,146.789 152.469,149.343 146.821,145.904 141.635,150.227 137.302,145.021 133.802,150.619 126.969,147.869    123.469,150.816  "
   id="polygon2287" />
</g>
<g
   id="g2355">
	<g
   id="g2293">
		<polygon
   fill="#0695A2"
   points="167.699,92.247 165.629,90.074 172.521,83.511 196.875,83.511 196.875,86.511 173.721,86.511       "
   id="polygon2291" />
	</g>
	<g
   id="g2297">
		<rect
   x="200.217"
   y="83.511"
   fill="#FEA621"
   width="9.963"
   height="3"
   id="rect2295" />
	</g>
	<g
   id="g2301">
		<rect
   x="213.842"
   y="83.511"
   fill="#C2000B"
   width="12.213"
   height="3"
   id="rect2299" />
	</g>
	<g
   id="g2305">
		<polygon
   fill="#0695A2"
   points="196.875,132.234 172.521,132.234 165.629,125.671 167.699,123.499 173.721,129.234     196.875,129.234   "
   id="polygon2303" />
	</g>
	<g
   id="g2309">
		<rect
   x="200.217"
   y="129.234"
   fill="#FEA621"
   width="9.963"
   height="3"
   id="rect2307" />
	</g>
	<g
   id="g2313">
		<rect
   x="213.842"
   y="129.234"
   fill="#C2000B"
   width="12.213"
   height="3"
   id="rect2311" />
	</g>
	<g
   id="g2317">
		<rect
   x="173.121"
   y="92.658"
   fill="#0695A2"
   width="23.754"
   height="3"
   id="rect2315" />
	</g>
	<g
   id="g2321">
		<rect
   x="200.217"
   y="92.658"
   fill="#FEA621"
   width="9.963"
   height="3"
   id="rect2319" />
	</g>
	<g
   id="g2325">
		<rect
   x="173.121"
   y="98.833"
   fill="#FEA621"
   width="9.963"
   height="3"
   id="rect2323" />
	</g>
	<g
   id="g2329">
		<rect
   x="186.91"
   y="98.833"
   fill="#FEA621"
   width="23.27"
   height="3"
   id="rect2327" />
	</g>
	<g
   id="g2333">
		<rect
   x="173.121"
   y="116.096"
   fill="#FEA621"
   width="9.963"
   height="3"
   id="rect2331" />
	</g>
	<g
   id="g2337">
		<rect
   x="186.91"
   y="116.096"
   fill="#FEA621"
   width="23.27"
   height="3"
   id="rect2335" />
	</g>
	<g
   id="g2341">
		<rect
   x="213.842"
   y="92.658"
   fill="#C2000B"
   width="12.213"
   height="3"
   id="rect2339" />
	</g>
	<g
   id="g2345">
		<rect
   x="173.121"
   y="108.982"
   fill="#0695A2"
   width="23.754"
   height="3"
   id="rect2343" />
	</g>
	<g
   id="g2349">
		<rect
   x="200.217"
   y="108.982"
   fill="#FEA621"
   width="9.963"
   height="3"
   id="rect2347" />
	</g>
	<g
   id="g2353">
		<rect
   x="213.842"
   y="108.982"
   fill="#C2000B"
   width="12.213"
   height="3"
   id="rect2351" />
	</g>
</g>
<g
   id="g2359">
	<polygon
   fill="#043B51"
   points="118.802,153.565 118.802,160.834 215.135,160.834 215.135,153.565 210.18,144.923 203.748,155.433    201.803,149.245 198.545,155.433 196.303,151.11 193.969,155.433 189.635,145.904 186.303,149.538 182.303,151.11 179.803,155.433    176.803,150.227 173.121,155.433 171.303,152.879 166.969,155.433 163.367,151.994 159.303,147.869 155.969,152.879    152.469,155.433 146.821,151.994 141.635,156.316 137.302,151.11 133.802,156.709 126.969,153.959 123.469,156.906  "
   id="polygon2357" />
</g>
<g
   id="g2363">
	<path
   fill="#0E4F79"
   d="M243.104,87.667l49.689,49.69c1.615,1.614,3.736,2.422,5.855,2.422s4.232-0.808,5.855-2.422l-61.4-61.402   C239.865,79.191,239.865,84.434,243.104,87.667"
   id="path2361" />
</g>
<g
   id="g2367">
	<path
   fill="#132D44"
   d="M254.812,75.955l49.691,49.692c1.617,1.617,2.422,3.735,2.422,5.855c0,2.113-0.805,4.234-2.422,5.854   l-61.4-61.402C246.336,72.721,251.582,72.721,254.812,75.955"
   id="path2365" />
</g>
<g
   id="g2371">
	<path
   fill="#C4DCE0"
   d="M248.957,44.545c20.547,0.002,37.268,16.721,37.268,37.266c0,20.549-16.721,37.268-37.268,37.268   c-20.547-0.002-37.266-16.719-37.266-37.267C211.691,61.266,228.41,44.545,248.957,44.545 M248.957,40.403   c-22.869,0-41.408,18.538-41.408,41.408c0,22.872,18.539,41.407,41.408,41.407c22.873,0,41.408-18.537,41.408-41.407   S271.83,40.403,248.957,40.403"
   id="path2369" />
</g>
<g
   id="g2375">
	<path
   fill="#132D44"
   d="M275.311,55.461c-14.529-14.531-38.178-14.531-52.705-0.002c-14.529,14.532-14.529,38.172,0,52.704   c14.527,14.529,38.176,14.529,52.703,0C289.842,93.631,289.842,69.991,275.311,55.461z"
   id="path2373" />
</g>
<g
   id="g2449">
	<defs
   id="defs2378">
		<path
   id="SVGID_1_"
   d="M275.309,55.461c-14.527-14.531-38.178-14.531-52.705-0.002c-14.529,14.532-14.529,38.172,0,52.704    c14.527,14.529,38.178,14.529,52.705,0C289.84,93.631,289.84,69.991,275.309,55.461z" />
	</defs>
	<clipPath
   id="SVGID_2_">
		<use
   xlink:href="#SVGID_1_"
   overflow="visible"
   id="use2380" />
	</clipPath>
	<g
   clip-path="url(#SVGID_2_)"
   id="g2447">
		<g
   id="g2385">
			<polygon
   fill="#0695A2"
   points="157.982,71.476 155.913,69.304 168.357,57.45 213.145,57.45 213.145,60.45 169.557,60.45    "
   id="polygon2383" />
		</g>
		<g
   id="g2389">
			<rect
   x="219.361"
   y="57.45"
   fill="#FEA621"
   width="18.535"
   height="3"
   id="rect2387" />
		</g>
		<g
   id="g2393">
			<rect
   x="244.707"
   y="57.45"
   fill="#C2000B"
   width="22.719"
   height="3"
   id="rect2391" />
		</g>
		<g
   id="g2397">
			<polygon
   fill="#0695A2"
   points="213.145,145.507 168.357,145.507 155.913,133.653 157.982,131.481 169.557,142.507      213.145,142.507    "
   id="polygon2395" />
		</g>
		<g
   id="g2401">
			<rect
   x="219.361"
   y="142.507"
   fill="#FEA621"
   width="18.535"
   height="3"
   id="rect2399" />
		</g>
		<g
   id="g2405">
			<rect
   x="244.707"
   y="142.507"
   fill="#C2000B"
   width="22.719"
   height="3"
   id="rect2403" />
		</g>
		<g
   id="g2409">
			<rect
   x="168.957"
   y="74.467"
   fill="#0695A2"
   width="44.188"
   height="3"
   id="rect2407" />
		</g>
		<g
   id="g2413">
			<rect
   x="219.361"
   y="74.467"
   fill="#FEA621"
   width="18.535"
   height="3"
   id="rect2411" />
		</g>
		<g
   id="g2417">
			<rect
   x="168.957"
   y="85.953"
   fill="#FEA621"
   width="18.535"
   height="3"
   id="rect2415" />
		</g>
		<g
   id="g2421">
			<rect
   x="194.609"
   y="85.953"
   fill="#FEA621"
   width="43.287"
   height="3"
   id="rect2419" />
		</g>
		<g
   id="g2425">
			<rect
   x="168.957"
   y="118.065"
   fill="#FEA621"
   width="18.535"
   height="3"
   id="rect2423" />
		</g>
		<g
   id="g2429">
			<rect
   x="194.609"
   y="118.065"
   fill="#FEA621"
   width="43.287"
   height="3"
   id="rect2427" />
		</g>
		<g
   id="g2433">
			<rect
   x="244.707"
   y="74.467"
   fill="#C2000B"
   width="22.719"
   height="3"
   id="rect2431" />
		</g>
		<g
   id="g2437">
			<rect
   x="168.957"
   y="104.833"
   fill="#0695A2"
   width="44.188"
   height="3"
   id="rect2435" />
		</g>
		<g
   id="g2441">
			<rect
   x="219.361"
   y="104.833"
   fill="#FEA621"
   width="18.535"
   height="3"
   id="rect2439" />
		</g>
		<g
   id="g2445">
			<rect
   x="244.707"
   y="104.833"
   fill="#C2000B"
   width="22.719"
   height="3"
   id="rect2443" />
		</g>
	</g>
</g>
<g
   id="g2455">
	<g
   id="g2453">
		<path
   fill="#F3CAA1"
   d="M113.994,175.289c-0.098,2.338-0.683,13.656-0.683,15.803c0,2.145-0.976,8.779-8.192,16.68v4.193    l-29.133-0.031v-46.519c0,0-0.155-2.833,1.779-4.125v-3.754c0,0,0.528-2.632,2.674-3.804v-3.998c0,0-0.604-3.611,10.965-8.292    v30.026c0,0-0.129,5.572,6.158,6.158h4.044v-19.115c0,0-1.554-11.262,6.196-11.262s6.191,10.75,6.191,10.75V175.289z"
   id="path2451" />
	</g>
</g>
<g
   opacity="0.7"
   id="g2459">
	<path
   fill="#FFFFFF"
   d="M107.712,156.251h-4.659c0,0-0.075-7.334,4.659-7.334s4.924,7.334,4.924,7.334H107.712z"
   id="path2457" />
</g>
<g
   id="g2463">
	<rect
   x="74.052"
   y="209.875"
   fill="#FFFFFF"
   width="33"
   height="6.018"
   id="rect2461" />
</g>
<g
   id="g2467">
	<rect
   x="27.976"
   y="46.867"
   fill="#7BC1DF"
   width="35.132"
   height="5.259"
   id="rect2465" />
</g>
<g
   id="g2471">
	<rect
   x="27.976"
   y="54.695"
   fill="#7BC1DF"
   width="43.507"
   height="5.258"
   id="rect2469" />
</g>
<g
   id="g2475">
	<rect
   x="264.455"
   y="165.748"
   fill="#7BC1DF"
   width="43.506"
   height="5.259"
   id="rect2473" />
</g>
<g
   id="g2479">
	<rect
   x="280.365"
   y="183.498"
   fill="#7BC1DF"
   width="27.707"
   height="5.259"
   id="rect2477" />
</g>
<g
   id="g2483">
	<rect
   x="264.455"
   y="174.576"
   fill="#7BC1DF"
   width="43.506"
   height="5.258"
   id="rect2481" />
</g>
<g
   id="g2487">
	<rect
   x="27.923"
   y="165.748"
   fill="#7BC1DF"
   width="43.507"
   height="5.259"
   id="rect2485" />
</g>
<g
   id="g2491">
	<rect
   x="27.96"
   y="183.498"
   fill="#7BC1DF"
   width="27.707"
   height="5.259"
   id="rect2489" />
</g>
<g
   id="g2495">
	<rect
   x="27.923"
   y="174.576"
   fill="#7BC1DF"
   width="43.507"
   height="5.258"
   id="rect2493" />
</g>
<g
   id="g2499">
	<path
   fill="#3FBFFC"
   d="M60.231,71.846c0,1.491-1.397,2.71-3.102,2.71H42.328c-1.706,0-3.1-1.219-3.1-2.71v-4.629   c0-1.49,1.394-2.71,3.1-2.71h14.802c1.704,0,3.102,1.22,3.102,2.71V71.846z"
   id="path2497" />
</g>
<g
   id="g2515">
	<g
   id="g2503">
		<ellipse
   fill="#50D8C4"
   cx="49.729"
   cy="136.478"
   rx="19.993"
   ry="19.922"
   id="ellipse2501" />
	</g>
	<g
   id="g2513">
		<g
   id="g2507">
			<path
   fill="#333451"
   d="M57.649,131.19c0,4.358-3.548,7.888-7.921,7.888c-4.369,0-7.914-3.529-7.914-7.888     c0-4.36,3.545-7.89,7.914-7.89C54.101,123.301,57.649,126.83,57.649,131.19z"
   id="path2505" />
		</g>
		<g
   id="g2511">
			<path
   fill="#333451"
   d="M49.729,156.399c5.099,0,9.736-1.916,13.266-5.046c-0.048-7.266-5.967-13.137-13.266-13.137     c-7.296,0-13.217,5.871-13.263,13.137C39.998,154.483,44.633,156.399,49.729,156.399z"
   id="path2509" />
		</g>
	</g>
</g>
<g
   opacity="0.1"
   id="g2519">
	<path
   fill="#FFFFFF"
   d="M264.012,47.795c-18.764-8.375-40.85,0.082-49.221,18.846c-8.373,18.767,0.08,40.843,18.846,49.219"
   id="path2517" />
</g>
</svg>
