<?xml version="1.0" encoding="UTF-8" standalone="no"?>
<svg
   xmlns:dc="http://purl.org/dc/elements/1.1/"
   xmlns:cc="http://creativecommons.org/ns#"
   xmlns:rdf="http://www.w3.org/1999/02/22-rdf-syntax-ns#"
   xmlns:svg="http://www.w3.org/2000/svg"
   xmlns="http://www.w3.org/2000/svg"
   xmlns:sodipodi="http://sodipodi.sourceforge.net/DTD/sodipodi-0.dtd"
   xmlns:inkscape="http://www.inkscape.org/namespaces/inkscape"
   width="1239.629mm"
   height="710.51917mm"
   viewBox="0 0 1239.629 710.51917"
   version="1.1"
   id="svg176187"
   inkscape:version="1.0.1 (3bc2e81, 2020-09-07)"
   sodipodi:docname="SlideNIXY08.svg"
   inkscape:export-filename="/media/mint/3E15-0885/aaaawork/NEW website JAN2021/media/SVG/SlideNIXY08B.png"
   inkscape:export-xdpi="96"
   inkscape:export-ydpi="96">
  <defs
     id="defs176181">
    <clipPath
       clipPathUnits="userSpaceOnUse"
       id="clipPath176504">
      <path
         d="m 0,19060 v 9010 h 8990 v -9010 z"
         id="path176502" />
    </clipPath>
    <clipPath
       clipPathUnits="userSpaceOnUse"
       id="clipPath176516">
      <path
         d="m 8960,19060 v 9010 h 9010 v -9010 z"
         id="path176514" />
    </clipPath>
    <clipPath
       clipPathUnits="userSpaceOnUse"
       id="clipPath176528">
      <path
         d="m 17940,19060 v 9010 h 9010 v -9010 z"
         id="path176526" />
    </clipPath>
    <clipPath
       clipPathUnits="userSpaceOnUse"
       id="clipPath176540">
      <path
         d="m 26920,19060 v 9010 h 9010 v -9010 z"
         id="path176538" />
    </clipPath>
    <clipPath
       clipPathUnits="userSpaceOnUse"
       id="clipPath176552">
      <path
         d="m 35900,0 v 28070 h 1450 V 0 Z"
         id="path176550" />
    </clipPath>
    <clipPath
       clipPathUnits="userSpaceOnUse"
       id="clipPath176564">
      <path
         d="m 0,10060 v 9030 h 8990 v -9030 z"
         id="path176562" />
    </clipPath>
    <clipPath
       clipPathUnits="userSpaceOnUse"
       id="clipPath176576">
      <path
         d="m 8960,10060 h 9010 v 9030 H 8960 Z"
         id="path176574" />
    </clipPath>
    <clipPath
       clipPathUnits="userSpaceOnUse"
       id="clipPath176588">
      <path
         d="m 17940,10060 h 9010 v 9030 h -9010 z"
         id="path176586" />
    </clipPath>
    <clipPath
       clipPathUnits="userSpaceOnUse"
       id="clipPath176600">
      <path
         d="m 26920,10060 h 9010 v 9030 h -9010 z"
         id="path176598" />
    </clipPath>
    <clipPath
       clipPathUnits="userSpaceOnUse"
       id="clipPath176612">
      <path
         d="m 0,1060 v 9030 H 8990 V 1060 Z"
         id="path176610" />
    </clipPath>
    <clipPath
       clipPathUnits="userSpaceOnUse"
       id="clipPath176624">
      <path
         d="m 8960,1060 h 9010 v 9030 H 8960 Z"
         id="path176622" />
    </clipPath>
    <clipPath
       clipPathUnits="userSpaceOnUse"
       id="clipPath176636">
      <path
         d="m 17940,1060 h 9010 v 9030 h -9010 z"
         id="path176634" />
    </clipPath>
    <clipPath
       clipPathUnits="userSpaceOnUse"
       id="clipPath176648">
      <path
         d="m 26920,1060 h 9010 v 9030 h -9010 z"
         id="path176646" />
    </clipPath>
    <clipPath
       clipPathUnits="userSpaceOnUse"
       id="clipPath176660">
      <path
         d="M 0,1090 H 32766 V 0 H 0 Z"
         id="path176658" />
    </clipPath>
    <clipPath
       clipPathUnits="userSpaceOnUse"
       id="clipPath176826">
      <path
         d="m 0,19060 v 9010 h 8990 v -9010 z"
         id="path176824" />
    </clipPath>
    <clipPath
       clipPathUnits="userSpaceOnUse"
       id="clipPath176838">
      <path
         d="m 8960,19060 v 9010 h 9010 v -9010 z"
         id="path176836" />
    </clipPath>
    <clipPath
       clipPathUnits="userSpaceOnUse"
       id="clipPath176850">
      <path
         d="m 17940,19060 v 9010 h 9010 v -9010 z"
         id="path176848" />
    </clipPath>
    <clipPath
       clipPathUnits="userSpaceOnUse"
       id="clipPath176862">
      <path
         d="m 26920,19060 v 9010 h 9010 v -9010 z"
         id="path176860" />
    </clipPath>
    <clipPath
       clipPathUnits="userSpaceOnUse"
       id="clipPath176874">
      <path
         d="m 35900,0 v 28070 h 1450 V 0 Z"
         id="path176872" />
    </clipPath>
    <clipPath
       clipPathUnits="userSpaceOnUse"
       id="clipPath176886">
      <path
         d="m 0,10060 v 9030 h 8990 v -9030 z"
         id="path176884" />
    </clipPath>
    <clipPath
       clipPathUnits="userSpaceOnUse"
       id="clipPath176898">
      <path
         d="m 8960,10060 h 9010 v 9030 H 8960 Z"
         id="path176896" />
    </clipPath>
    <clipPath
       clipPathUnits="userSpaceOnUse"
       id="clipPath176910">
      <path
         d="m 17940,10060 h 9010 v 9030 h -9010 z"
         id="path176908" />
    </clipPath>
    <clipPath
       clipPathUnits="userSpaceOnUse"
       id="clipPath176922">
      <path
         d="m 26920,10060 h 9010 v 9030 h -9010 z"
         id="path176920" />
    </clipPath>
    <clipPath
       clipPathUnits="userSpaceOnUse"
       id="clipPath176934">
      <path
         d="m 0,1060 v 9030 H 8990 V 1060 Z"
         id="path176932" />
    </clipPath>
    <clipPath
       clipPathUnits="userSpaceOnUse"
       id="clipPath176946">
      <path
         d="m 8960,1060 h 9010 v 9030 H 8960 Z"
         id="path176944" />
    </clipPath>
    <clipPath
       clipPathUnits="userSpaceOnUse"
       id="clipPath176958">
      <path
         d="m 17940,1060 h 9010 v 9030 h -9010 z"
         id="path176956" />
    </clipPath>
    <clipPath
       clipPathUnits="userSpaceOnUse"
       id="clipPath176970">
      <path
         d="m 26920,1060 h 9010 v 9030 h -9010 z"
         id="path176968" />
    </clipPath>
    <clipPath
       clipPathUnits="userSpaceOnUse"
       id="clipPath176982">
      <path
         d="M 0,1090 H 32766 V 0 H 0 Z"
         id="path176980" />
    </clipPath>
    <clipPath
       clipPathUnits="userSpaceOnUse"
       id="clipPath178002">
      <path
         d="M 0,0 H 30000 V 20000 H 0 Z"
         id="path178000" />
    </clipPath>
    <clipPath
       clipPathUnits="userSpaceOnUse"
       id="clipPath178008">
      <path
         d="m 16858.8,6058.9 c 0,-5298.798 -4295.5,-9594.4 -9594.38,-9594.4 -5298.85,0 -9594.42,4295.602 -9594.42,9594.4 0,5298.9 4295.57,9594.5 9594.42,9594.5 5298.88,0 9594.38,-4295.6 9594.38,-9594.5"
         id="path178006" />
    </clipPath>
    <clipPath
       clipPathUnits="userSpaceOnUse"
       id="clipPath178002-1">
      <path
         d="M 0,0 H 30000 V 20000 H 0 Z"
         id="path178000-0" />
    </clipPath>
    <clipPath
       clipPathUnits="userSpaceOnUse"
       id="clipPath178008-8">
      <path
         d="m 16858.8,6058.9 c 0,-5298.798 -4295.5,-9594.4 -9594.38,-9594.4 -5298.85,0 -9594.42,4295.602 -9594.42,9594.4 0,5298.9 4295.57,9594.5 9594.42,9594.5 5298.88,0 9594.38,-4295.6 9594.38,-9594.5"
         id="path178006-5" />
    </clipPath>
  </defs>
  <sodipodi:namedview
     id="base"
     pagecolor="#ffffff"
     bordercolor="#666666"
     borderopacity="1.0"
     inkscape:pageopacity="0.0"
     inkscape:pageshadow="2"
     inkscape:zoom="0.12374369"
     inkscape:cx="1910.3583"
     inkscape:cy="1125.3349"
     inkscape:document-units="mm"
     inkscape:current-layer="layer1"
     inkscape:document-rotation="0"
     showgrid="false"
     inkscape:window-width="1366"
     inkscape:window-height="720"
     inkscape:window-x="0"
     inkscape:window-y="24"
     inkscape:window-maximized="1" />
  <metadata
     id="metadata176184">
    <rdf:RDF>
      <cc:Work
         rdf:about="">
        <dc:format>image/svg+xml</dc:format>
        <dc:type
           rdf:resource="http://purl.org/dc/dcmitype/StillImage" />
        <dc:title />
      </cc:Work>
    </rdf:RDF>
  </metadata>
  <g
     inkscape:label="Layer 1"
     inkscape:groupmode="layer"
     id="layer1"
     transform="translate(323.47344,266.66402)">
    <path
       d="M 918.8398,446.65413 H -322.41511 v -712.2598 H 918.8398 v 712.2598"
       style="fill:#216778;fill-opacity:1;fill-rule:nonzero;stroke:none;stroke-width:0.0706492"
       id="path177990" />
    <path
       id="path181895"
       style="fill:#87cdde;fill-opacity:1;fill-rule:nonzero;stroke:none;stroke-width:0.0655453"
       d="m 201.21355,446.6543 c 1.3048,-1.60007 2.60922,-3.20046 3.88542,-4.82444 1.69071,-2.15143 3.35582,-4.3236 4.99554,-6.5162 1.63973,-2.19259 3.25381,-4.40544 4.84165,-6.63831 1.58784,-2.23285 3.14957,-4.48554 4.68463,-6.75773 1.53506,-2.27222 3.04361,-4.56394 4.52499,-6.87462 1.48139,-2.31068 2.93594,-4.64062 4.36276,-6.98885 1.42681,-2.34826 2.82603,-4.71506 4.19738,-7.09999 1.37135,-2.38491 2.71441,-4.78776 4.0294,-7.20846 1.315,-2.42073 2.6016,-4.85932 3.85934,-7.31493 1.25774,-2.45558 2.48707,-4.92806 3.68667,-7.41765 1.19959,-2.4896 2.36978,-4.9962 3.51034,-7.51888 1.14055,-2.5227 2.25131,-5.06153 3.33192,-7.61644 1.08062,-2.55489 2.13112,-5.12567 3.15091,-7.71189 1.01979,-2.58622 2.00869,-5.18814 2.96676,-7.80475 0.95806,-2.61664 1.88507,-5.24781 2.78051,-7.89396 0.89545,-2.64616 1.75922,-5.30684 2.59115,-7.9816 0.83193,-2.67479 1.63218,-5.36413 2.3997,-8.06664 0.76752,-2.70251 1.50237,-5.41814 2.20459,-8.14749 0.70222,-2.72933 1.3719,-5.47201 2.00792,-8.2273 0.63603,-2.75529 1.23868,-5.52367 1.80759,-8.30401 0.56894,-2.78032 1.10373,-5.57255 1.60467,-8.37704 0.50096,-2.80446 0.96811,-5.62126 1.40017,-8.44901 0.43208,-2.82773 0.82923,-5.66673 1.19152,-8.51684 0.36229,-2.85011 0.68964,-5.71098 0.98126,-8.58256 0.29161,-2.87158 0.54733,-5.75353 0.76737,-8.64569 0.22006,-2.89216 0.40433,-5.79489 0.55195,-8.70673 0.1476,-2.91183 0.25858,-5.83296 0.3328,-8.76359 0.0743,-2.93062 0.11165,-5.87037 0.11165,-8.81888 0,-2.94856 -0.0374,-5.88875 -0.11165,-8.81941 -0.0742,-2.93066 -0.1852,-5.85172 -0.3328,-8.76359 -0.14762,-2.91187 -0.33189,-5.81453 -0.55195,-8.70673 -0.22004,-2.89219 -0.47576,-5.77407 -0.76737,-8.64569 -0.29162,-2.87161 -0.61897,-5.73294 -0.98126,-8.58309 -0.36229,-2.85014 -0.75944,-5.68906 -1.19152,-8.51684 -0.43206,-2.82777 -0.89921,-5.64398 -1.40017,-8.44849 -0.50094,-2.80452 -1.03573,-5.59719 -1.60467,-8.37755 -0.56891,-2.78036 -1.17156,-5.54869 -1.80759,-8.304 -0.63602,-2.75531 -1.3057,-5.49794 -2.00792,-8.22731 -0.70222,-2.72936 -1.43707,-5.44548 -2.20459,-8.14801 -0.76752,-2.70253 -1.56777,-5.39132 -2.3997,-8.06611 -0.83193,-2.6748 -1.6957,-5.33544 -2.59115,-7.98161 -0.89544,-2.64616 -1.82245,-5.27783 -2.78051,-7.89448 -0.95807,-2.61664 -1.94697,-5.21852 -2.96676,-7.80475 -1.01979,-2.58623 -2.07029,-5.15698 -3.15091,-7.711896 -1.08061,-2.554916 -2.19137,-5.093719 -3.33192,-7.616428 -1.14056,-2.522713 -2.31075,-5.029268 -3.51034,-7.518877 -1.1996,-2.489611 -2.42893,-4.962579 -3.68667,-7.418194 -1.25774,-2.455615 -2.54434,-4.893655 -3.85934,-7.314382 -1.31499,-2.420724 -2.65805,-4.82406 -4.0294,-7.209002 -1.37135,-2.384941 -2.77057,-4.751711 -4.19738,-7.099972 -1.42682,-2.348264 -2.88137,-4.677646 -4.36276,-6.988337 -1.48138,-2.310689 -2.98993,-4.602386 -4.52499,-6.87461 -1.53506,-2.272221 -3.09679,-4.525417 -4.68463,-6.758276 -1.58784,-2.232859 -3.20192,-4.445689 -4.84165,-6.638292 -1.63972,-2.192603 -3.30483,-4.364769 -4.99554,-6.516221 -1.69072,-2.151451 -3.40654,-4.282135 -5.14735,-6.391541 -1.74081,-2.109405 -3.50653,-4.1977865 -5.29655,-6.264252 -1.79001,-2.0664656 -3.60482,-4.1112036 -5.44314,-6.1338342 -1.83832,-2.02263072 -3.70034,-4.0229062 -5.58608,-6.0008075 -1.88573,-1.9779014 -3.79519,-3.9334168 -5.72745,-5.8656943 -1.93225,-1.932277 -3.88729,-3.84117 -5.86517,-5.726929 -1.97788,-1.885759 -3.9782,-3.748253 -6.00081,-5.586599 -2.0226,-1.838346 -4.06739,-3.652578 -6.13383,-5.442618 -2.06644,-1.790036 -4.15487,-3.555711 -6.26425,-5.296546 -2.10939,-1.740838 -4.23959,-3.457134 -6.39102,-5.147872 -2.15143,-1.690741 -4.32364,-3.355795 -6.51622,-4.995545 -2.19258,-1.639747 -4.40598,-3.253785 -6.63882,-4.841649 -2.23284,-1.587863 -4.48555,-3.149542 -6.75775,-4.684625 -2.2722,-1.535085 -4.56342,-3.043585 -6.87409,-4.524995 -2.31067,-1.481409 -4.64061,-2.935913 -6.98886,-4.362752 -2.34824,-1.426838 -4.71504,-2.826008 -7.09997,-4.197384 -2.38492,-1.371374 -4.78777,-2.714908 -7.20848,-4.029926 -2.420709,-1.315016 -4.859304,-2.601573 -7.314903,-3.859339 -2.455599,-1.257764 -4.928597,-2.487047 -7.418195,-3.686664 -2.489595,-1.199617 -4.995656,-2.369765 -7.518352,-3.51034 -2.522699,-1.140575 -5.062049,-2.251289 -7.616952,-3.331927 -2.554906,-1.080639 -5.125679,-2.131098 -7.711897,-3.150905 -2.586217,-1.019807 -5.187595,-2.009195 -7.804232,-2.967279 -2.616634,-0.958081 -5.248322,-1.885056 -7.894481,-2.780517 -2.646159,-0.895463 -5.306811,-1.759206 -7.9816,-2.591153 -2.674789,-0.831947 -5.363588,-1.632159 -8.066112,-2.399696 -2.702524,-0.767539 -5.418651,-1.502357 -8.148015,-2.204594 -2.729364,-0.70223 -5.471999,-1.37188 -8.227309,-2.00792 -2.75531,-0.63603 -5.5236334,-1.23865 -8.3039947,-1.80759 -2.7803614,-0.56895 -5.57303233,-1.10424 -8.3775507,-1.60519 -2.8045186,-0.50096 -5.6207176,-0.96758 -8.4484986,-1.39965 -2.827781,-0.43208 -5.66721,-0.82921 -8.517359,-1.1915 -2.850149,-0.36231 -5.710946,-0.68964 -8.58257,-0.98127 -2.87162,-0.29163 -5.75401,-0.54784 -8.646211,-0.76791 -2.892201,-0.22006 -5.794319,-0.4038 -8.706204,-0.5514 -2.911888,-0.14761 -5.833435,-0.2591 -8.764111,-0.33335 -2.930678,-0.0742 -5.870315,-0.11164 -8.818887,-0.11164 -2.94855,0 -5.888753,0.0374 -8.819407,0.11164 -2.930658,0.0743 -5.851721,0.18574 -8.76359,0.33335 -2.911867,0.1476 -5.814541,0.33134 -8.706728,0.5514 -2.892185,0.22007 -5.774081,0.47628 -8.645691,0.76791 -2.87161,0.29163 -5.73243,0.61896 -8.58257,0.98127 -2.85013,0.36229 -5.68958,0.75942 -8.51736,1.1915 -2.82777,0.43207 -5.64398,0.89869 -8.44849,1.39965 -2.80451,0.50095 -5.5972,1.03624 -8.37755,1.60519 -2.78036,0.56894 -5.5487,1.17156 -8.304,1.80759 -2.75531,0.63604 -5.49743,1.30569 -8.22679,2.00792 -2.72936,0.702237 -5.44601,1.437055 -8.14853,2.204594 -2.70253,0.767537 -5.39133,1.567749 -8.06612,2.399696 -2.67478,0.831947 -5.33543,1.69569 -7.9816,2.591153 -2.64616,0.895461 -5.27784,1.822436 -7.89448,2.780517 -2.61664,0.958084 -5.21801,1.947472 -7.80423,2.967279 -2.58622,1.019807 -5.15698,2.070266 -7.7119,3.150905 -2.55491,1.080638 -5.09424,2.191352 -7.61695,3.331927 -2.5227,1.140575 -5.02875,2.310723 -7.51835,3.51034 -2.48961,1.199617 -4.96258,2.4289 -7.41819,3.686664 -2.45561,1.257766 -4.89419,2.544323 -7.31491,3.859339 -2.42072,1.315018 -4.82354,2.658552 -7.20848,4.029926 -2.38493,1.371376 -4.75171,2.770546 -7.09997,4.197384 -2.34826,1.426839 -4.67818,2.881343 -6.98886,4.362752 -2.31068,1.48141 -4.60239,2.98991 -6.87461,4.524995 -2.27222,1.535083 -4.5249,3.096762 -6.75775,4.684625 -2.23286,1.587864 -4.44569,3.201902 -6.63829,4.841649 -2.1926,1.63975 -4.36479,3.304804 -6.51623,4.995545 -2.15143,1.690738 -4.28214,3.407034 -6.39154,5.147872 -2.1094,1.740835 -4.1978,3.50651 -6.26425,5.296546 -2.06647,1.79004 -4.1112,3.604272 -6.13384,5.442618 -2.02262,1.838346 -4.02291,3.70084 -6.00081,5.586599 -1.97788,1.885759 -3.9334,3.794652 -5.86569,5.726929 -1.93228,1.9322775 -3.84117,3.8877929 -5.72692,5.8656943 -1.88576,1.9779013 -3.74825,3.97817678 -5.5866,6.0008075 -1.83835,2.0226306 -3.65257,4.0673686 -5.44263,6.1338342 -0.11581,0.1337171 -0.22711,0.2714413 -0.34274,0.40534 V 446.6543 Z" />
    <g
       id="g177998"
       clip-path="url(#clipPath178002-1)"
       transform="matrix(0.03527778,0,0,-0.03527778,-322.41511,439.95176)">
      <g
         id="g178004"
         clip-path="url(#clipPath178008-8)">
        <path
           d="m 11927,507 c -511.8,0 -958.5,88.801 -1240.3,313.199 C 9561.99,1715.9 8709.98,1188.8 8709.98,1643.7 c 0,454.6 1535.62,823.4 3429.82,823.4 1894.2,0 3429.7,-368.8 3429.7,-823.4 C 15569.5,1302.8 13458.2,507 11927,507"
           style="fill:#92b6ce;fill-opacity:1;fill-rule:nonzero;stroke:none"
           id="path178010" />
        <path
           d="m -2408.77,3417.6 v 6048.8 l 7428.7,4288.9 V 7699.9 l -7428.7,-4282.3"
           style="fill:#302f30;fill-opacity:1;fill-rule:nonzero;stroke:none"
           id="path178012" />
        <path
           d="m 5019.93,13755.3 -330.15,199 -7428.72,-4288.9 330.17,-199 7428.7,4288.9"
           style="fill:#efeeef;fill-opacity:1;fill-rule:nonzero;stroke:none"
           id="path178014" />
        <path
           d="M -2410.68,3747.8 5019.89,8036.7 9790.25,5285.5 V 4955.3 L 2360.31,666.898 v -0.496 0.2 -0.2 0.496 L -2410.68,3417.6 v 330.2"
           style="fill:#efeeef;fill-opacity:1;fill-rule:nonzero;stroke:none"
           id="path178016" />
        <path
           d="M 9788.4,5285.5 5019.93,8036.7 -2408.77,3747.8 2359.7,996.5 l 7428.7,4289"
           style="fill:#efeeef;fill-opacity:1;fill-rule:nonzero;stroke:none"
           id="path178018" />
        <path
           d="M 9788.4,5285.5 V 4955.3 L 2359.7,666.402 V 996.5 l 7428.7,4289"
           style="fill:#dfdfdc;fill-opacity:1;fill-rule:nonzero;stroke:none"
           id="path178020" />
        <path
           d="M -2408.77,3747.8 V 3417.6 L 2360.74,666.402 2359.7,996.5 -2408.77,3747.8"
           style="fill:#c6c5c3;fill-opacity:1;fill-rule:nonzero;stroke:none"
           id="path178022" />
        <path
           d="M 5588.39,4807 3280.7,3468.7 4601.8,2712.1 6910.28,4045 5588.39,4807"
           style="fill:#e0dfdd;fill-opacity:1;fill-rule:nonzero;stroke:none"
           id="path178024" />
        <path
           d="M 3372.96,3415.8 3280.7,3468.7 5588.39,4807 6910.28,4045 6814.25,3989.5 5584.48,4698.4 3372.96,3415.8"
           style="fill:#dadad8;fill-opacity:1;fill-rule:nonzero;stroke:none"
           id="path178026" />
        <path
           d="M 5006.55,7576 -1431.61,3858.9 812.969,2543.8 7295.82,6261 5006.55,7576"
           style="fill:#e0dfdd;fill-opacity:1;fill-rule:nonzero;stroke:none"
           id="path178028" />
        <path
           d="m 4555.88,7030.5 428.96,247.7 370.85,-207.4 -428.94,-247.7 -370.87,207.4"
           style="fill:#302f30;fill-opacity:1;fill-rule:nonzero;stroke:none"
           id="path178030" />
        <path
           d="m 4375.62,6504.8 -370.88,207.4 428.99,247.8 370.86,-207.5 -428.97,-247.7"
           style="fill:#302f30;fill-opacity:1;fill-rule:nonzero;stroke:none"
           id="path178032" />
        <path
           d="m 2171.14,5231.8 -370.86,207.5 428.97,247.7 370.88,-207.4 -428.99,-247.8"
           style="fill:#302f30;fill-opacity:1;fill-rule:nonzero;stroke:none"
           id="path178034" />
        <path
           d="m 2722.29,5550.1 -370.88,207.4 428.92,247.7 370.9,-207.4 -428.94,-247.7"
           style="fill:#302f30;fill-opacity:1;fill-rule:nonzero;stroke:none"
           id="path178036" />
        <path
           d="m 3273.38,5868.3 -370.88,207.5 428.98,247.7 370.86,-207.5 -428.96,-247.7"
           style="fill:#302f30;fill-opacity:1;fill-rule:nonzero;stroke:none"
           id="path178038" />
        <path
           d="M -30.4961,3960.5 -401.379,4167.9 24.7852,4414 395.637,4206.6 -30.4961,3960.5"
           style="fill:#302f30;fill-opacity:1;fill-rule:nonzero;stroke:none"
           id="path178040" />
        <path
           d="m 520.664,4278.7 -370.891,207.5 426.125,246 370.856,-207.4 -426.09,-246.1"
           style="fill:#302f30;fill-opacity:1;fill-rule:nonzero;stroke:none"
           id="path178042" />
        <path
           d="M 1071.78,4597 700.895,4804.4 1127.01,5050.5 1497.87,4843 1071.78,4597"
           style="fill:#302f30;fill-opacity:1;fill-rule:nonzero;stroke:none"
           id="path178044" />
        <path
           d="m 1620.03,4913.6 -370.89,207.4 428.96,247.7 370.87,-207.4 -428.94,-247.7"
           style="fill:#302f30;fill-opacity:1;fill-rule:nonzero;stroke:none"
           id="path178046" />
        <path
           d="m 3824.51,6186.6 -370.86,207.4 428.92,247.7 370.9,-207.4 -428.96,-247.7"
           style="fill:#302f30;fill-opacity:1;fill-rule:nonzero;stroke:none"
           id="path178048" />
        <path
           d="M 347.75,3606.8 -78.3398,3360.8 -449.246,3568.2 -23.1367,3814.3 347.75,3606.8"
           style="fill:#302f30;fill-opacity:1;fill-rule:nonzero;stroke:none"
           id="path178050" />
        <path
           d="M 101.852,3886.5 1079.12,4450.8 1450.01,4243.3 472.766,3679 101.852,3886.5"
           style="fill:#302f30;fill-opacity:1;fill-rule:nonzero;stroke:none"
           id="path178052" />
        <path
           d="m 1204.13,4523 426.09,246 370.93,-207.4 -426.12,-246.1 -370.9,207.5"
           style="fill:#302f30;fill-opacity:1;fill-rule:nonzero;stroke:none"
           id="path178054" />
        <path
           d="m 2552.25,4879.8 -428.96,-247.7 -370.91,207.5 428.96,247.7 370.91,-207.5"
           style="fill:#302f30;fill-opacity:1;fill-rule:nonzero;stroke:none"
           id="path178056" />
        <path
           d="m 3103.39,5198.1 -428.98,-247.7 -370.89,207.4 428.97,247.7 370.9,-207.4"
           style="fill:#302f30;fill-opacity:1;fill-rule:nonzero;stroke:none"
           id="path178058" />
        <path
           d="m 4756.72,6152.8 -428.95,-247.7 -370.89,207.5 428.94,247.7 370.9,-207.5"
           style="fill:#302f30;fill-opacity:1;fill-rule:nonzero;stroke:none"
           id="path178060" />
        <path
           d="m 4205.62,5834.6 -428.97,-247.7 -370.93,207.4 429,247.7 370.9,-207.4"
           style="fill:#302f30;fill-opacity:1;fill-rule:nonzero;stroke:none"
           id="path178062" />
        <path
           d="m 3654.48,5516.3 -428.92,-247.7 -370.92,207.5 428.94,247.7 370.9,-207.5"
           style="fill:#302f30;fill-opacity:1;fill-rule:nonzero;stroke:none"
           id="path178064" />
        <path
           d="m 5307.87,6471.1 -428.99,-247.7 -370.9,207.4 428.97,247.7 370.92,-207.4"
           style="fill:#302f30;fill-opacity:1;fill-rule:nonzero;stroke:none"
           id="path178066" />
        <path
           d="m 5059.11,6749 428.96,247.7 370.9,-207.4 L 5430,6541.6 5059.11,6749"
           style="fill:#302f30;fill-opacity:1;fill-rule:nonzero;stroke:none"
           id="path178068" />
        <path
           d="M 850.996,3325.4 424.879,3079.3 53.9844,3286.7 480.098,3532.8 850.996,3325.4"
           style="fill:#302f30;fill-opacity:1;fill-rule:nonzero;stroke:none"
           id="path178070" />
        <path
           d="m 1156.27,3923.3 426.1,246 370.89,-207.4 -426.14,-246.1 -370.85,207.5"
           style="fill:#302f30;fill-opacity:1;fill-rule:nonzero;stroke:none"
           id="path178072" />
        <path
           d="m 2255.63,4558.1 428.96,247.7 370.88,-207.4 -428.94,-247.7 -370.9,207.4"
           style="fill:#302f30;fill-opacity:1;fill-rule:nonzero;stroke:none"
           id="path178074" />
        <path
           d="m 1707.38,4241.5 426.1,246.1 370.9,-207.5 -426.12,-246 -370.88,207.4"
           style="fill:#302f30;fill-opacity:1;fill-rule:nonzero;stroke:none"
           id="path178076" />
        <path
           d="m 3357.89,5194.6 428.94,247.7 370.88,-207.4 -428.93,-247.7 -370.89,207.4"
           style="fill:#302f30;fill-opacity:1;fill-rule:nonzero;stroke:none"
           id="path178078" />
        <path
           d="m 2806.76,4876.4 428.97,247.7 370.89,-207.5 -428.99,-247.7 -370.87,207.5"
           style="fill:#302f30;fill-opacity:1;fill-rule:nonzero;stroke:none"
           id="path178080" />
        <path
           d="m 4831.01,5623.7 -370.88,207.4 428.94,247.7 370.86,-207.4 -428.92,-247.7"
           style="fill:#302f30;fill-opacity:1;fill-rule:nonzero;stroke:none"
           id="path178082" />
        <path
           d="m 3908.99,5512.8 428.95,247.7 370.9,-207.4 -428.97,-247.7 -370.88,207.4"
           style="fill:#302f30;fill-opacity:1;fill-rule:nonzero;stroke:none"
           id="path178084" />
        <path
           d="m 5011.24,6149.4 980.06,565.9 370.89,-207.4 -980.09,-566 -370.86,207.5"
           style="fill:#302f30;fill-opacity:1;fill-rule:nonzero;stroke:none"
           id="path178086" />
        <path
           d="m 1288.77,3080.5 -426.125,-246 -305.457,170.9 426.132,246 305.45,-170.9"
           style="fill:#302f30;fill-opacity:1;fill-rule:nonzero;stroke:none"
           id="path178088" />
        <path
           d="m 2636.71,4206.1 305.44,-170.8 -426.1,-246 -305.46,170.8 426.12,246"
           style="fill:#302f30;fill-opacity:1;fill-rule:nonzero;stroke:none"
           id="path178090" />
        <path
           d="M 4841.16,5479.1 5146.62,5308.3 3064.3,4105.9 2758.84,4276.7 4841.16,5479.1"
           style="fill:#302f30;fill-opacity:1;fill-rule:nonzero;stroke:none"
           id="path178092" />
        <path
           d="m 5392.27,5797.4 305.44,-170.9 -428.93,-247.6 -305.44,170.8 428.93,247.7"
           style="fill:#302f30;fill-opacity:1;fill-rule:nonzero;stroke:none"
           id="path178094" />
        <path
           d="m 6494.51,6433.9 305.48,-170.9 -428.97,-247.7 -305.46,170.8 428.95,247.8"
           style="fill:#302f30;fill-opacity:1;fill-rule:nonzero;stroke:none"
           id="path178096" />
        <path
           d="m 5943.41,6115.6 305.46,-170.8 -428.98,-247.7 -305.47,170.8 428.99,247.7"
           style="fill:#302f30;fill-opacity:1;fill-rule:nonzero;stroke:none"
           id="path178098" />
        <path
           d="m 1017.63,3844.5 503.51,-281.6 551.4,318.4 L 2382.4,3708 1400.63,3141.1 587.266,3596 1017.63,3844.5"
           style="fill:#302f30;fill-opacity:1;fill-rule:nonzero;stroke:none"
           id="path178100" />
        <path
           d="M -2014.89,9196.1 V 4454.4 L 4658.07,8307 v 4741.7 L -2014.89,9196.1"
           style="fill:#1e1c1c;fill-opacity:1;fill-rule:nonzero;stroke:none"
           id="path178102" />
        <path
           d="M -2014.95,4454.4 4659.1,8283.1 v 4720.5 L -2014.95,9173.9 V 4454.4"
           style="fill:#fbfcfc;fill-opacity:1;fill-rule:nonzero;stroke:none"
           id="path178104" />
        <path
           d="m -2014.95,8511.4 6674.05,3829.7 v 662.5 L -2014.95,9173.9 v -662.5"
           style="fill:#dfdfdc;fill-opacity:1;fill-rule:nonzero;stroke:none"
           id="path178106" />
        <path
           d="m -507.566,9709.8 c 0,-78.6 63.703,-105.7 142.273,-60.6 l 4201.813,2411.1 c 78.58,45.1 142.28,145.3 142.28,223.9 0,78.6 -63.7,105.7 -142.28,60.6 L -365.293,9933.7 c -78.57,-45.1 -142.273,-145.3 -142.273,-223.9"
           style="fill:#fbfcfc;fill-opacity:1;fill-rule:nonzero;stroke:none"
           id="path178108" />
        <path
           d="m 3136.99,10520 824.41,-479.1 8.74,-3085.7 -829.81,-479.1 -824.39,479.1 -8.75,3085.7 829.8,479.1"
           style="fill:#5faee4;fill-opacity:1;fill-rule:nonzero;stroke:none"
           id="path178110" />
        <path
           d="m 2307.19,10040.9 8.75,-3085.7 824.39,-479.1 -8.75,3085.7 -824.39,479.1"
           style="fill:#3a68bb;fill-opacity:1;fill-rule:nonzero;stroke:none"
           id="path178112" />
        <path
           d="m 3131.58,9561.8 8.75,-3085.7 829.81,479.1 -8.74,3085.7 -829.82,-479.1"
           style="fill:#4a87ce;fill-opacity:1;fill-rule:nonzero;stroke:none"
           id="path178114" />
        <path
           d="m 1990.24,9079.5 824.38,-479.1 6.57,-2314.3 -829.82,-479.1 -824.37,479.1 -6.57,2314.3 829.81,479.1"
           style="fill:#6f54af;fill-opacity:1;fill-rule:nonzero;stroke:none"
           id="path178116" />
        <path
           d="m 1160.43,8600.4 6.57,-2314.3 824.37,-479.1 -6.54,2314.3 -824.4,479.1"
           style="fill:#54389c;fill-opacity:1;fill-rule:nonzero;stroke:none"
           id="path178118" />
        <path
           d="m 1984.83,8121.3 6.54,-2314.3 829.82,479.1 -6.57,2314.3 -829.79,-479.1"
           style="fill:#5e42a3;fill-opacity:1;fill-rule:nonzero;stroke:none"
           id="path178120" />
        <path
           d="m 813.48,7628.4 824.37,-479.1 4.38,-1542.9 -829.769,-479.1 -824.3985,479.1 -4.375,1542.9 829.7925,479.1"
           style="fill:#deab20;fill-opacity:1;fill-rule:nonzero;stroke:none"
           id="path178122" />
        <path
           d="m -16.3125,7149.3 4.375,-1542.9 824.3985,-479.1 -4.391,1542.9 -824.3825,479.1"
           style="fill:#e55d1b;fill-opacity:1;fill-rule:nonzero;stroke:none"
           id="path178124" />
        <path
           d="m 808.07,6670.2 4.391,-1542.9 829.769,479.1 -4.38,1542.9 -829.78,-479.1"
           style="fill:#e38418;fill-opacity:1;fill-rule:nonzero;stroke:none"
           id="path178126" />
        <path
           d="m -359.246,6175.1 824.398,-479.1 2.184,-771.5 -829.774,-479 -824.402,479.1 -2.19,771.4 829.784,479.1"
           style="fill:#f0414c;fill-opacity:1;fill-rule:nonzero;stroke:none"
           id="path178128" />
        <path
           d="m -364.633,5216.9 2.195,-771.4 829.774,479 -2.184,771.5 -829.785,-479.1"
           style="fill:#e32933;fill-opacity:1;fill-rule:nonzero;stroke:none"
           id="path178130" />
        <path
           d="m 12647.1,1835.3 c 0,0 -24.8,-180.9 14.9,-225.5 39.6,-44.6 391.5,-161.1 503,-272.6 111.6,-111.5 830.2,-299.9 1013.5,-66.9 183.4,232.9 -426.2,356.8 -426.2,356.8 l -1105.2,208.2"
           style="fill:#ffffff;fill-opacity:1;fill-rule:nonzero;stroke:none"
           id="path178132" />
        <path
           d="m 12713.7,2375.1 c -128.2,-71.3 -101,-527.8 -62.5,-616.6 38.4,-89 349.1,-123.9 592.9,-319.2 243.9,-195.3 868.5,-171.8 938.7,-49.5 70.1,122.3 -511.7,508.6 -722.2,686.4 -210.4,177.8 -119.6,388.8 -119.6,388.8 0,0 -499.1,-18.6 -627.3,-89.9"
           style="fill:#21201f;fill-opacity:1;fill-rule:nonzero;stroke:none"
           id="path178134" />
        <path
           d="m 10684.5,1820.4 c 0,0 -329.5,-795.4 228,-889.599 557.6,-94.199 488.2,582.299 488.2,582.299 l -716.2,307.3"
           style="fill:#ffffff;fill-opacity:1;fill-rule:nonzero;stroke:none"
           id="path178136" />
        <path
           d="m 11069.7,2481.4 c -181.6,-0.2 -311.2,-444.1 -311.2,-444.1 0,0 -383.5,-825.1 152.9,-951.5 536.6,-126.3 495.6,399.6 495.6,399.6 l -57.2,797 c 0,0 -98.5,199.1 -280.1,199"
           style="fill:#21201f;fill-opacity:1;fill-rule:nonzero;stroke:none"
           id="path178138" />
        <path
           d="m 11338.4,7375.2 -564.5,-5043.4 c 0,0 133.4,-227.4 416.5,-250.6 283.3,-23.4 292,95.7 292,95.7 l 846.5,3672 c 0,0 200.4,-3474.2 247.1,-3615.8 46.8,-141.7 266.8,-182.2 522.5,-158.8 255.6,23.2 327.5,243.9 327.5,243.9 l 145.5,5057 h -2233.1"
           style="fill:#21201f;fill-opacity:1;fill-rule:nonzero;stroke:none"
           id="path178140" />
        <g
           id="g178142"
           transform="scale(1.00921)">
          <path
             d="m 15365.3,7674.73 c 280.5,-66.99 530,141.29 732.4,45.78 202.3,-95.53 -197.6,-570.75 -384,-595.62 -186.4,-24.77 -468,152.79 -628.3,197.78 -74,20.81 -698.5,366.72 -698.5,366.72 l -735.5,663 451.8,608.89 557.5,-861.86 c 0,0 587.3,-396.75 704.6,-424.69"
             style="fill:#f3d588;fill-opacity:1;fill-rule:nonzero;stroke:none"
             id="path178144" />
        </g>
        <path
           d="m 13886.9,9881.8 c 222.5,-1.1 546.9,-928.4 647.2,-1077.1 100.4,-148.7 -496.7,-667 -643,-579.9 -146.5,87.3 -358.2,636.4 -358.2,636.4 0,0 215.1,1019.5 354,1020.6"
           style="fill:#e38418;fill-opacity:1;fill-rule:nonzero;stroke:none"
           id="path178146" />
        <path
           d="m 8285.88,10237.8 c 0,0 -951.05,815 -1012.46,676.4 -61.36,-138.6 359.24,-405.1 359.24,-405.1 0,0 -383.95,-580.5 389.47,-645 198.35,-82 1426.31,-555 1568.3,-584.2 142.01,-29.2 1192.77,-134.8 1192.77,-134.8 l 106.1,782.4 c 0,0 -902.94,-118.7 -1085.48,-100.6 -182.55,18.2 -1517.94,410.9 -1517.94,410.9"
           style="fill:#f3d588;fill-opacity:1;fill-rule:nonzero;stroke:none"
           id="path178148" />
        <path
           d="m 11933.7,10125.4 c -214.5,78.9 -856.9,-89.5 -1303.6,-180 -166,-33.6 -285.3,-894.5 -49.9,-884.2 374.7,16.5 802.9,64.8 829.6,33.4 43.4,-51 33.4,-1468.3 -363.5,-2489.1 359.5,-95.9 1427.4,178.4 1908.1,-19.8 480.7,-198.3 753.3,-109.1 753.3,-109.1 0,0 -186.5,1488.3 56.7,2113.1 243.1,624.8 284.9,996.5 237.8,1179.3 -46.9,182.7 -428.2,409.2 -992.3,294.8 -352.5,-71.5 -781.9,-46.6 -1076.2,61.6"
           style="fill:#deab20;fill-opacity:1;fill-rule:nonzero;stroke:none"
           id="path178150" />
        <path
           d="m 12398.1,10224.1 c 0,0 -191,-182.3 131.7,-297.4 322.6,-115.3 619.2,83.9 619.2,83.9 0,0 238.5,865.8 31.9,1036.5 -206.5,170.7 -914.5,-388.9 -914.5,-388.9 l 131.7,-434.1"
           style="fill:#d0aa68;fill-opacity:1;fill-rule:nonzero;stroke:none"
           id="path178152" />
        <path
           d="m 11926,11005.8 c 0,0 -147.5,-1118.4 324,-1078.1 471.4,40.3 943.2,481.7 943.2,481.7 0,0 97.8,974.4 -602.5,1100.1 -555.8,30.2 -664.7,-503.7 -664.7,-503.7"
           style="fill:#f3d588;fill-opacity:1;fill-rule:nonzero;stroke:none"
           id="path178154" />
        <path
           d="m 11628.6,11456.8 c -29.7,-763.1 1148.2,-393.1 1148.2,-393.1 0,0 -14.9,-455.4 55.5,-480.3 70.4,-24.9 114.8,347.1 251.9,282 137.1,-65 111.3,-669.8 111.3,-669.8 0,0 833.2,1045.9 36.9,1369.7 -596.3,1028.1 -1322.3,-494.5 -1603.8,-108.5"
           style="fill:#191716;fill-opacity:1;fill-rule:nonzero;stroke:none"
           id="path178156" />
        <g
           id="g178158"
           transform="scale(1.03429)">
          <path
             d="m 16134.4,7985.64 c 288.8,97.36 1240.7,-76.38 1347.2,-397.18 -668.5,218.89 -1331,-1493.39 -1331,-1493.39 0,0 -675.2,289.48 -1326.3,180.71 23.1,451.9 1021.4,1612.59 1310.1,1709.86"
             style="fill:#ffffff;fill-opacity:1;fill-rule:nonzero;stroke:none"
             id="path178160" />
        </g>
        <g
           id="g178162"
           transform="scale(1.03429)">
          <path
             d="m 15823.2,7571.83 756.7,-145.32 -132.6,-72.9 -689.3,150.25 65.2,67.97"
             style="fill:#eff0ef;fill-opacity:1;fill-rule:nonzero;stroke:none"
             id="path178164" />
        </g>
        <g
           id="g178166"
           transform="scale(1.03429)">
          <path
             d="m 15637,7334.66 756.7,-145.41 -132.5,-72.9 -689.4,150.34 65.2,67.97"
             style="fill:#eff0ef;fill-opacity:1;fill-rule:nonzero;stroke:none"
             id="path178168" />
        </g>
        <g
           id="g178170"
           transform="scale(1.03429)">
          <path
             d="m 16003.9,7758.24 756.6,-145.42 -132.4,-72.9 -689.6,150.35 65.4,67.97"
             style="fill:#eff0ef;fill-opacity:1;fill-rule:nonzero;stroke:none"
             id="path178172" />
        </g>
        <g
           id="g178174"
           transform="scale(1.01261)">
          <path
             d="m 15825.9,7279.63 474.1,-101.43 -91.3,-86.61 -468.4,111.4 85.6,76.64"
             style="fill:#eff0ef;fill-opacity:1;fill-rule:nonzero;stroke:none"
             id="path178176" />
        </g>
        <path
           d="m 11871.4,9055.9 63.4,-4.7 15.8,64.7 -63.4,4.7 z m 151,-63.7 -46.6,3.5 -15.2,-62.2 -55.4,4.2 15.2,62.2 -60.4,4.5 -15.7,-62.2 -55.4,4.2 15.2,62.2 -31.5,2.4 4,53.7 40.7,-3 15.6,61.3 -36.9,2.8 4,53.7 46.2,-3.5 15.1,60.6 55.4,-4.2 -15.1,-60.5 60.9,-4.6 15.1,60.5 55.4,-4.1 -15.1,-60.5 31.9,-2.4 -4,-53.8 -41.1,3.1 -15.6,-61.3 37.4,-2.8 -4.1,-53.8"
           style="fill:#fbfcfc;fill-opacity:1;fill-rule:nonzero;stroke:none"
           id="path178178" />
        <path
           d="m 12092.5,9150 63.8,-4.8 -2.4,-31.9 c 16.1,17.8 36.7,33.6 69.1,31.2 29.4,-2.3 50.7,-16.9 60.7,-40.5 21.5,21.6 45.9,32.4 76.6,30.2 47.4,-3.6 73.9,-34.3 69.8,-88.5 l -11,-146.5 -63.8,4.8 9.4,125.5 c 2.2,30.3 -10,46.8 -33.9,48.6 -24,1.8 -39.8,-12.6 -42.1,-42.9 l -9.4,-125.5 -63.8,4.7 9.4,125.6 c 2.2,30.2 -10,46.8 -34,48.6 -23.9,1.8 -39.8,-12.7 -42,-42.9 l -9.4,-125.6 -63.9,4.8 16.9,225.1"
           style="fill:#fbfcfc;fill-opacity:1;fill-rule:nonzero;stroke:none"
           id="path178180" />
        <path
           d="m 12652.5,8993.7 0.1,0.8 c 2.4,33.2 -19.3,63.9 -54.6,66.6 -36.5,2.7 -60.5,-23.8 -62.9,-57 l -0.1,-0.8 c -2.5,-33.2 19.3,-64 54.5,-66.6 36.6,-2.7 60.5,23.8 63,57 z m -180.5,13.4 v 0.9 c 4.8,64.7 60.9,113.3 131,108 69.7,-5.2 117.4,-60.7 112.6,-125.4 l -0.1,-0.8 c -4.8,-64.7 -60.8,-113.3 -130.9,-108 -69.7,5.2 -117.5,60.7 -112.6,125.3"
           style="fill:#fbfcfc;fill-opacity:1;fill-rule:nonzero;stroke:none"
           id="path178182" />
        <path
           d="m 12770.2,9099.3 63.8,-4.8 -2.4,-31.9 c 16.1,17.8 36.3,33.6 68.6,31.2 48.3,-3.7 74.1,-37.7 70.2,-89.3 l -10.9,-145.7 -63.8,4.7 9.4,125.6 c 2.2,30.2 -10.9,46.8 -35.3,48.6 -24.3,1.9 -41,-12.5 -43.3,-42.7 l -9.4,-125.6 -63.8,4.8 16.9,225.1"
           style="fill:#fbfcfc;fill-opacity:1;fill-rule:nonzero;stroke:none"
           id="path178184" />
        <path
           d="m 13172.4,8973.7 c -1.6,28.8 -17,49.4 -43.8,51.4 -26.5,2 -45.1,-15.6 -52.3,-44.2 z m -160.1,-7 0.1,0.8 c 4.8,64.3 54.5,113.8 120,108.9 75.2,-5.7 105.2,-66.6 100.5,-130.4 -0.4,-5.1 -1.3,-10.9 -2.1,-16.8 l -156.7,11.8 c 4.2,-29.5 23.2,-46.1 51.7,-48.2 21.5,-1.6 37.5,3.9 56.3,19 l 34.2,-35.1 c -23,-24.4 -54.4,-38.2 -95.1,-35.1 -67.6,5.1 -114.1,56.3 -108.9,125.1"
           style="fill:#fbfcfc;fill-opacity:1;fill-rule:nonzero;stroke:none"
           id="path178186" />
        <path
           d="m 13254.9,8783.4 24.8,44.6 c 8.1,-5.6 18.3,-10.2 26.7,-10.8 10.9,-0.9 17,2.1 23.3,13 l -71.2,232.5 67.6,-5.1 39.7,-157.1 60.6,149.7 66.4,-5 -103.8,-224.1 c -20.6,-44.4 -40.4,-60.3 -78.6,-57.4 -23.1,1.7 -39.9,8.9 -55.5,19.7"
           style="fill:#fbfcfc;fill-opacity:1;fill-rule:nonzero;stroke:none"
           id="path178188" />
      </g>
    </g>
    <g
       id="g9184">
      <g
         id="g182420"
         transform="matrix(0.74807558,0,0,0.74807558,708.40493,401.82055)">
        <path
           id="path2621"
           style="fill:#ff0101;fill-opacity:1;stroke:none;stroke-width:0.497454"
           inkscape:transform-center-x="-15.902181"
           inkscape:transform-center-y="-4.0689574e-06"
           d="m 24.905297,-301.44363 c -77.093901,44.51018 -76.330596,44.95087 -76.330591,-44.0695 4e-6,-89.02036 -0.763302,-88.57967 76.330595,-44.06948 77.093899,44.51019 77.093899,43.6288 -4e-6,88.13898 z" />
        <path
           id="path2623"
           style="fill:#02a0c5;fill-opacity:1;stroke:none;stroke-width:0.497454"
           inkscape:transform-center-x="15.902169"
           inkscape:transform-center-y="1.0775713e-06"
           transform="scale(-1)"
           d="m -24.33573,389.58261 c -77.0939,44.51018 -76.3306,44.95088 -76.33059,-44.06949 0,-89.02037 -0.7633,-88.57967 76.330594,-44.06948 77.093897,44.51018 77.093897,43.62879 -4e-6,88.13897 z" />
        <path
           id="path2625"
           style="fill:#600004;fill-opacity:1;stroke:none;stroke-width:0.497454"
           inkscape:transform-center-x="-15.902214"
           inkscape:transform-center-y="-5.1233506e-06"
           d="m 24.905241,-389.91064 c -0.10096,0.0583 -0.1835,0.10585 -0.28463,0.16413 -77.09396,44.51019 -77.09396,43.62848 0,88.13865 0.10115,0.0585 0.18369,0.10604 0.28463,0.16414 0.10099,-0.0583 0.18349,-0.10586 0.28469,-0.16414 77.093999,-44.51017 77.093999,-43.62846 0,-88.13865 -0.1011,-0.0585 -0.1839,-0.10604 -0.28469,-0.16413 z" />
        <g
           aria-label="NIXY"
           id="text2629"
           style="font-size:68.7181px;line-height:1.25;font-family:sans-serif;fill:#ffffff;fill-opacity:1;stroke-width:8.58967">
          <path
             d="m -39.469667,-229.6427 v 23.98262 h -13.400029 v -48.78985 h 10.445151 l 19.584659,24.80723 v -24.80723 h 13.4000298 v 48.78985 H -20.091162 Z"
             style="font-style:normal;font-variant:normal;font-weight:900;font-stretch:normal;font-family:Raleway;-inkscape-font-specification:'Raleway Heavy';fill:#ffffff;fill-opacity:1;stroke-width:8.58967"
             id="path182608" />
          <path
             d="m -1.0562694,-205.66008 v -48.78985 H 12.34376 v 48.78985 z"
             style="font-style:normal;font-variant:normal;font-weight:900;font-stretch:normal;font-family:Raleway;-inkscape-font-specification:'Raleway Heavy';fill:#ffffff;fill-opacity:1;stroke-width:8.58967"
             id="path182610" />
          <path
             d="m 30.27915,-254.44993 8.864635,15.39285 8.864636,-15.39285 h 14.430801 l -15.324137,24.73851 14.774392,24.05134 H 47.458676 l -8.314891,-14.70567 -8.31489,14.70567 H 16.329376 l 14.774392,-24.05134 -15.324137,-24.73851 z"
             style="font-style:normal;font-variant:normal;font-weight:900;font-stretch:normal;font-family:Raleway;-inkscape-font-specification:'Raleway Heavy';fill:#ffffff;fill-opacity:1;stroke-width:8.58967"
             id="path182612" />
          <path
             d="m 75.770507,-254.44993 8.727199,19.92825 8.933353,-19.92825 H 107.9993 l -16.835938,32.6411 v 16.14875 H 77.83205 v -16.28619 l -16.561062,-32.50366 z"
             style="font-style:normal;font-variant:normal;font-weight:900;font-stretch:normal;font-family:Raleway;-inkscape-font-specification:'Raleway Heavy';fill:#ffffff;fill-opacity:1;stroke-width:8.58967"
             id="path182614" />
        </g>
        <g
           aria-label="PRESENTATIONS"
           id="text2633"
           style="font-size:20.1278px;line-height:1.25;font-family:sans-serif;fill:#ffffff;fill-opacity:1;stroke-width:2.51595">
          <path
             d="m -51.300802,-169.20308 v -14.29074 h 5.85719 q 0.885623,0 1.630352,0.38243 0.744729,0.3623 1.288179,1.00639 0.543451,0.62396 0.845368,1.40895 0.322045,0.76485 0.322045,1.56997 0,1.12715 -0.503195,2.13354 -0.503195,1.00639 -1.388819,1.65048 -0.885623,0.62396 -2.073163,0.62396 h -5.273484 v 5.51502 z m 0.704473,-6.15911 h 5.253356 q 1.026518,0 1.751119,-0.54345 0.744728,-0.56358 1.127157,-1.40894 0.402556,-0.8655 0.402556,-1.8115 0,-0.98627 -0.46294,-1.83163 -0.462939,-0.84537 -1.247923,-1.36869 -0.764857,-0.52333 -1.690736,-0.52333 h -5.132589 z"
             style="font-style:normal;font-variant:normal;font-weight:200;font-stretch:normal;font-family:Raleway;-inkscape-font-specification:'Raleway Ultra-Light';fill:#ffffff;fill-opacity:1;stroke-width:2.51595"
             id="path182617" />
          <path
             d="m -38.821587,-169.20308 v -14.29074 h 5.877318 q 0.905751,0 1.650479,0.38243 0.744729,0.3623 1.288179,1.00639 0.543451,0.62396 0.845368,1.40895 0.301917,0.76485 0.301917,1.56997 0,1.0869 -0.442812,2.0329 -0.442811,0.94601 -1.227795,1.56997 -0.784985,0.62396 -1.83163,0.7246 l 3.582748,5.59553 h -0.805112 l -3.542493,-5.51502 h -4.991694 v 5.51502 z m 0.704473,-6.15911 h 5.293611 q 1.00639,0 1.730991,-0.54345 0.744729,-0.54345 1.147285,-1.40894 0.402556,-0.8655 0.402556,-1.8115 0,-0.96614 -0.46294,-1.81151 -0.462939,-0.86549 -1.247923,-1.38881 -0.764857,-0.52333 -1.710863,-0.52333 h -5.152717 z"
             style="font-style:normal;font-variant:normal;font-weight:200;font-stretch:normal;font-family:Raleway;-inkscape-font-specification:'Raleway Ultra-Light';fill:#ffffff;fill-opacity:1;stroke-width:2.51595"
             id="path182619" />
          <path
             d="m -16.399247,-169.84717 v 0.64409 h -9.439938 v -14.29074 h 9.258788 v 0.64409 h -8.554315 v 6.01821 h 7.487542 v 0.64409 h -7.487542 v 6.34026 z"
             style="font-style:normal;font-variant:normal;font-weight:200;font-stretch:normal;font-family:Raleway;-inkscape-font-specification:'Raleway Ultra-Light';fill:#ffffff;fill-opacity:1;stroke-width:2.51595"
             id="path182621" />
          <path
             d="m -5.4076879,-181.3804 q -0.402556,-0.42268 -0.8252398,-0.7246 -0.4226838,-0.30192 -0.905751,-0.48307 -0.4830672,-0.18115 -1.0265178,-0.26166 -0.5434506,-0.10064 -1.1875402,-0.10064 -2.2744413,0 -3.3009593,0.8655 -1.026518,0.86549 -1.026518,2.3147 0,0.98626 0.442812,1.54984 0.442811,0.56357 1.408946,0.90575 0.966134,0.32204 2.4958471,0.64409 1.5699684,0.32204 2.717253,0.74473 1.1472846,0.42268 1.7712464,1.14728 0.6239618,0.7246 0.6239618,1.99265 0,0.90575 -0.3623004,1.61023 -0.3421726,0.68434 -1.00639,1.14728 -0.6642174,0.46294 -1.610224,0.70447 -0.9258788,0.22141 -2.0731634,0.22141 -1.1472845,0 -2.1335465,-0.22141 -0.986263,-0.24153 -1.851758,-0.7246 -0.865495,-0.48306 -1.630352,-1.22779 l 0.422684,-0.52333 q 0.483067,0.52333 1.046646,0.92588 0.583706,0.38243 1.227795,0.64409 0.664218,0.26166 1.388819,0.40256 0.744728,0.12077 1.5498403,0.12077 2.01278,0 3.1600646,-0.74473 1.1674124,-0.76486 1.1674124,-2.23419 0,-1.02652 -0.503195,-1.63035 -0.503195,-0.62396 -1.5297128,-1.00639 -1.0265178,-0.40256 -2.616614,-0.7246 -1.5498405,-0.32205 -2.6367415,-0.70447 -1.066774,-0.38243 -1.630352,-1.06678 -0.543451,-0.68434 -0.543451,-1.85176 0,-1.26805 0.623962,-2.13354 0.623962,-0.88563 1.751119,-1.32844 1.127156,-0.46294 2.6367415,-0.46294 0.9258788,0 1.6907352,0.18115 0.7648564,0.18115 1.408946,0.54345 0.6642174,0.3623 1.2479236,0.96614 z"
             style="font-style:normal;font-variant:normal;font-weight:200;font-stretch:normal;font-family:Raleway;-inkscape-font-specification:'Raleway Ultra-Light';fill:#ffffff;fill-opacity:1;stroke-width:2.51595"
             id="path182623" />
          <path
             d="m 7.876632,-169.84717 v 0.64409 h -9.4399382 v -14.29074 h 9.258788 v 0.64409 h -8.55431495 v 6.01821 H 6.6287084 v 0.64409 h -7.48754155 v 6.34026 z"
             style="font-style:normal;font-variant:normal;font-weight:200;font-stretch:normal;font-family:Raleway;-inkscape-font-specification:'Raleway Ultra-Light';fill:#ffffff;fill-opacity:1;stroke-width:2.51595"
             id="path182625" />
          <path
             d="m 11.51976,-182.18551 v 12.98243 h -0.704473 v -14.29074 h 0.563579 l 10.466456,13.18371 v -13.18371 h 0.704473 v 14.29074 h -0.724601 z"
             style="font-style:normal;font-variant:normal;font-weight:200;font-stretch:normal;font-family:Raleway;-inkscape-font-specification:'Raleway Ultra-Light';fill:#ffffff;fill-opacity:1;stroke-width:2.51595"
             id="path182627" />
          <path
             d="m 36.256819,-182.84973 h -5.353995 v 13.64665 h -0.704473 v -13.64665 h -5.353995 v -0.64409 h 11.412463 z"
             style="font-style:normal;font-variant:normal;font-weight:200;font-stretch:normal;font-family:Raleway;-inkscape-font-specification:'Raleway Ultra-Light';fill:#ffffff;fill-opacity:1;stroke-width:2.51595"
             id="path182629" />
          <path
             d="m 41.703709,-183.49382 h 0.603834 l 6.138979,14.29074 h -0.744729 l -2.113419,-4.93131 h -7.165497 l -2.113419,4.93131 h -0.764856 z m 3.663259,8.7556 -3.361342,-7.86997 -3.381471,7.86997 z"
             style="font-style:normal;font-variant:normal;font-weight:200;font-stretch:normal;font-family:Raleway;-inkscape-font-specification:'Raleway Ultra-Light';fill:#ffffff;fill-opacity:1;stroke-width:2.51595"
             id="path182631" />
          <path
             d="M 59.187025,-182.84973 H 53.83303 v 13.64665 h -0.704473 v -13.64665 h -5.353995 v -0.64409 h 11.412463 z"
             style="font-style:normal;font-variant:normal;font-weight:200;font-stretch:normal;font-family:Raleway;-inkscape-font-specification:'Raleway Ultra-Light';fill:#ffffff;fill-opacity:1;stroke-width:2.51595"
             id="path182633" />
          <path
             d="m 61.48157,-169.20308 v -14.29074 h 0.704473 v 14.29074 z"
             style="font-style:normal;font-variant:normal;font-weight:200;font-stretch:normal;font-family:Raleway;-inkscape-font-specification:'Raleway Ultra-Light';fill:#ffffff;fill-opacity:1;stroke-width:2.51595"
             id="path182635" />
          <path
             d="m 71.72661,-169.10244 q -1.489457,0 -2.717253,-0.60383 -1.227796,-0.62397 -2.113419,-1.65048 -0.885623,-1.02652 -1.368691,-2.3147 -0.483067,-1.30831 -0.483067,-2.677 0,-1.42907 0.503195,-2.71725 0.503195,-1.30831 1.408946,-2.3147 0.925879,-1.02652 2.133547,-1.61022 1.227796,-0.60384 2.636742,-0.60384 1.489457,0 2.717253,0.62397 1.227796,0.62396 2.093291,1.6706 0.885623,1.04665 1.36869,2.33483 0.483068,1.28818 0.483068,2.61661 0,1.4492 -0.503195,2.75751 -0.503195,1.28818 -1.408946,2.3147 -0.905751,1.00639 -2.133547,1.59009 -1.207668,0.58371 -2.616614,0.58371 z m -5.977957,-7.24601 q 0,1.28818 0.442812,2.47572 0.442811,1.16741 1.227796,2.09329 0.805112,0.92588 1.892013,1.46933 1.107029,0.54345 2.415336,0.54345 1.328435,0 2.435464,-0.56358 1.107029,-0.56357 1.892013,-1.50958 0.784984,-0.94601 1.207668,-2.11342 0.422684,-1.16741 0.422684,-2.39521 0,-1.28818 -0.442812,-2.45559 -0.442812,-1.18754 -1.247924,-2.11342 -0.805112,-0.92588 -1.912141,-1.46933 -1.086901,-0.54345 -2.354952,-0.54345 -1.348563,0 -2.455592,0.56358 -1.086901,0.56358 -1.871885,1.50958 -0.784984,0.94601 -1.227796,2.11342 -0.422684,1.16742 -0.422684,2.39521 z"
             style="font-style:normal;font-variant:normal;font-weight:200;font-stretch:normal;font-family:Raleway;-inkscape-font-specification:'Raleway Ultra-Light';fill:#ffffff;fill-opacity:1;stroke-width:2.51595"
             id="path182637" />
          <path
             d="m 81.951508,-182.18551 v 12.98243 h -0.704473 v -14.29074 h 0.563578 l 10.466456,13.18371 v -13.18371 h 0.704473 v 14.29074 h -0.724601 z"
             style="font-style:normal;font-variant:normal;font-weight:200;font-stretch:normal;font-family:Raleway;-inkscape-font-specification:'Raleway Ultra-Light';fill:#ffffff;fill-opacity:1;stroke-width:2.51595"
             id="path182639" />
          <path
             d="m 105.13873,-181.3804 q -0.40255,-0.42268 -0.82524,-0.7246 -0.42268,-0.30192 -0.90575,-0.48307 -0.48306,-0.18115 -1.02652,-0.26166 -0.54345,-0.10064 -1.18754,-0.10064 -2.274437,0 -3.300955,0.8655 -1.026518,0.86549 -1.026518,2.3147 0,0.98626 0.442812,1.54984 0.442812,0.56357 1.408946,0.90575 0.966134,0.32204 2.495845,0.64409 1.56997,0.32204 2.71726,0.74473 1.14728,0.42268 1.77124,1.14728 0.62396,0.7246 0.62396,1.99265 0,0.90575 -0.3623,1.61023 -0.34217,0.68434 -1.00639,1.14728 -0.66421,0.46294 -1.61022,0.70447 -0.92588,0.22141 -2.07316,0.22141 -1.14729,0 -2.133551,-0.22141 -0.986262,-0.24153 -1.851758,-0.7246 -0.865495,-0.48306 -1.630352,-1.22779 l 0.422684,-0.52333 q 0.483067,0.52333 1.046646,0.92588 0.583706,0.38243 1.227796,0.64409 0.664217,0.26166 1.388818,0.40256 0.744727,0.12077 1.549837,0.12077 2.01278,0 3.16007,-0.74473 1.16741,-0.76486 1.16741,-2.23419 0,-1.02652 -0.50319,-1.63035 -0.5032,-0.62396 -1.52972,-1.00639 -1.02652,-0.40256 -2.61661,-0.7246 -1.549842,-0.32205 -2.636743,-0.70447 -1.066774,-0.38243 -1.630352,-1.06678 -0.543451,-0.68434 -0.543451,-1.85176 0,-1.26805 0.623962,-2.13354 0.623962,-0.88563 1.751119,-1.32844 1.127157,-0.46294 2.636745,-0.46294 0.92588,0 1.69073,0.18115 0.76486,0.18115 1.40895,0.54345 0.66422,0.3623 1.24792,0.96614 z"
             style="font-style:normal;font-variant:normal;font-weight:200;font-stretch:normal;font-family:Raleway;-inkscape-font-specification:'Raleway Ultra-Light';fill:#ffffff;fill-opacity:1;stroke-width:2.51595"
             id="path182641" />
        </g>
      </g>
      <g
         id="g9111"
         transform="translate(99.063161,21.187374)">
        <g
           id="g182604"
           transform="matrix(0.8406649,0,0,0.8406649,-44.696388,-32.978917)"
           style="fill:#ffffff">
          <path
             d="m -280.51815,-184.84174 v -34.37482 h 16.36896 v 30.79411 q 0,4.91069 1.94381,7.57064 1.94381,2.55765 5.52452,2.55765 2.25074,0 4.29686,-0.71614 2.04612,-0.81845 3.98993,-2.55765 1.94381,-1.7392 3.4784,-4.50146 v -33.14715 h 16.36896 v 35.50019 q 0,2.45534 0.71615,3.4784 0.81844,0.92075 2.76226,1.12537 v 13.60669 q -2.25073,0.40923 -3.98994,0.61384 -1.63689,0.20461 -2.96687,0.20461 -4.29685,0 -6.8545,-1.7392 -2.55765,-1.84151 -3.17149,-5.1153 l -0.30692,-3.27379 q -3.68301,5.31991 -9.20754,7.87756 -5.42221,2.45534 -12.17441,2.45534 -8.18448,0 -12.48133,-5.2176 -4.29685,-5.21761 -4.29685,-15.14129 z"
             style="font-style:normal;font-variant:normal;font-weight:800;font-stretch:normal;font-size:102.306px;line-height:1.25;font-family:Raleway;-inkscape-font-specification:'Raleway Ultra-Bold';fill:#ffffff;stroke-width:0.264583"
             id="path182426" />
          <path
             d="m -130.94689,-165.50591 h -16.36896 v -30.18027 q 0,-5.2176 -1.94382,-7.67295 -1.94381,-2.45534 -5.01299,-2.45534 -3.27379,0 -6.44528,2.65996 -3.17148,2.65995 -4.50146,6.8545 v 30.7941 h -16.36896 v -30.18027 q 0,-5.31991 -1.94382,-7.67295 -1.94381,-2.45534 -5.01299,-2.45534 -3.17149,0 -6.34297,2.65996 -3.17149,2.65995 -4.60377,6.8545 v 30.7941 h -16.36896 v -53.71065 h 14.73206 v 9.00293 q 2.96688,-4.80838 7.97987,-7.36603 5.1153,-2.65996 11.8675,-2.65996 6.64989,0 10.2306,3.17149 3.58071,3.06918 4.60377,7.26373 3.06918,-5.013 8.08217,-7.67295 5.1153,-2.76227 11.45827,-2.76227 5.1153,0 8.28679,1.94382 3.17148,1.84151 4.80838,4.91069 1.6369,3.06918 2.25073,6.64989 0.61384,3.4784 0.61384,6.8545 z"
             style="font-style:normal;font-variant:normal;font-weight:800;font-stretch:normal;font-size:102.306px;line-height:1.25;font-family:Raleway;-inkscape-font-specification:'Raleway Ultra-Bold';fill:#ffffff;stroke-width:0.264583"
             id="path182428" />
          <path
             d="m -123.58092,-181.56795 q 0,-5.31991 2.96688,-9.30984 2.96687,-3.98994 8.18448,-6.24067 5.2176,-2.35304 11.9698,-2.35304 3.27379,0 6.445276,0.61384 3.171486,0.51153 5.524524,1.53459 v -2.35304 q 0,-4.39916 -2.659956,-6.7522 -2.659956,-2.35303 -8.082174,-2.35303 -4.50146,0 -8.4914,1.53459 -3.88763,1.53459 -8.28678,4.39915 l -4.91069,-10.43521 q 5.31991,-3.4784 11.04905,-5.2176 5.83144,-1.73921 12.276716,-1.73921 12.072108,0 18.721998,5.83145 6.752196,5.72913 6.752196,16.67587 v 14.01593 q 0,2.45534 0.716142,3.4784 0.818448,0.92075 2.762262,1.12537 v 13.60669 q -2.04612,0.40923 -3.887628,0.61384 -1.739202,0.20461 -3.06918,0.20461 -4.60377,0 -7.059114,-1.84151 -2.353038,-1.8415 -2.966874,-5.01299 l -0.306918,-2.35304 q -3.58071,4.60377 -8.593704,7.05912 -4.910688,2.35303 -10.332906,2.35303 -5.31991,0 -9.61676,-2.25073 -4.19455,-2.25073 -6.64989,-6.13836 -2.45535,-3.88763 -2.45535,-8.69601 z m 32.53331,2.04612 q 1.125366,-0.92075 1.841508,-2.04612 0.716142,-1.12536 0.716142,-2.14842 v -4.80839 q -2.04612,-0.81844 -4.60377,-1.22767 -2.455344,-0.51153 -4.60377,-0.51153 -4.50146,0 -7.46834,2.04612 -2.96687,1.94382 -2.96687,5.21761 0,1.84151 1.02306,3.3761 1.02306,1.53459 2.76226,2.45534 1.84151,0.92075 4.29685,0.92075 2.455346,0 4.91069,-0.92075 2.455344,-0.92075 4.09224,-2.35304 z"
             style="font-style:normal;font-variant:normal;font-weight:800;font-stretch:normal;font-size:102.306px;line-height:1.25;font-family:Raleway;-inkscape-font-specification:'Raleway Ultra-Bold';fill:#ffffff;stroke-width:0.264583"
             id="path182430" />
        </g>
        <g
           id="g182599"
           transform="matrix(0.8406649,0,0,0.8406649,-44.696388,-32.978917)"
           style="fill:#ffffff">
          <path
             d="m -39.792481,-181.56795 q 0,-5.31991 2.966874,-9.30984 2.966874,-3.98994 8.18448,-6.24067 5.217606,-2.35304 11.969802,-2.35304 3.273792,0 6.445278,0.61384 3.171486,0.51153 5.524524,1.53459 v -2.35304 q 0,-4.39916 -2.659956,-6.7522 -2.659956,-2.35303 -8.082174,-2.35303 -4.501464,0 -8.491398,1.53459 -3.887628,1.53459 -8.286786,4.39915 l -4.910688,-10.43521 q 5.319912,-3.4784 11.049048,-5.2176 5.831442,-1.73921 12.27672,-1.73921 12.072108,0 18.721998,5.83145 6.752196,5.72913 6.752196,16.67587 v 14.01593 q 0,2.45534 0.716142,3.4784 0.818448,0.92075 2.762262,1.12537 v 13.60669 q -2.04612,0.40923 -3.887628,0.61384 -1.739202,0.20461 -3.06918,0.20461 -4.60377,0 -7.059114,-1.84151 -2.353038,-1.8415 -2.966874,-5.01299 l -0.306918,-2.35304 q -3.58071,4.60377 -8.593704,7.05912 -4.910688,2.35303 -10.332906,2.35303 -5.319912,0 -9.616764,-2.25073 -4.194546,-2.25073 -6.64989,-6.13836 -2.455344,-3.88763 -2.455344,-8.69601 z m 32.533308,2.04612 q 1.125366,-0.92075 1.841508,-2.04612 0.716142,-1.12536 0.716142,-2.14842 v -4.80839 q -2.04612,-0.81844 -4.60377,-1.22767 -2.455344,-0.51153 -4.60377,-0.51153 -4.501464,0 -7.468338,2.04612 -2.966874,1.94382 -2.966874,5.21761 0,1.84151 1.02306,3.3761 1.02306,1.53459 2.762262,2.45534 1.841508,0.92075 4.296852,0.92075 2.455344,0 4.910688,-0.92075 2.455344,-0.92075 4.09224,-2.35304 z"
             style="font-style:normal;font-variant:normal;font-weight:800;font-stretch:normal;font-size:102.306px;line-height:1.25;font-family:Raleway;-inkscape-font-specification:'Raleway Ultra-Bold';fill:#ffffff;stroke-width:0.264583"
             id="path182432" />
          <path
             d="m 57.500381,-164.48285 q -6.036054,0 -10.537518,-2.55765 -4.501464,-2.65995 -7.059114,-7.16142 v 30.48719 h -16.36896 v -75.50183 h 14.220534 v 8.69601 q 2.966874,-4.60377 7.468338,-7.16142 4.501464,-2.55765 10.537518,-2.55765 5.422218,0 9.923682,2.14843 4.60377,2.14843 7.979868,5.93375 3.376098,3.78532 5.217606,8.79831 1.841508,5.013 1.841508,10.84444 0,7.97987 -2.966874,14.32284 -2.966874,6.34297 -8.286786,10.02599 -5.217606,3.68301 -11.969802,3.68301 z m -5.524524,-13.81131 q 2.659956,0 4.808382,-1.12536 2.250732,-1.22767 3.887628,-3.17149 1.636896,-1.94381 2.455344,-4.50146 0.920754,-2.65996 0.920754,-5.52453 0,-2.96687 -1.02306,-5.42221 -0.920754,-2.45535 -2.659956,-4.29686 -1.739202,-1.94381 -4.09224,-2.96687 -2.353038,-1.02306 -5.1153,-1.02306 -1.636896,0 -3.376098,0.51153 -1.636896,0.51153 -3.171486,1.53459 -1.432284,0.92075 -2.659956,2.25073 -1.227672,1.32998 -2.04612,3.06918 v 11.04905 q 1.125366,2.76226 2.966874,4.91069 1.841508,2.14842 4.194546,3.4784 2.353038,1.22767 4.910688,1.22767 z"
             style="font-style:normal;font-variant:normal;font-weight:800;font-stretch:normal;font-size:102.306px;line-height:1.25;font-family:Raleway;-inkscape-font-specification:'Raleway Ultra-Bold';fill:#ffffff;stroke-width:0.264583"
             id="path182434" />
          <path
             d="m 123.07846,-205.20063 q -5.93375,0 -10.74213,1.94381 -4.80839,1.84151 -6.95681,5.52452 v 32.22639 H 89.010558 v -53.71065 h 15.038982 v 10.84444 q 2.76226,-5.42222 7.16142,-8.4914 4.39916,-3.06918 9.20754,-3.17148 1.12537,0 1.6369,0 0.61383,0 1.02306,0.1023 z"
             style="font-style:normal;font-variant:normal;font-weight:800;font-stretch:normal;font-size:102.306px;line-height:1.25;font-family:Raleway;-inkscape-font-specification:'Raleway Ultra-Bold';fill:#ffffff;stroke-width:0.264583"
             id="path182436" />
          <path
             d="m 155.25055,-164.48285 q -6.8545,0 -12.17441,-2.14842 -5.31991,-2.25073 -9.10524,-6.03606 -3.68301,-3.78532 -5.62683,-8.69601 -1.94381,-5.01299 -1.94381,-10.43521 0,-7.77525 3.3761,-14.11823 3.4784,-6.44527 9.92368,-10.3329 6.44528,-3.98994 15.55051,-3.98994 9.10524,0 15.44821,3.88763 6.44528,3.88763 9.82137,10.2306 3.3761,6.24067 3.3761,13.6067 0,1.43228 -0.20461,2.86457 -0.10231,1.32998 -0.20461,2.35304 h -39.69473 q 0.30692,3.58071 1.94381,6.03605 1.73921,2.45534 4.39916,3.78532 2.65996,1.22767 5.62683,1.22767 3.68302,0 6.8545,-1.7392 3.2738,-1.7392 4.50147,-4.70607 l 13.91361,3.88762 q -2.04612,4.19455 -5.83144,7.46834 -3.68301,3.17149 -8.79831,5.013 -5.013,1.8415 -11.15136,1.8415 z m -11.86749,-32.84022 h 23.32576 q -0.40922,-3.3761 -1.94381,-5.83144 -1.53459,-2.55765 -4.09224,-3.88763 -2.55765,-1.43229 -5.62683,-1.43229 -3.17149,0 -5.72914,1.43229 -2.45534,1.32998 -3.98993,3.88763 -1.53459,2.45534 -1.94381,5.83144 z"
             style="font-style:normal;font-variant:normal;font-weight:800;font-stretch:normal;font-size:102.306px;line-height:1.25;font-family:Raleway;-inkscape-font-specification:'Raleway Ultra-Bold';fill:#ffffff;stroke-width:0.264583"
             id="path182438" />
          <path
             d="m 211.92788,-164.48285 q -6.8545,0 -13.40208,-2.25073 -6.54759,-2.25073 -11.04905,-6.64989 l 5.62683,-10.3329 q 4.91069,3.58071 9.51446,5.42221 4.70607,1.84151 8.79831,1.84151 3.17149,0 4.91069,-1.02306 1.7392,-1.02306 1.7392,-3.17148 0,-1.53459 -1.02306,-2.35304 -1.02306,-0.92076 -3.17148,-1.6369 -2.04612,-0.71614 -5.1153,-1.53459 -6.13836,-2.04612 -10.2306,-3.98993 -4.09224,-1.94382 -6.13836,-4.70608 -2.04612,-2.86457 -2.04612,-7.36603 0,-5.42222 2.65995,-9.41215 2.76227,-4.09224 7.77526,-6.34297 5.01299,-2.25074 11.9698,-2.25074 5.52453,0 10.74213,1.73921 5.31991,1.7392 9.92368,5.83144 l -6.34297,10.2306 q -4.60377,-3.17149 -8.18448,-4.60377 -3.58071,-1.43229 -6.95681,-1.43229 -1.7392,0 -3.17148,0.40923 -1.43229,0.40922 -2.35304,1.43228 -0.81845,0.92076 -0.81845,2.45535 0,1.53459 0.81845,2.45534 0.92075,0.92075 2.76226,1.6369 1.94382,0.61383 4.80838,1.53459 6.64989,1.94381 11.04905,3.98993 4.39916,1.94381 6.54759,4.91069 2.25073,2.86457 2.25073,7.67295 0,8.18448 -5.93375,12.89055 -5.83144,4.60377 -15.95974,4.60377 z"
             style="font-style:normal;font-variant:normal;font-weight:800;font-stretch:normal;font-size:102.306px;line-height:1.25;font-family:Raleway;-inkscape-font-specification:'Raleway Ultra-Bold';fill:#ffffff;stroke-width:0.264583"
             id="path182440" />
          <path
             d="m 267.88922,-164.48285 q -6.8545,0 -12.17441,-2.14842 -5.31991,-2.25073 -9.10523,-6.03606 -3.68302,-3.78532 -5.62683,-8.69601 -1.94382,-5.01299 -1.94382,-10.43521 0,-7.77525 3.3761,-14.11823 3.4784,-6.44527 9.92368,-10.3329 6.44528,-3.98994 15.55051,-3.98994 9.10524,0 15.44821,3.88763 6.44528,3.88763 9.82138,10.2306 3.37609,6.24067 3.37609,13.6067 0,1.43228 -0.20461,2.86457 -0.1023,1.32998 -0.20461,2.35304 h -39.69473 q 0.30692,3.58071 1.94382,6.03605 1.7392,2.45534 4.39915,3.78532 2.65996,1.22767 5.62683,1.22767 3.68302,0 6.85451,-1.7392 3.27379,-1.7392 4.50146,-4.70607 l 13.91362,3.88762 q -2.04612,4.19455 -5.83145,7.46834 -3.68301,3.17149 -8.79831,5.013 -5.013,1.8415 -11.15136,1.8415 z m -11.86749,-32.84022 h 23.32577 q -0.40923,-3.3761 -1.94382,-5.83144 -1.53459,-2.55765 -4.09224,-3.88763 -2.55765,-1.43229 -5.62683,-1.43229 -3.17148,0 -5.72913,1.43229 -2.45535,1.32998 -3.98994,3.88763 -1.53459,2.45534 -1.94381,5.83144 z"
             style="font-style:normal;font-variant:normal;font-weight:800;font-stretch:normal;font-size:102.306px;line-height:1.25;font-family:Raleway;-inkscape-font-specification:'Raleway Ultra-Bold';fill:#ffffff;stroke-width:0.264583"
             id="path182442" />
          <path
             d="m 355.76992,-165.50591 h -16.36896 v -30.18027 q 0,-5.31991 -2.04612,-7.67295 -1.94382,-2.45534 -5.21761,-2.45534 -2.25073,0 -4.60377,1.22767 -2.35304,1.22767 -4.29685,3.3761 -1.84151,2.14843 -2.86457,4.91069 v 30.7941 h -16.36896 v -53.71065 h 14.73207 v 9.00293 q 2.04612,-3.17148 5.1153,-5.42222 3.06918,-2.25073 7.05911,-3.37609 3.98993,-1.22768 8.69601,-1.22768 5.21761,0 8.38909,1.94382 3.27379,1.84151 4.91069,4.91069 1.7392,3.06918 2.25073,6.64989 0.61384,3.4784 0.61384,6.8545 z"
             style="font-style:normal;font-variant:normal;font-weight:800;font-stretch:normal;font-size:102.306px;line-height:1.25;font-family:Raleway;-inkscape-font-specification:'Raleway Ultra-Bold';fill:#ffffff;stroke-width:0.264583"
             id="path182444" />
          <path
             d="m 401.24769,-168.37047 q -2.25073,0.92075 -5.01299,1.8415 -2.65996,0.92076 -5.62683,1.43229 -2.96688,0.61383 -5.83144,0.61383 -4.09224,0 -7.57065,-1.32997 -3.3761,-1.43229 -5.42222,-4.60377 -1.94381,-3.17149 -1.94381,-8.3891 v -28.03184 h -6.8545 v -12.37903 h 6.8545 v -17.0851 h 16.36896 v 17.0851 h 10.94674 v 12.37903 h -10.94674 v 22.40501 q 0,2.65996 1.32998,3.88763 1.32998,1.12537 3.3761,1.12537 1.7392,0 3.68301,-0.61384 2.04612,-0.61383 3.47841,-1.32998 z"
             style="font-style:normal;font-variant:normal;font-weight:800;font-stretch:normal;font-size:102.306px;line-height:1.25;font-family:Raleway;-inkscape-font-specification:'Raleway Ultra-Bold';fill:#ffffff;stroke-width:0.264583"
             id="path182446" />
          <path
             d="m 404.21439,-181.56795 q 0,-5.31991 2.96687,-9.30984 2.96687,-3.98994 8.18448,-6.24067 5.21761,-2.35304 11.9698,-2.35304 3.27379,0 6.44528,0.61384 3.17149,0.51153 5.52452,1.53459 v -2.35304 q 0,-4.39916 -2.65995,-6.7522 -2.65996,-2.35303 -8.08218,-2.35303 -4.50146,0 -8.49139,1.53459 -3.88763,1.53459 -8.28679,4.39915 l -4.91069,-10.43521 q 5.31991,-3.4784 11.04905,-5.2176 5.83144,-1.73921 12.27672,-1.73921 12.07211,0 18.722,5.83145 6.75219,5.72913 6.75219,16.67587 v 14.01593 q 0,2.45534 0.71615,3.4784 0.81844,0.92075 2.76226,1.12537 v 13.60669 q -2.04612,0.40923 -3.88763,0.61384 -1.7392,0.20461 -3.06918,0.20461 -4.60377,0 -7.05911,-1.84151 -2.35304,-1.8415 -2.96688,-5.01299 l -0.30692,-2.35304 q -3.58071,4.60377 -8.5937,7.05912 -4.91069,2.35303 -10.33291,2.35303 -5.31991,0 -9.61676,-2.25073 -4.19455,-2.25073 -6.64989,-6.13836 -2.45534,-3.88763 -2.45534,-8.69601 z m 32.5333,2.04612 q 1.12537,-0.92075 1.84151,-2.04612 0.71614,-1.12536 0.71614,-2.14842 v -4.80839 q -2.04612,-0.81844 -4.60377,-1.22767 -2.45534,-0.51153 -4.60377,-0.51153 -4.50146,0 -7.46833,2.04612 -2.96688,1.94382 -2.96688,5.21761 0,1.84151 1.02306,3.3761 1.02306,1.53459 2.76226,2.45534 1.84151,0.92075 4.29686,0.92075 2.45534,0 4.91068,-0.92075 2.45535,-0.92075 4.09224,-2.35304 z"
             style="font-style:normal;font-variant:normal;font-weight:800;font-stretch:normal;font-size:102.306px;line-height:1.25;font-family:Raleway;-inkscape-font-specification:'Raleway Ultra-Bold';fill:#ffffff;stroke-width:0.264583"
             id="path182448" />
          <path
             d="m 493.22046,-164.48285 q -6.8545,0 -12.17441,-2.25073 -5.31991,-2.25073 -9.10524,-6.13836 -3.68301,-3.88763 -5.62683,-8.90062 -1.94381,-5.01299 -1.94381,-10.63982 0,-7.36604 3.3761,-13.70901 3.4784,-6.34297 9.92368,-10.2306 6.44528,-3.88763 15.55051,-3.88763 9.20754,0 15.55051,3.98994 6.44528,3.88763 9.61677,10.2306 l -15.95974,4.80838 q -1.53459,-2.45534 -3.98993,-3.78532 -2.35304,-1.32998 -5.31991,-1.32998 -3.3761,0 -6.13836,1.7392 -2.65996,1.7392 -4.29686,4.80838 -1.53459,3.06918 -1.53459,7.36604 0,4.19454 1.6369,7.36603 1.6369,3.17148 4.29685,5.01299 2.65996,1.7392 6.03606,1.7392 2.04612,0 3.78532,-0.61383 1.84151,-0.71614 3.27379,-1.94382 1.53459,-1.22767 2.35304,-2.76226 l 15.95973,4.91069 q -1.94381,4.09224 -5.62683,7.36603 -3.58071,3.17149 -8.49139,5.013 -4.91069,1.8415 -11.15136,1.8415 z m -1.32998,20.4612 q -2.86456,0 -6.13836,-0.81844 -3.17148,-0.81845 -6.34297,-2.45535 l 3.88763,-8.4914 q 1.43228,1.02306 2.86457,1.53459 1.43228,0.51153 2.96687,0.51153 2.14843,0 3.47841,-1.12536 1.43228,-1.12537 1.43228,-3.17149 0,-2.04612 -1.32998,-3.88763 -1.22767,-1.7392 -3.68301,-3.58071 l 5.31991,-3.27379 q 3.98993,2.76226 6.64989,6.03606 2.76226,3.27379 2.76226,7.87756 0,4.39916 -2.96687,7.57064 -2.96688,3.27379 -8.90063,3.27379 z"
             style="font-style:normal;font-variant:normal;font-weight:800;font-stretch:normal;font-size:102.306px;line-height:1.25;font-family:Raleway;-inkscape-font-specification:'Raleway Ultra-Bold';fill:#ffffff;stroke-width:0.264583"
             id="path182450" />
          <path
             d="m 522.47995,-181.56795 q 0,-5.31991 2.96687,-9.30984 2.96688,-3.98994 8.18448,-6.24067 5.21761,-2.35304 11.96981,-2.35304 3.27379,0 6.44527,0.61384 3.17149,0.51153 5.52453,1.53459 v -2.35304 q 0,-4.39916 -2.65996,-6.7522 -2.65995,-2.35303 -8.08217,-2.35303 -4.50147,0 -8.4914,1.53459 -3.88763,1.53459 -8.28679,4.39915 l -4.91068,-10.43521 q 5.31991,-3.4784 11.04904,-5.2176 5.83145,-1.73921 12.27672,-1.73921 12.07211,0 18.722,5.83145 6.7522,5.72913 6.7522,16.67587 v 14.01593 q 0,2.45534 0.71614,3.4784 0.81845,0.92075 2.76226,1.12537 v 13.60669 q -2.04612,0.40923 -3.88763,0.61384 -1.7392,0.20461 -3.06918,0.20461 -4.60377,0 -7.05911,-1.84151 -2.35304,-1.8415 -2.96687,-5.01299 l -0.30692,-2.35304 q -3.58071,4.60377 -8.59371,7.05912 -4.91068,2.35303 -10.3329,2.35303 -5.31991,0 -9.61677,-2.25073 -4.19454,-2.25073 -6.64989,-6.13836 -2.45534,-3.88763 -2.45534,-8.69601 z m 32.53331,2.04612 q 1.12536,-0.92075 1.84151,-2.04612 0.71614,-1.12536 0.71614,-2.14842 v -4.80839 q -2.04612,-0.81844 -4.60377,-1.22767 -2.45535,-0.51153 -4.60377,-0.51153 -4.50147,0 -7.46834,2.04612 -2.96687,1.94382 -2.96687,5.21761 0,1.84151 1.02306,3.3761 1.02306,1.53459 2.76226,2.45534 1.84151,0.92075 4.29685,0.92075 2.45534,0 4.91069,-0.92075 2.45534,-0.92075 4.09224,-2.35304 z m 0.30692,-46.14 q -3.06918,0 -5.31992,-1.12537 -2.25073,-1.22767 -4.09224,-2.35304 -1.8415,-1.22767 -4.19454,-1.22767 -2.25073,0 -3.27379,1.12537 -1.02306,1.12536 -1.32998,2.35303 -0.20461,1.22768 -0.20461,1.43229 h -8.79832 q 0,-1.12537 0.61384,-3.47841 0.71614,-2.45534 2.25073,-4.91068 1.63689,-2.55765 4.09224,-4.29685 2.45534,-1.84151 6.03605,-1.84151 3.27379,0 5.31991,1.22767 2.14843,1.22767 3.98994,2.45534 1.94381,1.22768 4.29685,1.22768 2.45534,0 3.4784,-1.12537 1.12537,-1.22767 1.43229,-2.55765 0.40922,-1.32998 0.40922,-1.43228 h 8.79832 q 0,0.81844 -0.71614,3.17148 -0.71615,2.25073 -2.35304,4.91069 -1.53459,2.55765 -4.09224,4.50146 -2.55765,1.94382 -6.34297,1.94382 z"
             style="font-style:normal;font-variant:normal;font-weight:800;font-stretch:normal;font-size:102.306px;line-height:1.25;font-family:Raleway;-inkscape-font-specification:'Raleway Ultra-Bold';fill:#ffffff;stroke-width:0.264583"
             id="path182452" />
          <path
             d="m 611.38372,-164.48285 q -6.8545,0 -12.27672,-2.25073 -5.31991,-2.25073 -9.00293,-6.13836 -3.68301,-3.88763 -5.62683,-8.90062 -1.84151,-5.01299 -1.84151,-10.53752 0,-5.62683 1.84151,-10.63982 1.94382,-5.013 5.62683,-8.90062 3.68302,-3.88763 9.00293,-6.13836 5.42222,-2.25074 12.27672,-2.25074 6.8545,0 12.17441,2.25074 5.31992,2.25073 9.00293,6.13836 3.68302,3.88762 5.62683,8.90062 1.94382,5.01299 1.94382,10.63982 0,5.52453 -1.94382,10.53752 -1.94381,5.01299 -5.62683,8.90062 -3.68301,3.88763 -9.00293,6.13836 -5.31991,2.25073 -12.17441,2.25073 z m -11.9698,-27.82723 q 0,4.19455 1.53459,7.36603 1.63689,3.17149 4.29685,4.91069 2.65996,1.7392 6.13836,1.7392 3.3761,0 6.03605,-1.7392 2.76227,-1.84151 4.29686,-5.01299 1.53459,-3.17149 1.53459,-7.26373 0,-4.19454 -1.53459,-7.36603 -1.53459,-3.17149 -4.29686,-4.91069 -2.65995,-1.7392 -6.03605,-1.7392 -3.4784,0 -6.13836,1.7392 -2.65996,1.7392 -4.29685,4.91069 -1.53459,3.17149 -1.53459,7.36603 z"
             style="font-style:normal;font-variant:normal;font-weight:800;font-stretch:normal;font-size:102.306px;line-height:1.25;font-family:Raleway;-inkscape-font-specification:'Raleway Ultra-Bold';fill:#ffffff;stroke-width:0.264583"
             id="path182454" />
        </g>
        <g
           id="g182585"
           transform="translate(-724.88482,74.552825)"
           style="fill:#ffffff">
          <path
             d="m 672.05099,-165.50591 v -53.71065 h 16.36896 v 53.71065 z m 0,-59.84901 v -14.83436 h 16.36896 v 14.83436 z"
             style="font-style:normal;font-variant:normal;font-weight:800;font-stretch:normal;font-size:102.306px;line-height:1.25;font-family:Raleway;-inkscape-font-specification:'Raleway Ultra-Bold';fill:#ffffff;stroke-width:0.264583"
             id="path182456" />
          <path
             d="m 784.58747,-165.50591 h -16.36896 v -30.18027 q 0,-5.2176 -1.94381,-7.67295 -1.94382,-2.45534 -5.013,-2.45534 -3.27379,0 -6.44527,2.65996 -3.17149,2.65995 -4.50147,6.8545 v 30.7941 H 733.946 v -30.18027 q 0,-5.31991 -1.94381,-7.67295 -1.94382,-2.45534 -5.013,-2.45534 -3.17148,0 -6.34297,2.65996 -3.17148,2.65995 -4.60377,6.8545 v 30.7941 h -16.36896 v -53.71065 h 14.73207 v 9.00293 q 2.96687,-4.80838 7.97986,-7.36603 5.1153,-2.65996 11.8675,-2.65996 6.64989,0 10.2306,3.17149 3.58071,3.06918 4.60377,7.26373 3.06918,-5.013 8.08217,-7.67295 5.1153,-2.76227 11.45828,-2.76227 5.1153,0 8.28678,1.94382 3.17149,1.84151 4.80838,4.91069 1.6369,3.06918 2.25074,6.64989 0.61383,3.4784 0.61383,6.8545 z"
             style="font-style:normal;font-variant:normal;font-weight:800;font-stretch:normal;font-size:102.306px;line-height:1.25;font-family:Raleway;-inkscape-font-specification:'Raleway Ultra-Bold';fill:#ffffff;stroke-width:0.264583"
             id="path182458" />
          <path
             d="m 829.29515,-164.48285 q -6.03605,0 -10.53752,-2.55765 -4.50146,-2.65995 -7.05911,-7.16142 v 30.48719 h -16.36896 v -75.50183 h 14.22053 v 8.69601 q 2.96688,-4.60377 7.46834,-7.16142 4.50146,-2.55765 10.53752,-2.55765 5.42222,0 9.92368,2.14843 4.60377,2.14843 7.97987,5.93375 3.3761,3.78532 5.2176,8.79831 1.84151,5.013 1.84151,10.84444 0,7.97987 -2.96687,14.32284 -2.96688,6.34297 -8.28679,10.02599 -5.2176,3.68301 -11.9698,3.68301 z m -5.52452,-13.81131 q 2.65995,0 4.80838,-1.12536 2.25073,-1.22767 3.88763,-3.17149 1.63689,-1.94381 2.45534,-4.50146 0.92075,-2.65996 0.92075,-5.52453 0,-2.96687 -1.02306,-5.42221 -0.92075,-2.45535 -2.65995,-4.29686 -1.7392,-1.94381 -4.09224,-2.96687 -2.35304,-1.02306 -5.1153,-1.02306 -1.6369,0 -3.3761,0.51153 -1.6369,0.51153 -3.17149,1.53459 -1.43228,0.92075 -2.65995,2.25073 -1.22767,1.32998 -2.04612,3.06918 v 11.04905 q 1.12536,2.76226 2.96687,4.91069 1.84151,2.14842 4.19455,3.4784 2.35304,1.22767 4.91069,1.22767 z"
             style="font-style:normal;font-variant:normal;font-weight:800;font-stretch:normal;font-size:102.306px;line-height:1.25;font-family:Raleway;-inkscape-font-specification:'Raleway Ultra-Bold';fill:#ffffff;stroke-width:0.264583"
             id="path182460" />
          <path
             d="m 894.87316,-205.20063 q -5.93374,0 -10.74213,1.94381 -4.80838,1.84151 -6.9568,5.52452 v 32.22639 h -16.36896 v -53.71065 h 15.03898 v 10.84444 q 2.76226,-5.42222 7.16142,-8.4914 4.39916,-3.06918 9.20754,-3.17148 1.12536,0 1.63689,0 0.61384,0 1.02306,0.1023 z"
             style="font-style:normal;font-variant:normal;font-weight:800;font-stretch:normal;font-size:102.306px;line-height:1.25;font-family:Raleway;-inkscape-font-specification:'Raleway Ultra-Bold';fill:#ffffff;stroke-width:0.264583"
             id="path182462" />
          <path
             d="m 927.04535,-164.48285 q -6.8545,0 -12.17441,-2.14842 -5.31991,-2.25073 -9.10524,-6.03606 -3.68301,-3.78532 -5.62683,-8.69601 -1.94381,-5.01299 -1.94381,-10.43521 0,-7.77525 3.3761,-14.11823 3.4784,-6.44527 9.92368,-10.3329 6.44528,-3.98994 15.55051,-3.98994 9.10524,0 15.44821,3.88763 6.44528,3.88763 9.82137,10.2306 3.3761,6.24067 3.3761,13.6067 0,1.43228 -0.20461,2.86457 -0.10231,1.32998 -0.20461,2.35304 h -39.69473 q 0.30692,3.58071 1.94381,6.03605 1.73921,2.45534 4.39916,3.78532 2.65996,1.22767 5.62683,1.22767 3.68302,0 6.8545,-1.7392 3.2738,-1.7392 4.50147,-4.70607 l 13.91361,3.88762 q -2.04612,4.19455 -5.83144,7.46834 -3.68301,3.17149 -8.79831,5.013 -5.013,1.8415 -11.15136,1.8415 z m -11.86749,-32.84022 h 23.32576 q -0.40922,-3.3761 -1.94381,-5.83144 -1.53459,-2.55765 -4.09224,-3.88763 -2.55765,-1.43229 -5.62683,-1.43229 -3.17149,0 -5.72914,1.43229 -2.45534,1.32998 -3.98993,3.88763 -1.53459,2.45534 -1.94381,5.83144 z"
             style="font-style:normal;font-variant:normal;font-weight:800;font-stretch:normal;font-size:102.306px;line-height:1.25;font-family:Raleway;-inkscape-font-specification:'Raleway Ultra-Bold';fill:#ffffff;stroke-width:0.264583"
             id="path182464" />
          <path
             d="m 983.72265,-164.48285 q -6.8545,0 -13.40208,-2.25073 -6.54759,-2.25073 -11.04905,-6.64989 l 5.62683,-10.3329 q 4.91069,3.58071 9.51446,5.42221 4.70607,1.84151 8.79831,1.84151 3.17149,0 4.91069,-1.02306 1.7392,-1.02306 1.7392,-3.17148 0,-1.53459 -1.02306,-2.35304 -1.02306,-0.92076 -3.17148,-1.6369 -2.04612,-0.71614 -5.1153,-1.53459 -6.13836,-2.04612 -10.2306,-3.98993 -4.09224,-1.94382 -6.13836,-4.70608 -2.04612,-2.86457 -2.04612,-7.36603 0,-5.42222 2.65995,-9.41215 2.76227,-4.09224 7.77526,-6.34297 5.01299,-2.25074 11.9698,-2.25074 5.52453,0 10.74213,1.73921 5.31987,1.7392 9.92367,5.83144 l -6.34296,10.2306 q -4.60377,-3.17149 -8.18448,-4.60377 -3.58071,-1.43229 -6.95681,-1.43229 -1.7392,0 -3.17148,0.40923 -1.43229,0.40922 -2.35304,1.43228 -0.81845,0.92076 -0.81845,2.45535 0,1.53459 0.81845,2.45534 0.92075,0.92075 2.76226,1.6369 1.94382,0.61383 4.80838,1.53459 6.64989,1.94381 11.04905,3.98993 4.39918,1.94381 6.54758,4.91069 2.2507,2.86457 2.2507,7.67295 0,8.18448 -5.93371,12.89055 -5.83144,4.60377 -15.95974,4.60377 z"
             style="font-style:normal;font-variant:normal;font-weight:800;font-stretch:normal;font-size:102.306px;line-height:1.25;font-family:Raleway;-inkscape-font-specification:'Raleway Ultra-Bold';fill:#ffffff;stroke-width:0.264583"
             id="path182466" />
          <path
             d="m 1034.5687,-164.48285 q -6.8545,0 -13.4021,-2.25073 -6.5475,-2.25073 -11.049,-6.64989 l 5.6268,-10.3329 q 4.9107,3.58071 9.5145,5.42221 4.7061,1.84151 8.7983,1.84151 3.1715,0 4.9107,-1.02306 1.7392,-1.02306 1.7392,-3.17148 0,-1.53459 -1.0231,-2.35304 -1.023,-0.92076 -3.1715,-1.6369 -2.0461,-0.71614 -5.1153,-1.53459 -6.1383,-2.04612 -10.2306,-3.98993 -4.0922,-1.94382 -6.1383,-4.70608 -2.0461,-2.86457 -2.0461,-7.36603 0,-5.42222 2.6599,-9.41215 2.7623,-4.09224 7.7753,-6.34297 5.013,-2.25074 11.9698,-2.25074 5.5245,0 10.7421,1.73921 5.3199,1.7392 9.9237,5.83144 l -6.343,10.2306 q -4.6038,-3.17149 -8.1845,-4.60377 -3.5807,-1.43229 -6.9568,-1.43229 -1.7392,0 -3.1715,0.40923 -1.4322,0.40922 -2.353,1.43228 -0.8184,0.92076 -0.8184,2.45535 0,1.53459 0.8184,2.45534 0.9208,0.92075 2.7623,1.6369 1.9438,0.61383 4.8083,1.53459 6.6499,1.94381 11.0491,3.98993 4.3991,1.94381 6.5476,4.91069 2.2507,2.86457 2.2507,7.67295 0,8.18448 -5.9337,12.89055 -5.8315,4.60377 -15.9598,4.60377 z"
             style="font-style:normal;font-variant:normal;font-weight:800;font-stretch:normal;font-size:102.306px;line-height:1.25;font-family:Raleway;-inkscape-font-specification:'Raleway Ultra-Bold';fill:#ffffff;stroke-width:0.264583"
             id="path182468" />
          <path
             d="m 1064.8513,-165.50591 v -53.71065 h 16.3689 v 53.71065 z m 0,-59.84901 v -14.83436 h 16.3689 v 14.83436 z"
             style="font-style:normal;font-variant:normal;font-weight:800;font-stretch:normal;font-size:102.306px;line-height:1.25;font-family:Raleway;-inkscape-font-specification:'Raleway Ultra-Bold';fill:#ffffff;stroke-width:0.264583"
             id="path182470" />
          <path
             d="m 1118.0502,-164.48285 q -6.8545,0 -12.2767,-2.25073 -5.3199,-2.25073 -9.0029,-6.13836 -3.683,-3.88763 -5.6269,-8.90062 -1.8415,-5.01299 -1.8415,-10.53752 0,-5.62683 1.8415,-10.63982 1.9439,-5.013 5.6269,-8.90062 3.683,-3.88763 9.0029,-6.13836 5.4222,-2.25074 12.2767,-2.25074 6.8545,0 12.1744,2.25074 5.3199,2.25073 9.003,6.13836 3.683,3.88762 5.6268,8.90062 1.9438,5.01299 1.9438,10.63982 0,5.52453 -1.9438,10.53752 -1.9438,5.01299 -5.6268,8.90062 -3.6831,3.88763 -9.003,6.13836 -5.3199,2.25073 -12.1744,2.25073 z m -11.9698,-27.82723 q 0,4.19455 1.5346,7.36603 1.6369,3.17149 4.2969,4.91069 2.6599,1.7392 6.1383,1.7392 3.3761,0 6.0361,-1.7392 2.7622,-1.84151 4.2968,-5.01299 1.5346,-3.17149 1.5346,-7.26373 0,-4.19454 -1.5346,-7.36603 -1.5346,-3.17149 -4.2968,-4.91069 -2.66,-1.7392 -6.0361,-1.7392 -3.4784,0 -6.1383,1.7392 -2.66,1.7392 -4.2969,4.91069 -1.5346,3.17149 -1.5346,7.36603 z"
             style="font-style:normal;font-variant:normal;font-weight:800;font-stretch:normal;font-size:102.306px;line-height:1.25;font-family:Raleway;-inkscape-font-specification:'Raleway Ultra-Bold';fill:#ffffff;stroke-width:0.264583"
             id="path182472" />
          <path
             d="m 1206.6471,-165.50591 h -16.369 v -30.18027 q 0,-5.31991 -2.0461,-7.67295 -1.9438,-2.45534 -5.2176,-2.45534 -2.2508,0 -4.6038,1.22767 -2.353,1.22767 -4.2969,3.3761 -1.8415,2.14843 -2.8645,4.91069 v 30.7941 h -16.369 v -53.71065 h 14.7321 v 9.00293 q 2.0461,-3.17148 5.1153,-5.42222 3.0692,-2.25073 7.0591,-3.37609 3.9899,-1.22768 8.696,-1.22768 5.2176,0 8.3891,1.94382 3.2738,1.84151 4.9107,4.91069 1.7392,3.06918 2.2507,6.64989 0.6139,3.4784 0.6139,6.8545 z"
             style="font-style:normal;font-variant:normal;font-weight:800;font-stretch:normal;font-size:102.306px;line-height:1.25;font-family:Raleway;-inkscape-font-specification:'Raleway Ultra-Bold';fill:#ffffff;stroke-width:0.264583"
             id="path182474" />
          <path
             d="m 1214.1153,-181.56795 q 0,-5.31991 2.9669,-9.30984 2.9669,-3.98994 8.1845,-6.24067 5.2176,-2.35304 11.9698,-2.35304 3.2738,0 6.4453,0.61384 3.1714,0.51153 5.5245,1.53459 v -2.35304 q 0,-4.39916 -2.66,-6.7522 -2.6599,-2.35303 -8.0821,-2.35303 -4.5015,0 -8.4914,1.53459 -3.8877,1.53459 -8.2868,4.39915 l -4.9107,-10.43521 q 5.3199,-3.4784 11.049,-5.2176 5.8315,-1.73921 12.2767,-1.73921 12.0722,0 18.722,5.83145 6.7522,5.72913 6.7522,16.67587 v 14.01593 q 0,2.45534 0.7162,3.4784 0.8184,0.92075 2.7622,1.12537 v 13.60669 q -2.0461,0.40923 -3.8876,0.61384 -1.7392,0.20461 -3.0692,0.20461 -4.6037,0 -7.0591,-1.84151 -2.353,-1.8415 -2.9668,-5.01299 l -0.307,-2.35304 q -3.5807,4.60377 -8.5937,7.05912 -4.9107,2.35303 -10.3329,2.35303 -5.3199,0 -9.6167,-2.25073 -4.1946,-2.25073 -6.6499,-6.13836 -2.4554,-3.88763 -2.4554,-8.69601 z m 32.5333,2.04612 q 1.1254,-0.92075 1.8415,-2.04612 0.7162,-1.12536 0.7162,-2.14842 v -4.80839 q -2.0461,-0.81844 -4.6038,-1.22767 -2.4553,-0.51153 -4.6038,-0.51153 -4.5014,0 -7.4683,2.04612 -2.9669,1.94382 -2.9669,5.21761 0,1.84151 1.0231,3.3761 1.0231,1.53459 2.7623,2.45534 1.8415,0.92075 4.2968,0.92075 2.4553,0 4.9107,-0.92075 2.4553,-0.92075 4.0922,-2.35304 z"
             style="font-style:normal;font-variant:normal;font-weight:800;font-stretch:normal;font-size:102.306px;line-height:1.25;font-family:Raleway;-inkscape-font-specification:'Raleway Ultra-Bold';fill:#ffffff;stroke-width:0.264583"
             id="path182476" />
          <path
             d="m 1329.2094,-165.50591 h -16.3689 v -30.18027 q 0,-5.31991 -2.0461,-7.67295 -1.9439,-2.45534 -5.2177,-2.45534 -2.2507,0 -4.6037,1.22767 -2.3531,1.22767 -4.2969,3.3761 -1.8415,2.14843 -2.8645,4.91069 v 30.7941 h -16.369 v -53.71065 h 14.7321 v 9.00293 q 2.0461,-3.17148 5.1153,-5.42222 3.0691,-2.25073 7.0591,-3.37609 3.9899,-1.22768 8.696,-1.22768 5.2176,0 8.3891,1.94382 3.2738,1.84151 4.9107,4.91069 1.7392,3.06918 2.2507,6.64989 0.6138,3.4784 0.6138,6.8545 z"
             style="font-style:normal;font-variant:normal;font-weight:800;font-stretch:normal;font-size:102.306px;line-height:1.25;font-family:Raleway;-inkscape-font-specification:'Raleway Ultra-Bold';fill:#ffffff;stroke-width:0.264583"
             id="path182478" />
          <path
             d="m 1374.6872,-168.37047 q -2.2507,0.92075 -5.013,1.8415 -2.6599,0.92076 -5.6268,1.43229 -2.9669,0.61383 -5.8315,0.61383 -4.0922,0 -7.5706,-1.32997 -3.3761,-1.43229 -5.4222,-4.60377 -1.9438,-3.17149 -1.9438,-8.3891 v -28.03184 h -6.8545 v -12.37903 h 6.8545 v -17.0851 h 16.3689 v 17.0851 h 10.9468 v 12.37903 h -10.9468 v 22.40501 q 0,2.65996 1.33,3.88763 1.33,1.12537 3.3761,1.12537 1.7392,0 3.683,-0.61384 2.0461,-0.61383 3.4784,-1.32998 z"
             style="font-style:normal;font-variant:normal;font-weight:800;font-stretch:normal;font-size:102.306px;line-height:1.25;font-family:Raleway;-inkscape-font-specification:'Raleway Ultra-Bold';fill:#ffffff;stroke-width:0.264583"
             id="path182480" />
          <path
             d="m 1406.0649,-164.48285 q -6.8545,0 -12.1744,-2.14842 -5.3199,-2.25073 -9.1053,-6.03606 -3.683,-3.78532 -5.6268,-8.69601 -1.9438,-5.01299 -1.9438,-10.43521 0,-7.77525 3.3761,-14.11823 3.4784,-6.44527 9.9237,-10.3329 6.4452,-3.98994 15.5505,-3.98994 9.1052,0 15.4482,3.88763 6.4453,3.88763 9.8214,10.2306 3.3761,6.24067 3.3761,13.6067 0,1.43228 -0.2046,2.86457 -0.1024,1.32998 -0.2047,2.35304 h -39.6947 q 0.3069,3.58071 1.9438,6.03605 1.7392,2.45534 4.3992,3.78532 2.6599,1.22767 5.6268,1.22767 3.683,0 6.8545,-1.7392 3.2738,-1.7392 4.5015,-4.70607 l 13.9136,3.88762 q -2.0461,4.19455 -5.8314,7.46834 -3.6831,3.17149 -8.7984,5.013 -5.013,1.8415 -11.1513,1.8415 z m -11.8675,-32.84022 h 23.3258 q -0.4093,-3.3761 -1.9439,-5.83144 -1.5345,-2.55765 -4.0922,-3.88763 -2.5576,-1.43229 -5.6268,-1.43229 -3.1715,0 -5.7292,1.43229 -2.4553,1.32998 -3.9899,3.88763 -1.5346,2.45534 -1.9438,5.83144 z"
             style="font-style:normal;font-variant:normal;font-weight:800;font-stretch:normal;font-size:102.306px;line-height:1.25;font-family:Raleway;-inkscape-font-specification:'Raleway Ultra-Bold';fill:#ffffff;stroke-width:0.264583"
             id="path182482" />
        </g>
        <path
           d="m 158.12024,-16.78311 q -5.41201,0 -9.61236,-1.696298 -4.20036,-1.777076 -7.18915,-4.765805 -2.90793,-2.988721 -4.44267,-6.865985 -1.53474,-3.958035 -1.53474,-8.23918 0,-6.138993 2.66562,-11.147129 2.74639,-5.0889 7.83532,-8.1584 5.08892,-3.15028 12.27798,-3.15028 7.18907,0 12.19722,3.0695 5.08892,3.069501 7.75454,8.077629 2.66562,4.927357 2.66562,10.743248 0,1.130865 -0.16154,2.261738 -0.0808,1.050093 -0.16163,1.857856 h -31.34117 q 0.24231,2.82717 1.53474,4.765798 1.37319,1.938627 3.47341,2.988721 2.10014,0.969314 4.44267,0.969314 2.90794,0 5.41201,-1.373196 2.58485,-1.373195 3.55419,-3.715704 l 10.98556,3.069492 q -1.61551,3.311831 -4.60422,5.896671 -2.90801,2.504068 -6.94682,3.958043 -3.95805,1.453967 -8.80458,1.453967 z m -9.37005,-25.929184 h 18.41702 q -0.32317,-2.665619 -1.53482,-4.604247 -1.21157,-2.019407 -3.23102,-3.0695 -2.01936,-1.130873 -4.44267,-1.130873 -2.50408,0 -4.52352,1.130873 -1.9386,1.050093 -3.15025,3.0695 -1.21165,1.938628 -1.53474,4.604247 z"
           style="font-style:normal;font-variant:normal;font-weight:800;font-stretch:normal;font-size:102.306px;line-height:1.25;font-family:Raleway;-inkscape-font-specification:'Raleway Ultra-Bold';fill:#ffffff;stroke-width:0.208903"
           id="path182484" />
        <g
           id="g182569"
           transform="matrix(0.77902118,0,0,0.77902118,-998.95921,112.03446)"
           style="fill:#ffffff">
          <path
             d="m 1551.646,-165.50591 v -53.71065 h 16.3689 v 53.71065 z m 0,-59.84901 v -14.83436 h 16.3689 v 14.83436 z"
             style="font-style:normal;font-variant:normal;font-weight:800;font-stretch:normal;font-size:102.306px;line-height:1.25;font-family:Raleway;-inkscape-font-specification:'Raleway Ultra-Bold';fill:#ffffff;stroke-width:0.264583"
             id="path182486" />
          <path
             d="m 1631.0352,-165.50591 h -16.3689 v -30.18027 q 0,-5.31991 -2.0461,-7.67295 -1.9439,-2.45534 -5.2176,-2.45534 -2.2508,0 -4.6038,1.22767 -2.3531,1.22767 -4.2969,3.3761 -1.8415,2.14843 -2.8645,4.91069 v 30.7941 h -16.369 v -53.71065 h 14.7321 v 9.00293 q 2.0461,-3.17148 5.1153,-5.42222 3.0691,-2.25073 7.0591,-3.37609 3.9899,-1.22768 8.696,-1.22768 5.2176,0 8.3891,1.94382 3.2738,1.84151 4.9107,4.91069 1.7392,3.06918 2.2507,6.64989 0.6138,3.4784 0.6138,6.8545 z"
             style="font-style:normal;font-variant:normal;font-weight:800;font-stretch:normal;font-size:102.306px;line-height:1.25;font-family:Raleway;-inkscape-font-specification:'Raleway Ultra-Bold';fill:#ffffff;stroke-width:0.264583"
             id="path182488" />
          <path
             d="m 1667.5584,-164.48285 q -6.8545,0 -12.1744,-2.14842 -5.3199,-2.25073 -9.1052,-6.03606 -3.6831,-3.78532 -5.6269,-8.69601 -1.9438,-5.01299 -1.9438,-10.43521 0,-7.77525 3.3761,-14.11823 3.4784,-6.44527 9.9237,-10.3329 6.4453,-3.98994 15.5505,-3.98994 9.1052,0 15.4482,3.88763 6.4453,3.88763 9.8214,10.2306 3.3761,6.24067 3.3761,13.6067 0,1.43228 -0.2046,2.86457 -0.1023,1.32998 -0.2046,2.35304 h -39.6948 q 0.307,3.58071 1.9439,6.03605 1.7392,2.45534 4.3991,3.78532 2.66,1.22767 5.6268,1.22767 3.6831,0 6.8545,-1.7392 3.2738,-1.7392 4.5015,-4.70607 l 13.9136,3.88762 q -2.0461,4.19455 -5.8314,7.46834 -3.683,3.17149 -8.7983,5.013 -5.013,1.8415 -11.1514,1.8415 z m -11.8675,-32.84022 h 23.3258 q -0.4092,-3.3761 -1.9438,-5.83144 -1.5346,-2.55765 -4.0923,-3.88763 -2.5576,-1.43229 -5.6268,-1.43229 -3.1715,0 -5.7291,1.43229 -2.4554,1.32998 -3.99,3.88763 -1.5346,2.45534 -1.9438,5.83144 z"
             style="font-style:normal;font-variant:normal;font-weight:800;font-stretch:normal;font-size:102.306px;line-height:1.25;font-family:Raleway;-inkscape-font-specification:'Raleway Ultra-Bold';fill:#ffffff;stroke-width:0.264583"
             id="path182490" />
          <path
             d="m 1724.2358,-164.48285 q -6.8545,0 -13.402,-2.25073 -6.5476,-2.25073 -11.0491,-6.64989 l 5.6268,-10.3329 q 4.9107,3.58071 9.5145,5.42221 4.7061,1.84151 8.7983,1.84151 3.1715,0 4.9107,-1.02306 1.7392,-1.02306 1.7392,-3.17148 0,-1.53459 -1.0231,-2.35304 -1.023,-0.92076 -3.1714,-1.6369 -2.0462,-0.71614 -5.1153,-1.53459 -6.1384,-2.04612 -10.2306,-3.98993 -4.0923,-1.94382 -6.1384,-4.70608 -2.0461,-2.86457 -2.0461,-7.36603 0,-5.42222 2.6599,-9.41215 2.7623,-4.09224 7.7753,-6.34297 5.013,-2.25074 11.9698,-2.25074 5.5245,0 10.7421,1.73921 5.3199,1.7392 9.9237,5.83144 l -6.343,10.2306 q -4.6037,-3.17149 -8.1845,-4.60377 -3.5807,-1.43229 -6.9568,-1.43229 -1.7392,0 -3.1714,0.40923 -1.4323,0.40922 -2.3531,1.43228 -0.8184,0.92076 -0.8184,2.45535 0,1.53459 0.8184,2.45534 0.9208,0.92075 2.7623,1.6369 1.9438,0.61383 4.8084,1.53459 6.6498,1.94381 11.049,3.98993 4.3992,1.94381 6.5476,4.91069 2.2507,2.86457 2.2507,7.67295 0,8.18448 -5.9337,12.89055 -5.8315,4.60377 -15.9598,4.60377 z"
             style="font-style:normal;font-variant:normal;font-weight:800;font-stretch:normal;font-size:102.306px;line-height:1.25;font-family:Raleway;-inkscape-font-specification:'Raleway Ultra-Bold';fill:#ffffff;stroke-width:0.264583"
             id="path182492" />
          <path
             d="m 1774.7749,-164.48285 q -5.1153,0 -9.4122,-2.14842 -4.1945,-2.14843 -7.366,-5.93375 -3.0692,-3.78532 -4.8084,-8.90062 -1.6369,-5.1153 -1.6369,-11.04905 0,-5.93375 1.8415,-10.94674 1.8415,-5.013 5.2176,-8.79832 3.4784,-3.78532 7.9799,-5.83144 4.6038,-2.14843 9.9237,-2.14843 6.036,0 10.5375,2.65996 4.5015,2.65996 7.4683,7.16142 v -8.79832 h 14.2206 v 75.60414 h -16.369 v -30.5895 q -5.4222,9.71907 -17.5966,9.71907 z m 6.2406,-13.81131 q 2.3531,0 4.3992,-0.92075 2.1484,-0.92075 3.8876,-2.55765 1.7392,-1.6369 3.0692,-3.78532 v -11.35597 q -0.6138,-1.94381 -1.8415,-3.68301 -1.2277,-1.73921 -2.8646,-3.06918 -1.6369,-1.32998 -3.4784,-1.94382 -1.8415,-0.71614 -3.683,-0.71614 -2.7623,0 -5.013,1.12537 -2.1484,1.12536 -3.7853,3.17148 -1.6369,1.94382 -2.5577,4.50147 -0.9207,2.55765 -0.9207,5.42221 0,3.98994 1.6369,7.05912 1.6369,3.06918 4.5014,4.91069 2.8646,1.8415 6.6499,1.8415 z"
             style="font-style:normal;font-variant:normal;font-weight:800;font-stretch:normal;font-size:102.306px;line-height:1.25;font-family:Raleway;-inkscape-font-specification:'Raleway Ultra-Bold';fill:#ffffff;stroke-width:0.264583"
             id="path182494" />
          <path
             d="m 1819.4826,-184.84174 v -34.37482 h 16.3689 v 30.79411 q 0,4.91069 1.9439,7.57064 1.9438,2.55765 5.5245,2.55765 2.2507,0 4.2968,-0.71614 2.0461,-0.81845 3.99,-2.55765 1.9438,-1.7392 3.4784,-4.50146 v -33.14715 h 16.3689 v 35.50019 q 0,2.45534 0.7162,3.4784 0.8184,0.92075 2.7622,1.12537 v 13.60669 q -2.2507,0.40923 -3.9899,0.61384 -1.6369,0.20461 -2.9669,0.20461 -4.2968,0 -6.8545,-1.7392 -2.5576,-1.84151 -3.1715,-5.1153 l -0.3069,-3.27379 q -3.683,5.31991 -9.2075,7.87756 -5.4222,2.45534 -12.1744,2.45534 -8.1845,0 -12.4814,-5.2176 -4.2968,-5.21761 -4.2968,-15.14129 z"
             style="font-style:normal;font-variant:normal;font-weight:800;font-stretch:normal;font-size:102.306px;line-height:1.25;font-family:Raleway;-inkscape-font-specification:'Raleway Ultra-Bold';fill:#ffffff;stroke-width:0.264583"
             id="path182496" />
          <path
             d="m 1909.8187,-164.48285 q -6.8545,0 -12.1744,-2.14842 -5.32,-2.25073 -9.1053,-6.03606 -3.683,-3.78532 -5.6268,-8.69601 -1.9438,-5.01299 -1.9438,-10.43521 0,-7.77525 3.3761,-14.11823 3.4784,-6.44527 9.9237,-10.3329 6.4452,-3.98994 15.5505,-3.98994 9.1052,0 15.4482,3.88763 6.4453,3.88763 9.8213,10.2306 3.3761,6.24067 3.3761,13.6067 0,1.43228 -0.2046,2.86457 -0.1023,1.32998 -0.2046,2.35304 h -39.6947 q 0.3069,3.58071 1.9438,6.03605 1.7392,2.45534 4.3992,3.78532 2.6599,1.22767 5.6268,1.22767 3.683,0 6.8545,-1.7392 3.2738,-1.7392 4.5015,-4.70607 l 13.9136,3.88762 q -2.0461,4.19455 -5.8315,7.46834 -3.683,3.17149 -8.7983,5.013 -5.013,1.8415 -11.1513,1.8415 z m -11.8675,-32.84022 h 23.3257 q -0.4092,-3.3761 -1.9438,-5.83144 -1.5346,-2.55765 -4.0922,-3.88763 -2.5577,-1.43229 -5.6268,-1.43229 -3.1715,0 -5.7292,1.43229 -2.4553,1.32998 -3.9899,3.88763 -1.5346,2.45534 -1.9438,5.83144 z"
             style="font-style:normal;font-variant:normal;font-weight:800;font-stretch:normal;font-size:102.306px;line-height:1.25;font-family:Raleway;-inkscape-font-specification:'Raleway Ultra-Bold';fill:#ffffff;stroke-width:0.264583"
             id="path182498" />
          <path
             d="m 1971.6114,-164.48285 q -6.8545,0 -12.1744,-2.25073 -5.3199,-2.25073 -9.1053,-6.13836 -3.683,-3.88763 -5.6268,-8.90062 -1.9438,-5.01299 -1.9438,-10.63982 0,-7.36604 3.3761,-13.70901 3.4784,-6.34297 9.9237,-10.2306 6.4453,-3.88763 15.5505,-3.88763 9.2075,0 15.5505,3.98994 6.4453,3.88763 9.6168,10.2306 l -15.9598,4.80838 q -1.5346,-2.45534 -3.9899,-3.78532 -2.353,-1.32998 -5.3199,-1.32998 -3.3761,0 -6.1384,1.7392 -2.6599,1.7392 -4.2968,4.80838 -1.5346,3.06918 -1.5346,7.36604 0,4.19454 1.6369,7.36603 1.6369,3.17148 4.2968,5.01299 2.66,1.7392 6.0361,1.7392 2.0461,0 3.7853,-0.61383 1.8415,-0.71614 3.2738,-1.94382 1.5346,-1.22767 2.353,-2.76226 l 15.9598,4.91069 q -1.9438,4.09224 -5.6269,7.36603 -3.5807,3.17149 -8.4914,5.013 -4.9106,1.8415 -11.1513,1.8415 z"
             style="font-style:normal;font-variant:normal;font-weight:800;font-stretch:normal;font-size:102.306px;line-height:1.25;font-family:Raleway;-inkscape-font-specification:'Raleway Ultra-Bold';fill:#ffffff;stroke-width:0.264583"
             id="path182500" />
          <path
             d="m 2004.2468,-165.50591 v -53.71065 h 16.369 v 53.71065 z m 13.5044,-58.51903 -10.4352,-2.86457 5.3199,-13.29977 h 14.8344 z"
             style="font-style:normal;font-variant:normal;font-weight:800;font-stretch:normal;font-size:102.306px;line-height:1.25;font-family:Raleway;-inkscape-font-specification:'Raleway Ultra-Bold';fill:#ffffff;stroke-width:0.264583"
             id="path182502" />
          <path
             d="m 2045.783,-165.50591 -19.0289,-53.71065 h 16.8804 l 11.7652,38.97859 11.7652,-38.97859 h 15.3459 l -18.9266,53.71065 z"
             style="font-style:normal;font-variant:normal;font-weight:800;font-stretch:normal;font-size:102.306px;line-height:1.25;font-family:Raleway;-inkscape-font-specification:'Raleway Ultra-Bold';fill:#ffffff;stroke-width:0.264583"
             id="path182504" />
          <path
             d="m 2112.5887,-164.48285 q -6.8545,0 -12.1744,-2.14842 -5.3199,-2.25073 -9.1053,-6.03606 -3.683,-3.78532 -5.6268,-8.69601 -1.9438,-5.01299 -1.9438,-10.43521 0,-7.77525 3.3761,-14.11823 3.4784,-6.44527 9.9237,-10.3329 6.4453,-3.98994 15.5505,-3.98994 9.1052,0 15.4482,3.88763 6.4453,3.88763 9.8214,10.2306 3.3761,6.24067 3.3761,13.6067 0,1.43228 -0.2046,2.86457 -0.1024,1.32998 -0.2047,2.35304 h -39.6947 q 0.3069,3.58071 1.9438,6.03605 1.7392,2.45534 4.3992,3.78532 2.6599,1.22767 5.6268,1.22767 3.683,0 6.8545,-1.7392 3.2738,-1.7392 4.5015,-4.70607 l 13.9136,3.88762 q -2.0461,4.19455 -5.8314,7.46834 -3.6831,3.17149 -8.7984,5.013 -5.013,1.8415 -11.1513,1.8415 z m -11.8675,-32.84022 h 23.3258 q -0.4093,-3.3761 -1.9439,-5.83144 -1.5345,-2.55765 -4.0922,-3.88763 -2.5576,-1.43229 -5.6268,-1.43229 -3.1715,0 -5.7292,1.43229 -2.4553,1.32998 -3.9899,3.88763 -1.5346,2.45534 -1.9438,5.83144 z"
             style="font-style:normal;font-variant:normal;font-weight:800;font-stretch:normal;font-size:102.306px;line-height:1.25;font-family:Raleway;-inkscape-font-specification:'Raleway Ultra-Bold';fill:#ffffff;stroke-width:0.264583"
             id="path182506" />
          <path
             d="m 2148.4977,-240.18928 h 16.369 v 55.55215 q 0,3.3761 1.2277,4.80838 1.2277,1.43229 3.4784,1.43229 1.5346,0 3.0692,-0.40923 1.6369,-0.51153 2.8645,-1.12536 l 2.1485,12.27672 q -3.0692,1.43228 -7.0592,2.25073 -3.9899,0.81845 -7.4683,0.81845 -6.9568,0 -10.8444,-3.68302 -3.7854,-3.78532 -3.7854,-10.63982 z"
             style="font-style:normal;font-variant:normal;font-weight:800;font-stretch:normal;font-size:102.306px;line-height:1.25;font-family:Raleway;-inkscape-font-specification:'Raleway Ultra-Bold';fill:#ffffff;stroke-width:0.264583"
             id="path182508" />
          <path
             d="m 2186.1463,-194.3562 v -44.50311 h 16.369 v 44.50311 z m 0,28.85029 v -16.98279 h 16.369 v 16.98279 z"
             style="font-style:normal;font-variant:normal;font-weight:800;font-stretch:normal;font-size:102.306px;line-height:1.25;font-family:Raleway;-inkscape-font-specification:'Raleway Ultra-Bold';fill:#ffffff;stroke-width:0.264583"
             id="path182510" />
        </g>
      </g>
    </g>
  </g>
</svg>
