<?xml version="1.0" encoding="UTF-8" standalone="no"?>
<svg
   xmlns:dc="http://purl.org/dc/elements/1.1/"
   xmlns:cc="http://creativecommons.org/ns#"
   xmlns:rdf="http://www.w3.org/1999/02/22-rdf-syntax-ns#"
   xmlns:svg="http://www.w3.org/2000/svg"
   xmlns="http://www.w3.org/2000/svg"
   xmlns:sodipodi="http://sodipodi.sourceforge.net/DTD/sodipodi-0.dtd"
   xmlns:inkscape="http://www.inkscape.org/namespaces/inkscape"
   width="555.39185mm"
   height="323.79941mm"
   viewBox="0 0 555.39185 323.79941"
   version="1.1"
   id="svg136386"
   inkscape:version="1.0.1 (3bc2e81, 2020-09-07)"
   sodipodi:docname="SlideNIXY03.svg"
   inkscape:export-filename="/media/mint/3E15-0885/aaaawork/NEW website JAN2021/media/SVG/SlideNIXY03B.png"
   inkscape:export-xdpi="96"
   inkscape:export-ydpi="96">
  <defs
     id="defs136380">
    <radialGradient
       id="SVGID_3_"
       cx="718.95697"
       cy="807.1582"
       r="437.1665"
       gradientTransform="matrix(0.63847694,0,0,0.07013254,-548.92965,265.73923)"
       gradientUnits="userSpaceOnUse">
      <stop
         offset="0"
         style="stop-color:#000000"
         id="stop136943" />
      <stop
         offset="0.1009"
         style="stop-color:#050505;stop-opacity:0.8991"
         id="stop136945" />
      <stop
         offset="0.2247"
         style="stop-color:#141414;stop-opacity:0.7753"
         id="stop136947" />
      <stop
         offset="0.3603"
         style="stop-color:#2D2D2D;stop-opacity:0.6397"
         id="stop136949" />
      <stop
         offset="0.5046"
         style="stop-color:#505050;stop-opacity:0.4954"
         id="stop136951" />
      <stop
         offset="0.6556"
         style="stop-color:#7D7D7D;stop-opacity:0.3444"
         id="stop136953" />
      <stop
         offset="0.8123"
         style="stop-color:#B3B3B3;stop-opacity:0.1877"
         id="stop136955" />
      <stop
         offset="0.9708"
         style="stop-color:#F2F2F2;stop-opacity:0.0292"
         id="stop136957" />
      <stop
         offset="1"
         style="stop-color:#FFFFFF;stop-opacity:0"
         id="stop136959" />
    </radialGradient>
    <linearGradient
       id="SVGID_4_"
       gradientUnits="userSpaceOnUse"
       x1="45.7808"
       y1="127.8232"
       x2="293.7796"
       y2="309.8226"
       gradientTransform="matrix(0.4669277,0,0,0.4669277,-421.74746,-54.543287)">
      <stop
         offset="0"
         style="stop-color:#9DC6E4;stop-opacity:0"
         id="stop136966" />
      <stop
         offset="1"
         style="stop-color:#9DC6E4"
         id="stop136968" />
    </linearGradient>
    <linearGradient
       id="SVGID_5_"
       gradientUnits="userSpaceOnUse"
       x1="910.89258"
       y1="685.66992"
       x2="854.57831"
       y2="581.61078"
       gradientTransform="matrix(0.4669277,0,0,0.4669277,-421.74746,-54.543287)">
      <stop
         offset="0"
         style="stop-color:#9DC6E4;stop-opacity:0"
         id="stop136975" />
      <stop
         offset="1"
         style="stop-color:#9DC6E4"
         id="stop136977" />
    </linearGradient>
    <clipPath
       clipPathUnits="userSpaceOnUse"
       id="clipPath1466">
      <path
         d="m 1494.76,1620.06 h -110.15 c -8.11,0 -14.68,-6.57 -14.68,-14.69 v -110.15 c 0,-8.11 6.57,-14.68 14.68,-14.68 h 110.15 c 8.11,0 14.69,6.57 14.69,14.68 v 110.15 c 0,8.12 -6.58,14.69 -14.69,14.69 z"
         id="path1464" />
    </clipPath>
    <clipPath
       clipPathUnits="userSpaceOnUse"
       id="clipPath1482">
      <path
         d="m 1550.23,1363.4 h -192.98 c -14.21,0 -25.73,-11.52 -25.73,-25.73 v -192.98 c 0,-14.21 11.52,-25.72 25.73,-25.72 h 192.98 c 14.21,0 25.73,11.51 25.73,25.72 v 192.98 c 0,14.21 -11.52,25.73 -25.73,25.73 z"
         id="path1480" />
    </clipPath>
    <clipPath
       clipPathUnits="userSpaceOnUse"
       id="clipPath1498">
      <path
         d="m 1700.37,1542.21 h -179.3 v -56.16 c 0,-9.47 -7.67,-17.13 -17.13,-17.13 h -58.97 v -92.93 h 115.2 c 15.67,0 28.37,-12.71 28.37,-28.38 v -90.85 h 111.83 c 16.59,0 30.05,13.46 30.05,30.05 v 225.36 c 0,16.59 -13.46,30.04 -30.05,30.04 z"
         id="path1496" />
    </clipPath>
  </defs>
  <sodipodi:namedview
     id="base"
     pagecolor="#ffffff"
     bordercolor="#666666"
     borderopacity="1.0"
     inkscape:pageopacity="0.0"
     inkscape:pageshadow="2"
     inkscape:zoom="0.24748737"
     inkscape:cx="799.36469"
     inkscape:cy="621.50397"
     inkscape:document-units="mm"
     inkscape:current-layer="layer1"
     inkscape:document-rotation="0"
     showgrid="false"
     inkscape:window-width="1366"
     inkscape:window-height="720"
     inkscape:window-x="0"
     inkscape:window-y="24"
     inkscape:window-maximized="1" />
  <metadata
     id="metadata136383">
    <rdf:RDF>
      <cc:Work
         rdf:about="">
        <dc:format>image/svg+xml</dc:format>
        <dc:type
           rdf:resource="http://purl.org/dc/dcmitype/StillImage" />
        <dc:title />
      </cc:Work>
    </rdf:RDF>
  </metadata>
  <g
     inkscape:label="Layer 1"
     inkscape:groupmode="layer"
     id="layer1"
     transform="translate(371.34028,-8.5204351)">
    <rect
       x="-371.34027"
       y="8.5204372"
       fill="#fdfffa"
       width="555.39178"
       height="321.72253"
       id="rect136964"
       style="stroke-width:0.466928" />
    <path
       opacity="0.16"
       fill="url(#SVGID_4_)"
       d="m -204.18483,8.5204351 c -10.3051,14.4233969 -24.90126,29.2623589 -43.50366,34.4826109 -40.15578,11.276304 -66.45315,49.228187 -83.18784,83.015074 -10.03894,20.26933 -23.7993,33.5721 -40.46395,41.02427 V 8.5204351 Z"
       id="path136971"
       style="fill:url(#SVGID_4_);stroke-width:0.466928" />
    <path
       fill="#6c9ed1"
       d="m 184.05107,104.74327 c 0,0 -67.32213,-24.853534 -103.946973,35.25327 -11.438794,41.23905 -123.395917,-1.44188 -164.155437,79.41272 -48.22616,95.66555 -151.55913,70.05597 -189.70992,112.91013 h 457.8128 l -4.7e-4,-195.50357 z"
       id="path136973"
       style="stroke-width:0.466928"
       sodipodi:nodetypes="ccccccc" />
    <path
       fill="url(#SVGID_5_)"
       d="M 184.05107,332.31939 V 136.81582 c -0.27688,0.0355 -0.55517,0.0588 -0.8372,0.0635 -9.55147,0.15548 -18.39648,-0.66117 -27.9134,1.3158 -10.58385,2.19829 -20.78015,6.31566 -29.84369,12.2195 -26.529426,17.28146 -42.926526,48.39985 -71.76865,61.46076 -18.464189,8.36127 -39.4708,8.09419 -59.5813757,10.6268 -10.7197263,1.35036 -21.5108923,3.59768 -31.0231433,8.72128 -24.304521,13.09032 -35.868452,42.13929 -58.508375,57.93499 -26.575186,18.5417 -62.535626,15.28021 -92.668806,27.19667 -8.58727,3.39596 -17.12831,8.65684 -22.4144,15.96472 h 394.55904 z"
       id="path136980"
       style="fill:url(#SVGID_5_);stroke-width:0.466928" />
    <path
       fill="#578ec7"
       d="M 184.05107,184.21366 V 309.83542 H -1.7954882 c 0,0 0.7228041,-13.4069 13.7463512,-12.63273 0,0 3.499156,-17.25345 24.463276,-15.7308 0,0 1.317203,-17.69562 18.80598,-17.66854 0,0 -0.375409,-24.36289 25.630129,-24.71122 0,0 3.190517,-33.85739 56.060272,-33.30455 0,0 4.12858,-20.32209 47.14055,-21.57392 z"
       id="path136982"
       style="stroke-width:0.466928" />
    <path
       fill="#c9eaf9"
       d="m -165.33832,309.94561 c -0.96373,0.12981 -1.92047,0.29557 -2.86833,0.50709 -0.0453,0.01 -0.0901,0.0205 -0.13541,0.0303 -0.43238,0.0967 -0.86475,0.19517 -1.29666,0.29509 -0.0649,0.0145 -0.12934,0.0299 -0.19424,0.0453 -0.41277,0.0957 -0.82506,0.19284 -1.23689,0.29136 -0.0855,0.0205 -0.17043,0.0411 -0.25588,0.0616 -0.39175,0.0943 -0.7835,0.19004 -1.17432,0.2867 -0.10553,0.0266 -0.21105,0.0528 -0.31611,0.0794 -0.37261,0.0934 -0.74522,0.18771 -1.11689,0.28343 -0.12327,0.0313 -0.24607,0.0644 -0.36934,0.0962 -0.35347,0.092 -0.70647,0.1849 -1.059,0.27969 -0.14288,0.0383 -0.28529,0.0775 -0.42817,0.11626 -0.33385,0.0906 -0.66771,0.1821 -1.00109,0.27502 -0.16016,0.0448 -0.31985,0.0906 -0.47954,0.13588 -0.31564,0.0892 -0.63128,0.1793 -0.94599,0.27082 -0.17837,0.0514 -0.35627,0.10552 -0.53417,0.15782 -0.2965,0.0878 -0.59346,0.17556 -0.88949,0.26521 -0.19518,0.0593 -0.38989,0.12047 -0.58506,0.1807 -0.27876,0.0864 -0.55752,0.17183 -0.83581,0.26008 -0.21385,0.0682 -0.42677,0.13775 -0.64015,0.20638 -0.25868,0.0836 -0.51783,0.16623 -0.77604,0.25168 -0.23299,0.077 -0.46459,0.15689 -0.69665,0.23533 -0.23907,0.0808 -0.4786,0.16062 -0.7172,0.24327 -0.25775,0.0887 -0.51456,0.18117 -0.77137,0.27222 -0.21152,0.0747 -0.4235,0.14848 -0.63409,0.22459 -0.30023,0.10833 -0.5986,0.22039 -0.8979,0.33152 -0.16809,0.0626 -0.33712,0.12327 -0.50475,0.1863 -0.46646,0.1765 -0.93152,0.35627 -1.39518,0.5393 -0.473,0.18724 -0.94553,0.38195 -1.41759,0.5804 -0.12794,0.0537 -0.25588,0.10832 -0.38381,0.16295 -0.42351,0.18117 -0.84608,0.36561 -1.26771,0.55565 -0.0901,0.0406 -0.18024,0.0812 -0.27035,0.12233 -0.40343,0.18444 -0.80545,0.37354 -1.20608,0.56592 -0.1779,0.0855 -0.35533,0.17136 -0.5323,0.25868 -0.30397,0.14941 -0.607,0.30163 -0.9091,0.45619 -0.28156,0.14428 -0.56219,0.28996 -0.84187,0.43797 -0.25588,0.13541 -0.51129,0.27222 -0.76577,0.4109 -0.2414,0.13214 -0.4814,0.26615 -0.72093,0.40156 -0.17417,0.0981 -0.34693,0.19844 -0.51969,0.29883 -0.47767,0.27642 -0.9516,0.55891 -1.4204,0.84888 -0.10225,0.063 -0.20498,0.1256 -0.30677,0.18863 -0.29089,0.18257 -0.57946,0.36701 -0.86615,0.55471 -0.0738,0.0481 -0.14662,0.0971 -0.22039,0.14569 -0.59813,0.39502 -1.18833,0.79984 -1.76779,1.21728 -0.007,0.006 -0.0149,0.0103 -0.0224,0.0159 -0.3063,0.22133 -0.60934,0.44592 -0.91004,0.67331 -0.0299,0.0229 -0.0593,0.0458 -0.0892,0.0682 -0.59953,0.45666 -1.18693,0.92545 -1.76031,1.40779 -2.34958,1.97884 -4.4643,4.17107 -6.21621,6.59255 h 394.55951 v -22.48443 c -13.81079,0 -27.62158,0 -41.43236,0 -32.19981,0 -64.400074,0 -96.599875,0 -10.425561,0 -20.850656,0 -31.275751,0 -4.811223,0 -9.9054042,0.4786 -14.68020687,-0.0196 -5.16608803,-0.53884 -10.42789613,-2.10725 -15.52207713,-3.13683 -8.514427,-1.72062 -17.103095,-3.44872 -25.788884,-3.37915 -17.782008,0.14241 -35.087282,7.80236 -52.814659,6.40485 -7.296217,-0.57526 -14.399587,-2.50507 -21.689257,-2.82258 -7.95505,-0.34646 -15.94278,0.042 -23.82592,1.16265 -2.00032,0.28389 -3.99317,0.61494 -5.99535,0.88296 -6.54773,0.87549 -13.31351,0.15035 -19.76459,1.0193 z"
       id="path136984"
       style="stroke-width:0.466928" />
    <g
       id="g3303"
       transform="matrix(0.67310767,0,0,0.67310767,36.888666,88.969992)">
      <g
         id="g137006"
         transform="matrix(0.4669277,0,0,0.4669277,-421.74746,-54.543287)">
        <path
           fill="#0e4c92"
           d="m 1135.083,745.772 c 0,0 -30.698,32.691 25.516,53.022 0,0 17.732,-7.021 -11.095,-33.571 -4.453,-4.101 -11.85,-8.883 -14.421,-19.451 z"
           id="path136986" />
        <path
           fill="none"
           stroke="#5570a3"
           stroke-miterlimit="10"
           d="m 1160.599,798.795 c 0,0 -5.803,-10.781 -15.401,-18.267 -9.6,-7.486 -13.79,-18.777 -10.114,-34.756"
           id="path136988" />
        <path
           fill="none"
           stroke="#5570a3"
           stroke-miterlimit="10"
           d="m 1165.99,790.2 c 0,0 -4.468,-3.808 -13.086,-2.253"
           id="path136990" />
        <path
           fill="none"
           stroke="#5570a3"
           stroke-miterlimit="10"
           d="m 1150.226,794.449 c 0,0 -2.251,-6.086 0.907,-8.461"
           id="path136992" />
        <path
           fill="none"
           stroke="#5570a3"
           stroke-miterlimit="10"
           d="m 1143.288,778.92 c 0,0 8.786,-7.82 17.2,-1.78"
           id="path136994" />
        <path
           fill="none"
           stroke="#5570a3"
           stroke-miterlimit="10"
           d="m 1140.424,788.715 c 0,0 -4.062,-8.83 0.794,-11.855"
           id="path136996" />
        <path
           fill="none"
           stroke="#5570a3"
           stroke-miterlimit="10"
           d="m 1136.673,770.165 c 0,0 6.345,-9.531 12.831,-4.941"
           id="path136998" />
        <path
           fill="none"
           stroke="#5570a3"
           stroke-miterlimit="10"
           d="m 1128.789,775.553 c 0,0 1.935,-6.589 6.787,-7.992"
           id="path137000" />
        <path
           fill="none"
           stroke="#5570a3"
           stroke-miterlimit="10"
           d="m 1133.824,758.759 c 0,0 2.409,-4.416 7.272,-1.406"
           id="path137002" />
        <path
           fill="none"
           stroke="#5570a3"
           stroke-miterlimit="10"
           d="m 1126.84,763.686 c 0,0 2.553,-7.533 6.929,-7.452"
           id="path137004" />
      </g>
      <path
         fill="#5a73af"
         d="m 159.91185,293.82353 c 0.036,-0.16762 0.37494,-1.16545 0.63502,-2.11425 -0.0724,-0.0196 -0.14568,-0.0378 -0.21759,-0.0588 -1.2,-0.34599 -2.34444,-0.84841 -3.48608,-1.36109 -0.58366,1.15424 -1.23269,2.2772 -1.87985,3.3969 -0.21386,0.37027 -0.9488,2.15907 -1.37697,2.17214 -0.90444,0.029 -0.46786,-1.1986 -0.37261,-1.66133 0.34272,-1.673 0.69292,-3.34413 1.04078,-5.0162 -0.0542,-0.0205 -0.10786,-0.0439 -0.16296,-0.064 -1.04031,-0.38895 -2.14646,-0.69059 -3.25308,-0.80125 -0.0304,0.55471 0.0173,1.12577 0.0467,1.68188 0.0827,1.54086 0.0532,3.2232 -0.3502,4.71923 -0.50941,-0.5379 -1.35082,-4.11456 -1.90086,-6.3292 -0.37914,0.0686 -0.75222,0.16809 -1.11782,0.30724 -1.76079,0.67051 -3.16297,2.2151 -3.66072,4.03239 -0.16762,0.61354 -0.2372,1.25977 -0.14988,1.89059 0.19097,1.38397 1.09635,2.49666 2.08437,3.42211 1.14537,1.07347 1.53806,1.4839 2.18849,2.9267 1.16638,2.58865 3.2811,4.75519 5.86928,5.93279 1.56561,0.71253 3.35954,1.06412 5.0176,0.62895 -0.34179,-0.40109 -0.68405,-0.80312 -1.02584,-1.20421 -0.30303,-0.35673 -0.607,-0.713 -0.87642,-1.09541 -0.1709,-0.24234 -0.32778,-0.49401 -0.48421,-0.74522 -0.22319,-0.35813 -0.46412,-0.70879 -0.63082,-1.08934 0.67752,-0.16716 2.02834,1.55767 2.60266,2.01339 0.65136,0.51596 1.33541,0.98895 2.04421,1.42273 0.22739,-0.13494 0.45105,-0.27735 0.66631,-0.43097 0.70692,-0.50615 1.33868,-1.08748 1.90179,-1.7281 -0.5351,-0.27176 -1.06926,-0.54351 -1.60436,-0.81526 -0.81946,-0.41697 -2.2646,-1.08794 -2.37293,-2.11658 0.53697,-0.0873 1.17946,0.31284 1.69682,0.5323 1.08654,0.46039 2.23938,0.76202 3.41137,0.9007 0.60934,-0.94133 1.10942,-1.9639 1.51191,-3.0355 -0.43798,-0.11159 -0.87222,-0.23486 -1.30273,-0.37214 -0.56825,-0.18163 -1.13837,-0.38615 -1.7337,-0.41837 -0.84094,-0.0448 -1.7832,0.2358 -2.46304,-0.26101 1.58008,0.0476 3.82787,-0.79378 5.27114,-1.39284 0.14335,-0.0593 0.56265,-0.22133 1.0646,-0.42771 0.22926,-1.05619 0.38428,-2.12779 0.4758,-3.18725 0.0873,-1.0081 0.1242,-2.04701 -0.19331,-3.00748 -1.44888,0.97868 -3.27036,1.16031 -5.02414,0.90024 -0.59814,0.66023 -1.22148,1.29759 -1.88872,1.85323 z m -11.35288,4.74539 c -0.0873,-0.01 -0.16016,-0.0668 -0.2274,-0.12234 -0.73401,-0.60187 -1.42226,-1.26023 -2.05541,-1.96716 l -0.26335,-0.0163 c -0.1779,-0.10272 -0.3642,-0.21478 -0.45992,-0.39688 -0.0953,-0.18164 -0.05,-0.45292 0.14148,-0.52623 0.1298,-0.049 0.27361,0.005 0.40155,0.0584 0.58226,0.24327 1.17059,0.48981 1.67954,0.86289 0.50895,0.37307 0.93853,0.88996 1.08094,1.5049 0.0593,0.25681 -0.0355,0.63269 -0.29743,0.60281 z m 15.65608,-3.24608 c 0.45012,0.004 0.99596,0.0756 1.17573,0.48887 -0.9544,0.61027 -2.03861,1.0165 -3.15924,1.18413 l -0.32264,-0.008 c -0.17744,-0.31891 -0.0677,-0.73541 0.16576,-1.0151 0.49494,-0.59206 1.36809,-0.65603 2.14039,-0.64996 z m -7.42835,6.68687 c 0.70646,0.28716 1.47176,0.62848 1.80701,1.313 0.0985,0.20171 0.11066,0.51175 -0.10179,0.58366 -0.8853,-0.45012 -1.70382,-1.03051 -2.42242,-1.71689 l -0.26848,-0.25168 c 0.29089,-0.18257 0.66864,-0.057 0.98568,0.0719 z m -1.18366,4.5969 c -1.36577,-0.49494 -2.65589,-1.26537 -3.71908,-2.25759 -0.93339,-0.87222 -0.9558,-2.05262 0.31658,-0.88016 1.13416,1.04592 2.2688,2.0923 3.4025,3.13775 z"
         id="path137008"
         style="stroke-width:0.466928" />
      <g
         id="g137026"
         transform="matrix(0.4669277,0,0,0.4669277,-421.74746,-54.543287)">
        <path
           fill="none"
           stroke="#121c44"
           stroke-miterlimit="10"
           d="m 1248.155,721.373 c 0,0 -0.64,25.683 -24.832,53.474"
           id="path137010" />
        <path
           fill="#30417a"
           d="m 1248.043,722.934 c 0,0 8.874,-11.163 4.468,-20.528 0,-10e-4 -8.322,12.717 -4.468,20.528 z"
           id="path137012" />
        <path
           fill="#3c6590"
           d="m 1246.123,733.202 c 0,0 5.354,-11.64 16.634,-12.633 0,0 -6.962,10.074 -16.634,12.633 z"
           id="path137014" />
        <path
           fill="#4c65a5"
           d="m 1236.92,720.869 c 0,0 10.828,4.776 8.6,14.506 0,0 -9.903,-6.362 -8.6,-14.506 z"
           id="path137016" />
        <path
           fill="#30417a"
           d="m 1259.163,733.843 c 0,0 -9.044,-0.02 -16.999,11.032 0,0 10.188,1.275 16.999,-11.032 z"
           id="path137018" />
        <path
           fill="#3c6590"
           d="m 1234.538,731.007 c 0,0 10.764,8.69 5.801,17.999 0,0 -9.255,-10.455 -5.801,-17.999 z"
           id="path137020" />
        <path
           fill="#3c6590"
           d="m 1253.267,746.559 c 0,0 -8.106,-0.746 -16.413,9.208 0,0 7.117,2.502 16.413,-9.208 z"
           id="path137022" />
        <path
           fill="#30417a"
           d="m 1231.753,742.116 c 0,0 9.226,9.509 2.646,18.382 -10e-4,0 -7.304,-7.823 -2.646,-18.382 z"
           id="path137024" />
      </g>
      <g
         id="g137044"
         transform="matrix(0.4669277,0,0,0.4669277,-421.74746,-54.543287)">
        <path
           fill="#719fc5"
           d="m 1221.365,800.732 c 0,0 -13.996,-49.634 41.473,-40.992 0,0 8.832,9.466 -12.495,25.573 -21.327,16.109 -21.688,6.333 -28.978,15.419 z"
           id="path137028" />
        <path
           fill="none"
           stroke="#5b7ab3"
           stroke-miterlimit="10"
           d="m 1262.838,759.74 c 0,0 -28.977,4.693 -41.864,39.357"
           id="path137030" />
        <path
           fill="none"
           stroke="#5b7ab3"
           stroke-miterlimit="10"
           d="m 1264.376,767.776 c 0,0 -12.474,2.918 -14.794,-3.009"
           id="path137032" />
        <path
           fill="none"
           stroke="#5b7ab3"
           stroke-miterlimit="10"
           d="m 1238.892,772.283 c 0,0 12.569,12.099 19.417,5.945"
           id="path137034" />
        <path
           fill="none"
           stroke="#5b7ab3"
           stroke-miterlimit="10"
           d="m 1227.603,785.608 c 0,0 9.103,9.062 15.282,4.86"
           id="path137036" />
        <path
           fill="none"
           stroke="#5b7ab3"
           stroke-miterlimit="10"
           d="m 1225.87,768.217 c 0,0 -2.356,7.793 3.283,15.063"
           id="path137038" />
        <path
           fill="none"
           stroke="#5b7ab3"
           stroke-miterlimit="10"
           d="m 1238.961,760.169 c 0,0 -4.785,8.055 -1.843,13.434"
           id="path137040" />
        <path
           fill="none"
           stroke="#5b7ab3"
           stroke-miterlimit="10"
           d="m 1249.502,758.751 c 0,0 -4.53,3.575 -1.891,7.146"
           id="path137042" />
      </g>
      <g
         id="g137074"
         transform="matrix(0.4669277,0,0,0.4669277,-421.74746,-54.543287)">
        <path
           fill="#719fc5"
           d="m 1223.988,794.833 c 0,0 3.781,1.419 9.32,6.283 4.895,4.296 20.727,6.269 34.622,0.981 0,0 -7.899,-22.677 -34.987,-10.684 -2.191,0.971 -5.635,3.764 -8.955,3.42 z"
           id="path137046" />
        <path
           fill="none"
           stroke="#4e6da0"
           stroke-miterlimit="10"
           d="m 1266.959,801.847 c 0,0 -21.441,-6.784 -41.495,-6.912"
           id="path137048" />
        <path
           fill="none"
           stroke="#4e6da0"
           stroke-miterlimit="10"
           d="m 1264.622,797.466 c 0,0 -4.088,0.598 -6.717,1.931"
           id="path137050" />
        <path
           fill="none"
           stroke="#4e6da0"
           stroke-miterlimit="10"
           d="m 1262.185,794.462 c 0,0 -7.544,1.755 -10.445,3.458"
           id="path137052" />
        <path
           fill="none"
           stroke="#4e6da0"
           stroke-miterlimit="10"
           d="m 1257.603,790.879 c 0,0 -8.392,1.762 -11.55,6.061"
           id="path137054" />
        <path
           fill="none"
           stroke="#4e6da0"
           stroke-miterlimit="10"
           d="m 1251.014,788.578 c 0,0 -9.028,3.557 -9.457,7.65"
           id="path137056" />
        <path
           fill="none"
           stroke="#4e6da0"
           stroke-miterlimit="10"
           d="m 1243.827,788.561 c 0,0 -5.873,1.057 -7.83,6.98"
           id="path137058" />
        <path
           fill="none"
           stroke="#4e6da0"
           stroke-miterlimit="10"
           d="m 1234.958,791.043 c 0,0 -2.416,1.239 -2.924,4.152"
           id="path137060" />
        <path
           fill="none"
           stroke="#4e6da0"
           stroke-miterlimit="10"
           d="m 1261.701,803.479 c 0,0 -2.839,-2.045 -3.317,-3.966"
           id="path137062" />
        <path
           fill="none"
           stroke="#4e6da0"
           stroke-miterlimit="10"
           d="m 1254.251,804.701 c 0,0 -2.696,-3.652 -2.12,-6.604"
           id="path137064" />
        <path
           fill="none"
           stroke="#4e6da0"
           stroke-miterlimit="10"
           d="m 1249.609,804.888 c 0,0 -3.445,-4.216 -3.083,-7.866"
           id="path137066" />
        <path
           fill="none"
           stroke="#4e6da0"
           stroke-miterlimit="10"
           d="m 1242.675,804.3 c 0,0 -1.885,-5.181 -0.741,-8.017"
           id="path137068" />
        <path
           fill="none"
           stroke="#4e6da0"
           stroke-miterlimit="10"
           d="m 1239.297,803.534 c 0,0 -3.252,-4.309 -2.828,-7.943"
           id="path137070" />
        <path
           fill="none"
           stroke="#4e6da0"
           stroke-miterlimit="10"
           d="m 1233.894,800.909 c 0,0 -1.704,-2.072 -1.451,-5.684"
           id="path137072" />
      </g>
      <g
         id="g137104"
         transform="matrix(0.4669277,0,0,0.4669277,-421.74746,-54.543287)">
        <path
           fill="#719fc5"
           d="m 1163.584,796.405 c 0,0 -3.288,-2.345 -7.389,-8.47 -3.623,-5.411 -18.415,-11.393 -33.203,-9.86 0,0 1.797,23.946 31.059,19.329 2.367,-0.373 6.414,-2.185 9.533,-0.999 z"
           id="path137076" />
        <path
           fill="none"
           stroke="#4e6da0"
           stroke-miterlimit="10"
           d="m 1123.867,778.568 c 0,0 18.973,12.074 38.317,17.359"
           id="path137078" />
        <path
           fill="none"
           stroke="#4e6da0"
           stroke-miterlimit="10"
           d="m 1124.998,783.403 c 0,0 4.104,0.475 6.986,-0.138"
           id="path137080" />
        <path
           fill="none"
           stroke="#4e6da0"
           stroke-miterlimit="10"
           d="m 1126.579,786.934 c 0,0 7.742,0.245 10.984,-0.654"
           id="path137082" />
        <path
           fill="none"
           stroke="#4e6da0"
           stroke-miterlimit="10"
           d="m 1130.085,791.575 c 0,0 8.562,0.457 12.721,-2.884"
           id="path137084" />
        <path
           fill="none"
           stroke="#4e6da0"
           stroke-miterlimit="10"
           d="m 1135.859,795.494 c 0,0 9.64,-1.113 11.107,-4.959"
           id="path137086" />
        <path
           fill="none"
           stroke="#4e6da0"
           stroke-miterlimit="10"
           d="m 1142.8,797.359 c 0,0 5.947,0.491 9.363,-4.729"
           id="path137088" />
        <path
           fill="none"
           stroke="#4e6da0"
           stroke-miterlimit="10"
           d="m 1152.009,797.244 c 0,0 2.654,-0.575 3.895,-3.26"
           id="path137090" />
        <path
           fill="none"
           stroke="#4e6da0"
           stroke-miterlimit="10"
           d="m 1129.367,778.345 c 0,0 2.217,2.706 2.186,4.686"
           id="path137092" />
        <path
           fill="none"
           stroke="#4e6da0"
           stroke-miterlimit="10"
           d="m 1136.882,779.08 c 0,0 1.665,4.224 0.349,6.927"
           id="path137094" />
        <path
           fill="none"
           stroke="#4e6da0"
           stroke-miterlimit="10"
           d="m 1141.415,780.095 c 0,0 2.244,4.96 0.954,8.396"
           id="path137096" />
        <path
           fill="none"
           stroke="#4e6da0"
           stroke-miterlimit="10"
           d="m 1147.964,782.448 c 0,0 0.488,5.49 -1.347,7.937"
           id="path137098" />
        <path
           fill="none"
           stroke="#4e6da0"
           stroke-miterlimit="10"
           d="m 1151.031,784.057 c 0,0 2.033,5.001 0.688,8.404"
           id="path137100" />
        <path
           fill="none"
           stroke="#4e6da0"
           stroke-miterlimit="10"
           d="m 1155.576,787.984 c 0,0 1.113,2.441 -0.06,5.866"
           id="path137102" />
      </g>
      <g
         id="g137150"
         transform="matrix(0.4669277,0,0,0.4669277,-421.74746,-54.543287)">
        <rect
           x="979.961"
           y="688.82898"
           fill="#89645b"
           width="193.64999"
           height="20.827"
           id="rect137106" />
        <rect
           x="1173.611"
           y="688.82898"
           fill="#75504a"
           width="54.867001"
           height="20.827"
           id="rect137108" />
        <rect
           x="1154.6429"
           y="709.65601"
           fill="#89645b"
           width="18.969"
           height="92.678001"
           id="rect137110" />
        <rect
           x="1173.611"
           y="709.65601"
           fill="#75504a"
           width="8.3310003"
           height="92.678001"
           id="rect137112" />
        <rect
           x="1201.1801"
           y="709.65601"
           fill="#7f5c55"
           width="18.969"
           height="92.678001"
           id="rect137114" />
        <rect
           x="1220.1479"
           y="709.65601"
           fill="#75504a"
           width="8.3299999"
           height="92.678001"
           id="rect137116" />
        <rect
           x="979.961"
           y="709.65601"
           fill="#89645b"
           width="18.969"
           height="92.678001"
           id="rect137118" />
        <rect
           x="998.92999"
           y="709.65601"
           fill="#75504a"
           width="8.3310003"
           height="92.678001"
           id="rect137120" />
        <rect
           x="1026.498"
           y="709.65601"
           fill="#7f5c55"
           width="18.969"
           height="92.678001"
           id="rect137122" />
        <rect
           x="1045.467"
           y="709.65601"
           fill="#75504a"
           width="8.3299999"
           height="92.678001"
           id="rect137124" />
        <rect
           x="1220.1479"
           y="590.15503"
           fill="#75504a"
           width="8.3299999"
           height="98.674004"
           id="rect137126" />
        <rect
           x="1206.772"
           y="590.15503"
           fill="#89645b"
           width="13.376"
           height="98.674004"
           id="rect137128" />
        <rect
           x="1067.891"
           y="590.15503"
           fill="#75504a"
           width="8.3310003"
           height="98.674004"
           id="rect137130" />
        <rect
           x="1054.516"
           y="590.15503"
           fill="#89645b"
           width="13.375"
           height="98.674004"
           id="rect137132" />
        <rect
           x="1043.114"
           y="594.46399"
           fill="#9e7871"
           width="181.19901"
           height="16.660999"
           id="rect137134" />
        <rect
           x="1224.313"
           y="594.46399"
           fill="#8c6762"
           width="3.079"
           height="16.660999"
           id="rect137136" />
        <rect
           x="1043.114"
           y="617.94702"
           fill="#9e7871"
           width="181.19901"
           height="16.660999"
           id="rect137138" />
        <rect
           x="1224.313"
           y="617.94702"
           fill="#8c6762"
           width="3.079"
           height="16.660999"
           id="rect137140" />
        <rect
           x="1043.114"
           y="641.43201"
           fill="#9e7871"
           width="181.19901"
           height="16.660999"
           id="rect137142" />
        <rect
           x="1224.313"
           y="641.43201"
           fill="#8c6762"
           width="3.079"
           height="16.660999"
           id="rect137144" />
        <rect
           x="1043.114"
           y="664.91498"
           fill="#9e7871"
           width="181.19901"
           height="16.660999"
           id="rect137146" />
        <rect
           x="1224.313"
           y="664.91498"
           fill="#8c6762"
           width="3.079"
           height="16.660999"
           id="rect137148" />
      </g>
      <g
         id="g137198"
         transform="matrix(0.4669277,0,0,0.4669277,-421.74746,-54.543287)">
        <g
           id="g137158">
          <g
             id="g137156">
            <g
               id="g137154">
              <polygon
                 fill="#4b3fab"
                 points="709.166,808.467 663.083,603.778 654.581,605.693 700.232,808.467 "
                 id="polygon137152" />
            </g>
          </g>
        </g>
        <g
           id="g137166">
          <g
             id="g137164">
            <g
               id="g137162">
              <polygon
                 fill="#4b3fab"
                 points="833.245,808.467 787.162,603.778 778.659,605.693 824.311,808.467 "
                 id="polygon137160" />
            </g>
          </g>
        </g>
        <g
           id="g137170">
          <polygon
             fill="#4b3fab"
             points="731.293,808.467 777.376,603.778 785.879,605.693 740.227,808.467 "
             id="polygon137168" />
        </g>
        <g
           id="g137178">
          <g
             id="g137176">
            <g
               id="g137174">
              <polygon
                 fill="#4b3fab"
                 points="607.214,808.467 653.298,603.778 661.8,605.693 616.148,808.467 "
                 id="polygon137172" />
            </g>
          </g>
        </g>
        <g
           id="g137184">
          <g
             id="g137182">
            <polygon
               fill="#4b3fab"
               points="701.514,644.538 655.812,441.547 646.927,441.766 692.58,644.538 "
               id="polygon137180" />
          </g>
        </g>
        <g
           id="g137190">
          <g
             id="g137188">
            <polygon
               fill="#4b3fab"
               points="768.532,644.538 722.831,441.547 713.946,441.766 759.598,644.538 "
               id="polygon137186" />
          </g>
        </g>
        <polygon
           fill="#547ca0"
           points="797.786,659.197 751.593,454.02 618.222,454.02 664.416,659.197 "
           id="polygon137192" />
        <polygon
           fill="#caeaf9"
           points="802.436,659.197 756.242,454.02 626.741,454.02 672.935,659.197 "
           id="polygon137194" />
        <rect
           x="660.65399"
           y="654.28699"
           fill="#4b3fab"
           width="145.27"
           height="4.9099998"
           id="rect137196" />
      </g>
      <g
         id="g137270"
         transform="matrix(-0.4669277,0,0,0.4669277,399.73262,-54.543287)">
        <path
           fill="#eab896"
           d="m 918.26,429.443 c 0,0 -5.505,6.469 -1.957,10.228 0,0 5.599,-2.356 6.191,-4.456 0.592,-2.1 -4.234,-5.772 -4.234,-5.772 z"
           id="path137200" />
        <path
           fill="#322889"
           d="m 903.565,548.198 8.429,64.482 6.265,47.953 c 0.069,0.55 0.117,1.105 0.121,1.656 0.193,7.603 -5.236,14.339 -12.896,15.649 -7.867,1.348 -15.459,-3.484 -17.585,-11.174 l -0.429,-1.548 -34.666,-83.248 c -4.308,-10.346 -4.542,-21.938 -0.655,-32.449 l 3.36,-9.085 z"
           id="path137202" />
        <path
           fill="#322889"
           d="m 912.312,656.604 c 4.277,2.657 7.195,7.4 7.218,12.93 l 0.361,113.259 0.058,17.916 -10.441,0.294 -3.185,-20.193 -16.154,-102.44 -1.01,-6.405 c -0.288,-1.858 -0.239,-3.689 0.113,-5.429 1.215,-5.984 5.978,-10.896 12.351,-12.006 3.882,-0.679 7.633,0.164 10.689,2.074 z"
           id="path137204" />
        <polygon
           fill="#50322a"
           points="932.238,806.429 908.589,806.03 909.354,800.919 919.698,798.608 "
           id="polygon137206" />
        <path
           fill="#322889"
           d="m 843.938,688.226 c -7.853,-1.393 -13.365,-8.522 -12.753,-16.474 l 0.128,-1.639 0.01,-42.574 -1.611,-42.699 c -1.762,-17.58 14.8,-31.373 31.771,-26.459 l 24.643,7.135 -4.857,22.132 -19.444,88.633 c -0.412,1.903 -1.168,3.648 -2.178,5.184 -3.313,5.042 -9.421,7.879 -15.709,6.761 z"
           id="path137208" />
        <path
           fill="#322889"
           d="m 826.102,805.186 -10.132,-2.561 2.147,-18.126 13.238,-111.599 c 0.056,-0.476 0.134,-0.948 0.244,-1.396 0.441,-2.136 1.336,-4.082 2.557,-5.766 3.094,-4.268 8.316,-6.815 13.928,-6.235 8.616,0.883 14.599,8.646 13.635,16.938 -0.087,0.78 -0.245,1.572 -0.463,2.359 l -30.658,110.214 z"
           id="path137210" />
        <polygon
           fill="#50322a"
           points="838.433,809.128 814.83,807.576 815.844,802.508 826.289,800.705 "
           id="polygon137212" />
        <path
           fill="#21a4cc"
           d="m 932.041,510.769 -47.43,-30.729 c -9.489,-6.804 -10.888,-20.375 -2.986,-28.972 v 0 c 7.711,-8.387 20.946,-8.382 28.65,0.011 l 36.129,43.481 c 3.843,4.186 3.819,10.623 -0.053,14.781 v 0 c -3.732,4.007 -9.86,4.618 -14.31,1.428 z"
           id="path137214" />
        <path
           fill="#2cbbf5"
           d="m 921.9,436.196 26.549,61.681 c 2.327,5.612 -0.458,12.036 -6.146,14.174 v 0 c -5.964,2.242 -12.557,-1.167 -14.175,-7.329 L 913.713,440.95 Z"
           id="path137216" />
        <path
           fill="#2cbbf5"
           d="m 805.977,459.613 c 1.634,18.721 7.142,68.149 23.074,123.664 0,0 23.604,6.731 38.751,5.393 17.673,-1.562 40.357,-11.201 40.357,-11.201 5.866,-41.312 4.393,-92.338 3.061,-118.259 -0.473,-9.205 -8.496,-16.169 -17.677,-15.357 l -80.295,7.098 c -4.401,0.388 -7.655,4.261 -7.271,8.662 z"
           id="path137218" />
        <path
           fill="#eaeaea"
           d="m 867.84,508.149 c 0,0 14.375,-43.973 3.221,-62.303 0,0 -0.021,-0.003 -0.032,-0.004 l -29.182,2.58 v 0 c 0,-0.001 16.394,54.789 25.993,59.727 z"
           id="path137220" />
        <path
           fill="#f9625b"
           d="m 861.12,465.719 7.71,-1.022 -2.818,6.868 c 0,-10e-4 -3.883,-2.292 -4.892,-5.846 z"
           id="path137222" />
        <polyline
           fill="#f9625b"
           points="865.199,469.988 860.817,500.736 867.84,508.149 872.942,499.758 865.904,469.645   "
           id="polyline137224" />
        <polygon
           fill="#eab896"
           points="846.805,448.443 849.505,430.868 869.276,433.906 865.672,465.465 "
           id="polygon137226" />
        <path
           fill="#f6c4a1"
           d="m 875.553,414.791 c 2.301,9.881 2.519,25.353 -5.869,25.242 -8.387,-0.111 -26.633,-8.767 -26.496,-19.098 0.137,-10.331 7.047,-18.616 15.435,-18.504 8.387,0.11 14.587,2.297 16.93,12.36 z"
           id="path137228" />
        <path
           fill="#ffffff"
           d="m 868.31,432.203 7.054,-1.626 c 0,0 0.704,5.06 -1.774,5.566 -4.614,0.941 -4.702,-2.641 -5.28,-3.94 z"
           id="path137230" />
        <path
           fill="#2cbbf5"
           d="m 742.863,439.445 72.657,12.514 c 11.468,2.195 18.431,13.929 14.863,25.047 v 0 c -3.48,10.848 -15.497,16.396 -26.012,12.009 l -67.749,-28.83 c -5.243,-2.188 -7.923,-8.041 -6.151,-13.44 v 0 c 1.708,-5.204 7.013,-8.329 12.392,-7.3 z"
           id="path137232" />
        <path
           fill="#f6c4a1"
           d="m 872.518,417.284 c 0,0 4.329,6.555 7.953,10.663 0,0 -5.696,1.888 -6.872,-0.061 -1.176,-1.948 -1.081,-10.602 -1.081,-10.602 z"
           id="path137234" />
        <path
           fill="#50322a"
           d="m 877.626,407.085 c 0,0 5.633,10.308 -16.207,14.618 0,0 -2.913,7.831 -13.289,17.635 0,0 -16.247,-13.521 -13.667,-23.887 0,-0.001 17.539,-37.778 43.163,-8.366 z"
           id="path137236" />
        <path
           fill="#f6c4a1"
           d="m 858.328,423.942 c 0,0 -7.271,-5.209 -8.35,-3.888 -3.053,3.737 5.028,13.062 7.993,12.743 z"
           id="path137238" />
        <path
           fill="#209fc6"
           d="m 867.84,508.149 c 0,0 -18.268,-37.457 -25.993,-59.728 0,0 -7.542,-1.138 -13.004,1.345 0,0 1.408,9.397 9.94,17.03 l -5.208,8.397 c 0,0.001 14.012,18.679 34.265,32.956 z"
           id="path137240" />
        <path
           fill="#209fc6"
           d="m 867.84,508.149 c 0,0 10.017,-38.814 2.22,-62.222 0,0 4.542,-2.014 11.846,-1.047 0,0 2.453,10.461 -2.036,17.197 l 7.544,4.445 c -10e-4,0 -3.501,24.518 -19.574,41.627 z"
           id="path137242" />
        <path
           fill="#ffffff"
           d="m 865.672,465.465 c 0,0 -8.209,0.089 -10.685,4.788 0,0 -9.456,-7.203 -13.141,-21.832 0,0 0.125,-4.624 5.576,-4.005 z"
           id="path137244" />
        <path
           fill="#ffffff"
           d="m 870.06,445.927 c 0,0 4.936,12.267 2.642,20.705 0,0 -2.996,-3.456 -7.029,-1.167 l 2.456,-21.499 c -10e-4,10e-4 1.355,0.6 1.931,1.961 z"
           id="path137246" />
        <path
           fill="#2cbbf5"
           d="m 758.586,372.915 -7.429,77.987 c -0.576,6.048 -6.048,10.417 -12.074,9.639 v 0 c -6.318,-0.816 -10.543,-6.919 -9.083,-13.12 l 17.976,-76.359 z"
           id="path137248" />
        <path
           fill="#f6c4a1"
           d="m 758.586,372.915 c 0,0 7.028,-2.958 6.227,-5.833 -0.659,-2.362 -1.316,-3.744 -1.316,-3.744 0,0 1.963,-7.279 -3.035,-7.387 -8.386,-0.181 -15.057,5.899 -12.485,15.111 z"
           id="path137250" />
        <g
           id="g137264">
          <polygon
             fill="#f25a42"
             points="918.601,423.171 910.638,406.626 930.631,387.61 934.495,383.931 950.289,416.746 945.155,417.787 "
             id="polygon137252" />
          <path
             fill="#f25a42"
             d="m 901.267,411.148 c -3.598,1.731 -5.11,6.052 -3.379,9.65 l 1.682,3.493 c 1.731,3.598 6.052,5.111 9.65,3.379 l 4.301,-2.07 -7.952,-16.522 z"
             id="path137254" />
          <rect
             x="909.26599"
             y="406.95001"
             transform="matrix(0.9011,-0.4336,0.4336,0.9011,-90.2283,436.6702)"
             fill="#f78374"
             width="5.631"
             height="18.337"
             id="rect137256" />
          <polygon
             fill="#f78374"
             points="950.289,416.746 945.155,417.787 930.631,387.61 934.495,383.931 "
             id="polygon137258" />
          <rect
             x="915.06097"
             y="427.883"
             transform="matrix(0.9011,-0.4337,0.4337,0.9011,-97.2058,440.7005)"
             fill="#4566a0"
             width="4.6009998"
             height="11.062"
             id="rect137260" />
          <rect
             x="912.20801"
             y="424.616"
             transform="matrix(0.9011,-0.4336,0.4336,0.9011,-94.5948,439.5256)"
             fill="#6488bc"
             width="7.8590002"
             height="4.9949999"
             id="rect137262" />
        </g>
        <path
           fill="#f6c4a1"
           d="m 917.364,438.458 c 0,0 0.466,-3.855 -1.348,-4.854 0,0 1.797,-3.924 -1.06,-5.762 l -2.369,4.625 c 0,0 -3.886,5.442 1.126,8.482 z"
           id="path137266" />
        <path
           fill="#f6c4a1"
           d="m 917.628,426.375 c 0,0 -1.638,2.476 -0.092,4.302 1.955,2.309 -0.755,2.248 0.843,4.406 1.597,2.159 3.964,-0.553 3.964,-0.553 0,0 1.624,-6.395 -4.715,-8.155 z"
           id="path137268" />
      </g>
      <g
         id="g137346"
         transform="matrix(0.4669277,0,0,0.4669277,-421.74746,-54.543287)">
        <path
           fill="#f35c49"
           d="m 1056.299,630.125 -6.271,-80.564 c -0.885,-11.359 8.368,-20.933 19.752,-20.436 v 0 c 11.106,0.484 19.421,10.368 17.997,21.395 l -10.351,80.142 c -0.71,5.499 -5.53,9.526 -11.068,9.249 v 0 c -5.337,-0.268 -9.645,-4.459 -10.059,-9.786 z"
           id="path137272" />
        <path
           fill="#f35c49"
           d="m 1075.616,622.773 c 0,0 -1.385,-9.795 -13.229,-5.563 0,0 -18.05,-2.457 -43.341,7.938 0,0 -12.189,-0.75 -15.459,3.343 0,0 3.988,9.253 0.26,10.123 -3.729,0.869 -0.642,0.589 -0.642,0.589 0,0 10.416,4.837 15.853,0.736 10e-4,0 70.909,14.018 56.558,-17.166 z"
           id="path137274" />
        <path
           fill="#1eb1d3"
           d="m 1096.485,651.499 -72.569,3.648 -47.132,2.372 c -0.54,0.029 -1.081,0.081 -1.611,0.174 -7.332,1.144 -12.85,7.534 -12.768,15.118 0.081,7.788 6.048,14.231 13.802,14.928 l 1.562,0.141 53.552,4.748 82.675,-3.508 z"
           id="path137276" />
        <path
           fill="#1eb1d3"
           d="m 966.976,661.895 c -3.486,3.464 -5.222,8.612 -4.032,13.875 l 24.462,107.781 3.869,17.049 9.995,-2.007 -1.396,-19.9 -7.075,-100.952 -0.442,-6.312 c -0.133,-1.831 -0.581,-3.562 -1.297,-5.138 -2.466,-5.425 -8.07,-9.053 -14.374,-8.712 -3.841,0.205 -7.223,1.829 -9.71,4.316 z"
           id="path137278" />
        <polygon
           fill="#50322a"
           points="980.346,807.672 1003.002,803.26 1001.396,798.479 991.062,798.021 "
           id="polygon137280" />
        <path
           fill="#f28368"
           d="m 1051.699,549.909 c 2.669,23.418 8.875,64.895 22.456,109.157 0,0 21.64,6.189 36.423,4.905 17.248,-1.498 35.987,-0.978 35.987,-0.978 5.787,-40.305 7.838,-99.992 6.577,-125.288 -0.447,-8.98 -8.27,-15.79 -17.227,-15.013 l -66.689,5.792 c -10.83,0.942 -18.757,10.624 -17.527,21.425 z"
           id="path137282" />
        <path
           fill="#eaeaea"
           d="m 1117.015,524.335 -41.283,3.585 c -0.23,2.764 -0.67,7.126 -1.51,13.863 -1.86,14.905 15.225,40.39 15.225,40.39 z"
           id="path137284" />
        <path
           fill="#ed581e"
           d="m 1084.149,543.249 c 0,0 3.071,0.718 5.297,0.287 0,0 0.862,0.646 0.79,1.58 -0.071,0.934 -3.041,4.452 -3.041,4.452 0,0 -0.98,0.503 -1.771,0 -0.79,-0.502 -2.441,-3.949 -2.441,-4.739 0,-0.79 0.249,-1.364 1.166,-1.58 z"
           id="path137286" />
        <polygon
           fill="#ed581e"
           points="1082.266,574.345 1085.354,548.922 1087.195,549.568 1094.446,573.489 1089.446,582.173 "
           id="polygon137288" />
        <polygon
           fill="#ed581e"
           points="1096.916,539.299 1092.176,538.007 1089.016,544.039 1090.093,545.56 "
           id="polygon137290" />
        <path
           fill="#ed581e"
           d="m 1083.366,537.504 c 0,0 -0.813,5.961 2.202,6.895 l -1.15,1.508 c 0,0 -4.882,-1.796 -3.876,-6.822 1.005,-5.028 2.824,-1.581 2.824,-1.581 z"
           id="path137292" />
        <polygon
           fill="#eab896"
           points="1105.216,527.033 1103.583,509.758 1084.149,511.596 1087.061,542.394 "
           id="polygon137294" />
        <path
           fill="#f6c4a1"
           d="m 1077.073,494.048 c -2.17,9.66 -2.265,24.759 5.919,24.587 8.184,-0.172 25.922,-8.757 25.71,-18.837 -0.212,-10.08 -7.018,-18.111 -15.201,-17.939 -8.184,0.172 -14.218,2.352 -16.428,12.189 z"
           id="path137296" />
        <path
           fill="#3c3431"
           d="m 1106.784,483.185 c 0,0 -18.897,-11.088 -24.934,-5.604 0,0 -18.242,7.23 -5.213,18.662 0,0 1.869,-7.698 3.433,-9.142 0,0 7.252,22.704 23.876,27.241 0,0 19.308,-18.765 2.838,-31.157 z"
           id="path137298" />
        <path
           fill="#f6c4a1"
           d="m 1090.751,500.99 c 0,0 5.362,-5.752 8.287,-3.659 4.805,3.438 -3.485,14.597 -7.134,14.449 z"
           id="path137300" />
        <path
           fill="#ffffff"
           d="m 1086.356,507.562 -8.648,0.858 c 0,0 1.578,3.177 3.108,3.066 1.532,-0.108 5.383,-2.223 5.54,-3.924 z"
           id="path137302" />
        <path
           fill="#f6c4a1"
           d="m 1077.924,498.389 c 0,0 -2.663,4.971 -6.056,7.334 0,0 2.2,2.235 6.373,0.891 z"
           id="path137304" />
        <path
           fill="#24bfed"
           d="m 1009.025,680.952 c 1.742,6.98 8.32,11.662 15.51,11.396 l 1.318,-0.049 38.258,-1.38 55.01,-1.985 c 38.879,0.128 29.04,-37.862 29.04,-37.862 l -12.419,-4.521 c -3.128,-1.138 -6.348,-2.006 -9.623,-2.595 l -8.689,-1.562 c -8.406,-1.511 -17.04,-1.157 -25.294,1.035 l -71.069,18.875 c -1.873,0.324 -3.604,0.991 -5.143,1.915 -5.508,3.301 -8.591,9.953 -6.899,16.733 z"
           id="path137306" />
        <path
           fill="#24bfed"
           d="m 1014.925,806.402 10.191,-0.362 1.672,-17.733 10.281,-109.181 c 0.045,-0.466 0.067,-0.933 0.054,-1.383 0.019,-2.129 -0.436,-4.169 -1.255,-6.025 -2.075,-4.706 -6.534,-8.209 -12.007,-8.808 -8.4,-0.927 -15.701,5.251 -16.485,13.36 -0.077,0.762 -0.088,1.55 -0.042,2.345 l 6.621,111.438 z"
           id="path137308" />
        <polygon
           fill="#50322a"
           points="1003.095,812.158 1026.112,810.447 1025.081,805.51 1014.874,803.838 "
           id="polygon137310" />
        <path
           fill="#f35c49"
           d="m 1163.197,636.591 -5.532,-94.447 c -0.698,-11.372 -11.188,-19.572 -22.393,-17.503 v 0 c -10.933,2.019 -17.798,12.959 -14.86,23.682 l 21.936,91.727 c 1.465,5.348 6.797,8.669 12.242,7.627 v 0 c 5.249,-1.005 8.934,-5.752 8.607,-11.086 z"
           id="path137312" />
        <g
           id="g137318">
          <g
             id="g137316">
            <path
               fill="#f6c4a1"
               d="m 1076.268,643.098 c -0.569,2.684 -2.911,6.333 -9.019,6.866 -3.513,0.307 -4.982,-1.284 -4.982,-1.284 0,0 -10.397,-0.146 -8.389,-5.991 2.008,-5.845 16.377,-9.761 23.426,-4.468 z"
               id="path137314" />
          </g>
        </g>
        <path
           fill="#f35c49"
           d="m 1073.249,636.278 c 0,0 2.201,6.228 0.96,10.793 0,0 8.255,3.923 13.937,3.294 0,0 49.331,7.853 61.252,1.215 11.921,-6.639 12.361,-10.247 12.361,-10.247 0,0 -6.161,-15.632 -18.573,-12.102 0,0 -32.78,-4.938 -52.652,4.954 0,0.001 -15.129,-1.396 -17.285,2.093 z"
           id="path137320" />
        <path
           fill="#f49986"
           d="m 1007.979,634.364 c 0.848,-1.841 1.588,-4.848 -0.23,-5.741 -5.743,-2.822 -9.813,0.194 -9.813,0.194 0,0 -8.53,-0.5 -10.415,5.386 -1.582,4.94 6.002,3.436 13.623,5.091 2.425,0.526 4.89,-0.708 5.929,-2.962 z"
           id="path137322" />
        <rect
           x="1011.74"
           y="797.55701"
           transform="matrix(0.9871,0.1601,-0.1601,0.9871,141.389,-152.9302)"
           fill="#466f9b"
           width="16.195999"
           height="6.9850001"
           id="rect137324" />
        <rect
           x="988.45599"
           y="791.11902"
           transform="matrix(0.997,0.0771,-0.0771,0.997,64.2449,-74.4841)"
           fill="#466f9b"
           width="16.197001"
           height="6.9850001"
           id="rect137326" />
        <g
           id="g137336">
          <path
             fill="#a0a0a0"
             d="m 1107.526,658.27 h -74.241 v -7.19 h 80.71 v 0.721 c 0,3.572 -2.896,6.469 -6.469,6.469 z"
             id="path137328" />
          <path
             fill="#a0a0a0"
             d="m 1071.809,658.27 h -98.484 l -18.998,-53.687 c -1.385,-3.912 1.518,-8.018 5.668,-8.018 h 89.979 z"
             id="path137330" />
          <path
             fill="#c4c4c4"
             d="m 959.994,596.565 c -4.15,0 -7.053,4.105 -5.668,8.018 l 18.998,53.687 h 90.018 l -21.836,-61.704 h -81.512 z"
             id="path137332" />
          <ellipse
             transform="matrix(0.9721,-0.2345,0.2345,0.9721,-119.7651,253.0049)"
             fill="#ffffff"
             cx="1004.001"
             cy="630.11401"
             rx="5.651"
             ry="6.9679999"
             id="ellipse137334" />
        </g>
        <path
           fill="#fbfff7"
           d="m 1087.061,542.394 c 0,0 5.964,-2.52 7.622,4.23 l 17.403,-21.86 c 0,0 -1.482,-3.97 -7.393,-3.264 z"
           id="path137338" />
        <path
           fill="#fbfff7"
           d="m 1087.061,542.394 -1.709,-18.073 c 0,0 -4.25,-0.276 -5.68,3.258 v 19.046 c 0,-10e-4 0.98,-7.457 7.389,-4.231 z"
           id="path137340" />
        <path
           fill="#ff7e68"
           d="m 1112.086,524.764 -22.64,57.409 22.64,-22.622 -2.818,-9.264 17.677,-26.814 c -10e-4,0 -9.225,-2.794 -14.859,1.291 z"
           id="path137342" />
        <path
           fill="#ff7e68"
           d="m 1089.446,582.173 c 0,0 -15.302,-25.979 -9.774,-54.595 0,0 -8.044,-2.366 -10.445,0.907 0,0 -0.751,16.148 4.995,25.977 l -5.27,4.442 c 0,0 8.646,20.899 20.494,23.269 z"
           id="path137344" />
      </g>
      <g
         id="g137352"
         transform="matrix(0.4669277,0,0,0.4669277,-421.74746,-54.543287)">
        <g
           id="g137350">
          <path
             fill="#caeaf9"
             d="m 945.01,388.396 c 3.239,-6.436 7.547,-12.067 12.914,-16.875 1.441,-1.291 -0.686,-3.407 -2.121,-2.122 -5.543,4.965 -10.037,10.833 -13.383,17.482 -0.866,1.721 1.721,3.242 2.59,1.515 z"
             id="path137348" />
        </g>
      </g>
      <g
         id="g137358"
         transform="matrix(0.4669277,0,0,0.4669277,-421.74746,-54.543287)">
        <g
           id="g137356">
          <path
             fill="#caeaf9"
             d="m 952.822,397.584 c 5.293,-1.183 10.278,-3.203 14.907,-6.026 1.646,-1.004 0.14,-3.6 -1.515,-2.591 -4.43,2.703 -9.127,4.593 -14.189,5.724 -1.883,0.421 -1.087,3.314 0.797,2.893 z"
             id="path137354" />
        </g>
      </g>
      <g
         id="g137364"
         transform="matrix(0.4669277,0,0,0.4669277,-421.74746,-54.543287)">
        <g
           id="g137362">
          <path
             fill="#caeaf9"
             d="m 959.698,408.5 c 3.87,0 7.74,0 11.61,0 1.931,0 1.934,-3 0,-3 -3.87,0 -7.74,0 -11.61,0 -1.93,0 -1.933,3 0,3 z"
             id="path137360" />
        </g>
      </g>
      <g
         id="g137386"
         transform="matrix(0.4669277,0,0,0.4669277,-421.74746,-54.543287)">
        <g
           id="g137384">
          <polygon
             fill="#efa78e"
             points="699.401,600.358 691.896,567.338 676.271,567.338 683.775,600.358 "
             id="polygon137368" />
          <polygon
             fill="#efa78e"
             points="719.074,600.358 709.693,556.749 694.068,556.749 703.448,600.358 "
             id="polygon137370" />
          <g
             id="g137374">
            <polygon
               fill="#f25a42"
               points="740.395,600.358 729.138,547.594 713.512,547.594 724.769,600.358 "
               id="polygon137372" />
          </g>
          <g
             id="g137378">
            <polygon
               fill="#2cbbf5"
               points="760.663,600.358 747.53,537.633 731.905,537.633 745.037,600.358 "
               id="polygon137376" />
          </g>
          <g
             id="g137382">
            <polygon
               fill="#efa78e"
               points="776.318,609.3 757.558,525.962 754.085,525.962 772.846,605.828 674.142,605.828 674.142,609.3 "
               id="polygon137380" />
          </g>
        </g>
      </g>
    </g>
    <g
       id="g3339">
      <text
         xml:space="preserve"
         style="font-size:38.7829px;line-height:1.25;font-family:sans-serif;fill:#ff5555;stroke-width:4.84785"
         x="-301.85168"
         y="92.106064"
         id="text138235"><tspan
           sodipodi:role="line"
           id="tspan138233"
           x="-301.85168"
           y="92.106064"
           style="font-style:normal;font-variant:normal;font-weight:900;font-stretch:normal;font-size:64.3874px;font-family:Raleway;-inkscape-font-specification:'Raleway Heavy';fill:#ff5555;stroke-width:4.84785">capture a</tspan><tspan
           sodipodi:role="line"
           x="-301.85168"
           y="163.64998"
           style="font-style:normal;font-variant:normal;font-weight:900;font-stretch:normal;font-size:54.7293px;font-family:Raleway;-inkscape-font-specification:'Raleway Heavy';fill:#ff5555;stroke-width:4.84785"
           id="tspan138237">ateno</tspan><tspan
           sodipodi:role="line"
           x="-301.85168"
           y="217.30032"
           style="font-style:normal;font-variant:normal;font-weight:900;font-stretch:normal;font-family:Raleway;-inkscape-font-specification:'Raleway Heavy';fill:#ff5555;stroke-width:4.84785"
           id="tspan138239">do seu</tspan><tspan
           sodipodi:role="line"
           x="-301.85168"
           y="279.14694"
           style="font-style:normal;font-variant:normal;font-weight:900;font-stretch:normal;font-size:51.5099px;font-family:Raleway;-inkscape-font-specification:'Raleway Heavy';fill:#ff5555;stroke-width:4.84785"
           id="tspan138241">pblico</tspan></text>
      <g
         id="g139830"
         transform="matrix(0.8783779,0,0,0.8783779,61.656191,-21.100122)">
        <g
           id="g1460"
           transform="matrix(0.07568257,0,0,-0.07568257,-33.433805,173.16899)"
           style="fill:#37abc8;fill-opacity:1">
          <g
             id="g1462"
             clip-path="url(#clipPath1466)"
             style="fill:#37abc8;fill-opacity:1">
            <path
               d="m 1494.76,1620.06 h -110.15 c -8.11,0 -14.68,-6.57 -14.68,-14.69 v -110.15 c 0,-8.11 6.57,-14.68 14.68,-14.68 h 110.15 c 8.11,0 14.69,6.57 14.69,14.68 v 110.15 c 0,8.12 -6.58,14.69 -14.69,14.69"
               style="fill:#37abc8;fill-opacity:1;fill-rule:nonzero;stroke:none"
               id="path1474" />
          </g>
        </g>
        <g
           id="g1476"
           transform="matrix(0.07568257,0,0,-0.07568257,-33.433805,173.16899)"
           style="fill:#ff2a2a;fill-opacity:1">
          <g
             id="g1478"
             clip-path="url(#clipPath1482)"
             style="fill:#ff2a2a;fill-opacity:1">
            <path
               d="m 1550.23,1363.4 h -192.98 c -14.21,0 -25.73,-11.52 -25.73,-25.73 v -192.98 c 0,-14.21 11.52,-25.72 25.73,-25.72 h 192.98 c 14.21,0 25.73,11.51 25.73,25.72 v 192.98 c 0,14.21 -11.52,25.73 -25.73,25.73"
               style="fill:#ff2a2a;fill-opacity:1;fill-rule:nonzero;stroke:none"
               id="path1490" />
          </g>
        </g>
        <g
           id="g1492"
           transform="matrix(0.07568257,0,0,-0.07568257,-33.433805,173.16899)"
           style="fill:#a02c2c;fill-opacity:1">
          <g
             id="g1494"
             clip-path="url(#clipPath1498)"
             style="fill:#a02c2c;fill-opacity:1">
            <path
               d="m 1700.37,1542.21 h -179.3 v -56.16 c 0,-9.47 -7.67,-17.13 -17.13,-17.13 h -58.97 v -92.93 h 115.2 c 15.67,0 28.37,-12.71 28.37,-28.38 v -90.85 h 111.83 c 16.59,0 30.05,13.46 30.05,30.05 v 225.36 c 0,16.59 -13.46,30.04 -30.05,30.04"
               style="fill:#37abc8;fill-opacity:1;fill-rule:nonzero;stroke:none"
               id="path1506" />
          </g>
        </g>
        <g
           aria-label="NIXY"
           id="text2075"
           style="font-size:52.2015px;line-height:1.25;font-family:sans-serif;fill:#000000;fill-opacity:1;stroke-width:6.52513"
           transform="matrix(0.54119524,0,0,0.54119524,40.533547,21.221217)">
          <path
             d="m 25.163718,158.75545 v 18.21832 H 14.984425 v -37.06306 h 7.934628 l 14.877428,18.84474 v -18.84474 h 10.179292 v 37.06306 h -8.091232 z"
             style="font-style:normal;font-variant:normal;font-weight:900;font-stretch:normal;font-family:Raleway;-inkscape-font-specification:'Raleway Heavy';fill:#000000;fill-opacity:1;stroke-width:6.52513"
             id="path749" />
          <path
             d="m 54.344342,176.97377 v -37.06306 h 10.179292 v 37.06306 z"
             style="font-style:normal;font-variant:normal;font-weight:900;font-stretch:normal;font-family:Raleway;-inkscape-font-specification:'Raleway Heavy';fill:#000000;fill-opacity:1;stroke-width:6.52513"
             id="path751" />
          <path
             d="m 78.148194,139.91071 6.733994,11.69313 6.733993,-11.69313 H 102.5785 l -11.640938,18.79254 11.223318,18.27052 H 91.198569 l -6.316381,-11.17112 -6.316382,11.17112 H 67.55129 L 78.774612,158.70325 67.133678,139.91071 Z"
             style="font-style:normal;font-variant:normal;font-weight:900;font-stretch:normal;font-family:Raleway;-inkscape-font-specification:'Raleway Heavy';fill:#000000;fill-opacity:1;stroke-width:6.52513"
             id="path753" />
          <path
             d="m 112.70557,139.91071 6.62959,15.13843 6.78619,-15.13843 h 11.06672 l -12.78937,24.79571 v 12.26735 h -10.12709 v -12.37176 l -12.58056,-24.6913 z"
             style="font-style:normal;font-variant:normal;font-weight:900;font-stretch:normal;font-family:Raleway;-inkscape-font-specification:'Raleway Heavy';fill:#000000;fill-opacity:1;stroke-width:6.52513"
             id="path755" />
        </g>
        <g
           aria-label="PRESENTATIONS"
           id="text2079"
           style="font-size:14.3561px;line-height:1.25;font-family:sans-serif;fill:#000000;fill-opacity:1;stroke-width:1.7945"
           transform="matrix(0.54119524,0,0,0.54119524,40.533547,21.221217)">
          <path
             d="m 19.849127,198.84309 v -10.19283 h 4.177625 q 0.631669,0 1.162844,0.27277 0.531176,0.25841 0.918791,0.7178 0.387614,0.44504 0.602956,1.00493 0.229698,0.54553 0.229698,1.11978 0,0.80394 -0.358903,1.52174 -0.358902,0.71781 -0.990571,1.1772 -0.631668,0.44504 -1.478678,0.44504 h -3.761298 v 3.93357 z m 0.502464,-4.39296 h 3.746942 q 0.732161,0 1.24898,-0.38762 0.531176,-0.40197 0.803942,-1.00492 0.287122,-0.61732 0.287122,-1.29205 0,-0.70345 -0.33019,-1.30641 -0.330191,-0.60295 -0.890078,-0.97621 -0.545532,-0.37326 -1.205913,-0.37326 h -3.660805 z"
             style="font-style:normal;font-variant:normal;font-weight:200;font-stretch:normal;font-family:Raleway;-inkscape-font-specification:'Raleway Ultra-Light';fill:#000000;fill-opacity:1;stroke-width:1.7945"
             id="path758" />
          <path
             d="m 28.749894,198.84309 v -10.19283 h 4.191981 q 0.646024,0 1.1772,0.27277 0.531176,0.25841 0.91879,0.7178 0.387615,0.44504 0.602957,1.00493 0.215341,0.54553 0.215341,1.11978 0,0.77523 -0.315834,1.44996 -0.315834,0.67474 -0.875722,1.11978 -0.559888,0.44504 -1.306405,0.51682 l 2.555385,3.99099 h -0.574244 l -2.526673,-3.93357 h -3.560313 v 3.93357 z m 0.502463,-4.39296 h 3.775654 q 0.717805,0 1.234625,-0.38762 0.531176,-0.38761 0.818298,-1.00492 0.287122,-0.61732 0.287122,-1.29205 0,-0.6891 -0.330191,-1.29205 -0.33019,-0.61731 -0.890078,-0.99057 -0.545532,-0.37326 -1.220268,-0.37326 h -3.675162 z"
             style="font-style:normal;font-variant:normal;font-weight:200;font-stretch:normal;font-family:Raleway;-inkscape-font-specification:'Raleway Ultra-Light';fill:#000000;fill-opacity:1;stroke-width:1.7945"
             id="path760" />
          <path
             d="m 44.742569,198.3837 v 0.45939 h -6.733011 v -10.19283 h 6.603806 v 0.4594 h -6.101342 v 4.29247 h 5.340469 v 0.4594 h -5.340469 v 4.52217 z"
             style="font-style:normal;font-variant:normal;font-weight:200;font-stretch:normal;font-family:Raleway;-inkscape-font-specification:'Raleway Ultra-Light';fill:#000000;fill-opacity:1;stroke-width:1.7945"
             id="path762" />
          <path
             d="m 52.582268,190.15765 q -0.287122,-0.30147 -0.5886,-0.51682 -0.301478,-0.21534 -0.646024,-0.34454 -0.344547,-0.12921 -0.732161,-0.18663 -0.387615,-0.0718 -0.84701,-0.0718 -1.62224,0 -2.354401,0.61731 -0.732161,0.61731 -0.732161,1.65095 0,0.70345 0.315834,1.10542 0.315835,0.40197 1.004927,0.64603 0.689093,0.22969 1.780157,0.45939 1.119776,0.2297 1.938073,0.53118 0.818298,0.30147 1.263337,0.81829 0.445039,0.51682 0.445039,1.42126 0,0.64602 -0.258409,1.14849 -0.244054,0.4881 -0.717805,0.81829 -0.473752,0.33019 -1.148488,0.50247 -0.660381,0.15791 -1.478679,0.15791 -0.818297,0 -1.521746,-0.15791 -0.703449,-0.17228 -1.320762,-0.51682 -0.617312,-0.34455 -1.162844,-0.87572 l 0.301478,-0.37326 q 0.344547,0.37326 0.746518,0.66038 0.416326,0.27276 0.875722,0.45939 0.473751,0.18663 0.990571,0.28712 0.531175,0.0861 1.105419,0.0861 1.43561,0 2.253908,-0.53117 0.832654,-0.54554 0.832654,-1.59353 0,-0.73216 -0.358903,-1.16285 -0.358902,-0.44503 -1.091063,-0.7178 -0.732161,-0.28712 -1.866293,-0.51682 -1.10542,-0.2297 -1.880649,-0.50246 -0.760874,-0.27277 -1.162845,-0.76088 -0.387614,-0.4881 -0.387614,-1.32076 0,-0.90443 0.445039,-1.52174 0.445039,-0.63167 1.248981,-0.94751 0.803941,-0.33019 1.880649,-0.33019 0.66038,0 1.205912,0.12921 0.545532,0.1292 1.004927,0.38761 0.473751,0.25841 0.890078,0.68909 z"
             style="font-style:normal;font-variant:normal;font-weight:200;font-stretch:normal;font-family:Raleway;-inkscape-font-specification:'Raleway Ultra-Light';fill:#000000;fill-opacity:1;stroke-width:1.7945"
             id="path764" />
          <path
             d="m 62.057274,198.3837 v 0.45939 h -6.733011 v -10.19283 h 6.603806 v 0.4594 h -6.101343 v 4.29247 h 5.34047 v 0.4594 h -5.34047 v 4.52217 z"
             style="font-style:normal;font-variant:normal;font-weight:200;font-stretch:normal;font-family:Raleway;-inkscape-font-specification:'Raleway Ultra-Light';fill:#000000;fill-opacity:1;stroke-width:1.7945"
             id="path766" />
          <path
             d="m 64.655729,189.58341 v 9.25968 h -0.502464 v -10.19283 h 0.401971 l 7.465172,9.40325 v -9.40325 h 0.502464 v 10.19283 h -0.51682 z"
             style="font-style:normal;font-variant:normal;font-weight:200;font-stretch:normal;font-family:Raleway;-inkscape-font-specification:'Raleway Ultra-Light';fill:#000000;fill-opacity:1;stroke-width:1.7945"
             id="path768" />
          <path
             d="m 82.299367,189.10966 h -3.818722 v 9.73343 h -0.502464 v -9.73343 h -3.818723 v -0.4594 h 8.139909 z"
             style="font-style:normal;font-variant:normal;font-weight:200;font-stretch:normal;font-family:Raleway;-inkscape-font-specification:'Raleway Ultra-Light';fill:#000000;fill-opacity:1;stroke-width:1.7945"
             id="path770" />
          <path
             d="m 86.184346,188.65026 h 0.430683 l 4.378611,10.19283 h -0.531176 l -1.507391,-3.51724 h -5.110771 l -1.507391,3.51724 h -0.545532 z m 2.61281,6.24491 -2.397469,-5.61324 -2.411824,5.61324 z"
             style="font-style:normal;font-variant:normal;font-weight:200;font-stretch:normal;font-family:Raleway;-inkscape-font-specification:'Raleway Ultra-Light';fill:#000000;fill-opacity:1;stroke-width:1.7945"
             id="path772" />
          <path
             d="m 98.654279,189.10966 h -3.818723 v 9.73343 h -0.502463 v -9.73343 H 90.51437 v -0.4594 h 8.139909 z"
             style="font-style:normal;font-variant:normal;font-weight:200;font-stretch:normal;font-family:Raleway;-inkscape-font-specification:'Raleway Ultra-Light';fill:#000000;fill-opacity:1;stroke-width:1.7945"
             id="path774" />
          <path
             d="m 100.29085,198.84309 v -10.19283 h 0.50247 v 10.19283 z"
             style="font-style:normal;font-variant:normal;font-weight:200;font-stretch:normal;font-family:Raleway;-inkscape-font-specification:'Raleway Ultra-Light';fill:#000000;fill-opacity:1;stroke-width:1.7945"
             id="path776" />
          <path
             d="m 107.5981,198.91487 q -1.06235,0 -1.93807,-0.43068 -0.87572,-0.44504 -1.50739,-1.1772 -0.63167,-0.73216 -0.97622,-1.65095 -0.34454,-0.93315 -0.34454,-1.90936 0,-1.01928 0.3589,-1.93808 0.3589,-0.93314 1.00493,-1.65095 0.66038,-0.73216 1.52174,-1.14848 0.87572,-0.43069 1.88065,-0.43069 1.06235,0 1.93807,0.44504 0.87573,0.44504 1.49304,1.19156 0.63167,0.74651 0.97621,1.66531 0.34455,0.91879 0.34455,1.86629 0,1.03364 -0.3589,1.96678 -0.3589,0.91879 -1.00493,1.65096 -0.64602,0.7178 -1.52175,1.13413 -0.86136,0.41632 -1.86629,0.41632 z m -4.26376,-5.16819 q 0,0.91879 0.31583,1.7658 0.31584,0.83265 0.87573,1.49303 0.57424,0.66038 1.34947,1.048 0.78958,0.38761 1.72273,0.38761 0.9475,0 1.73709,-0.40197 0.78958,-0.40197 1.34947,-1.07671 0.55989,-0.67473 0.86137,-1.50739 0.30148,-0.83265 0.30148,-1.70837 0,-0.91879 -0.31584,-1.75145 -0.31583,-0.84701 -0.89008,-1.50739 -0.57424,-0.66038 -1.36383,-1.04799 -0.77522,-0.38762 -1.67966,-0.38762 -0.96186,0 -1.75144,0.40197 -0.77523,0.40198 -1.33512,1.07671 -0.55989,0.67474 -0.87572,1.50739 -0.30148,0.83266 -0.30148,1.70838 z"
             style="font-style:normal;font-variant:normal;font-weight:200;font-stretch:normal;font-family:Raleway;-inkscape-font-specification:'Raleway Ultra-Light';fill:#000000;fill-opacity:1;stroke-width:1.7945"
             id="path778" />
          <path
             d="m 114.89099,189.58341 v 9.25968 h -0.50246 v -10.19283 h 0.40197 l 7.46517,9.40325 v -9.40325 h 0.50246 v 10.19283 h -0.51682 z"
             style="font-style:normal;font-variant:normal;font-weight:200;font-stretch:normal;font-family:Raleway;-inkscape-font-specification:'Raleway Ultra-Light';fill:#000000;fill-opacity:1;stroke-width:1.7945"
             id="path780" />
          <path
             d="m 131.42921,190.15765 q -0.28712,-0.30147 -0.5886,-0.51682 -0.30148,-0.21534 -0.64603,-0.34454 -0.34454,-0.12921 -0.73216,-0.18663 -0.38761,-0.0718 -0.84701,-0.0718 -1.62224,0 -2.3544,0.61731 -0.73216,0.61731 -0.73216,1.65095 0,0.70345 0.31583,1.10542 0.31584,0.40197 1.00493,0.64603 0.68909,0.22969 1.78016,0.45939 1.11977,0.2297 1.93807,0.53118 0.8183,0.30147 1.26334,0.81829 0.44504,0.51682 0.44504,1.42126 0,0.64602 -0.25841,1.14849 -0.24406,0.4881 -0.71781,0.81829 -0.47375,0.33019 -1.14849,0.50247 -0.66038,0.15791 -1.47867,0.15791 -0.8183,0 -1.52175,-0.15791 -0.70345,-0.17228 -1.32076,-0.51682 -0.61731,-0.34455 -1.16285,-0.87572 l 0.30148,-0.37326 q 0.34455,0.37326 0.74652,0.66038 0.41633,0.27276 0.87572,0.45939 0.47375,0.18663 0.99057,0.28712 0.53118,0.0861 1.10542,0.0861 1.43561,0 2.25391,-0.53117 0.83265,-0.54554 0.83265,-1.59353 0,-0.73216 -0.3589,-1.16285 -0.3589,-0.44503 -1.09106,-0.7178 -0.73216,-0.28712 -1.8663,-0.51682 -1.10541,-0.2297 -1.88064,-0.50246 -0.76088,-0.27277 -1.16285,-0.76088 -0.38761,-0.4881 -0.38761,-1.32076 0,-0.90443 0.44504,-1.52174 0.44504,-0.63167 1.24898,-0.94751 0.80394,-0.33019 1.88065,-0.33019 0.66038,0 1.20591,0.12921 0.54553,0.1292 1.00493,0.38761 0.47375,0.25841 0.89007,0.68909 z"
             style="font-style:normal;font-variant:normal;font-weight:200;font-stretch:normal;font-family:Raleway;-inkscape-font-specification:'Raleway Ultra-Light';fill:#000000;fill-opacity:1;stroke-width:1.7945"
             id="path782" />
        </g>
      </g>
    </g>
  </g>
</svg>
